<?xml version="1.0" encoding="utf-8"?>
<!-- Generator: Adobe Illustrator 23.0.4, SVG Export Plug-In . SVG Version: 6.00 Build 0)  -->
<svg version="1.1" id="Layer_1" xmlns="http://www.w3.org/2000/svg" xmlns:xlink="http://www.w3.org/1999/xlink" x="0px" y="0px"
	 viewBox="0 0 207.84 31.79" style="enable-background:new 0 0 207.84 31.79;" xml:space="preserve">
<style type="text/css">
	.st0{fill:#FFFFFF;}
	.st1{clip-path:url(#SVGID_2_);fill:#FFFFFF;}
	.st2{clip-path:url(#SVGID_4_);fill:#FFFFFF;}
</style>
<g>
	<rect x="159.01" y="0.69" class="st0" width="0.82" height="30.56"/>
	<path class="st0" d="M170.73,16.81l-1.16-2.83l-1.16,2.83H170.73L170.73,16.81z M168.71,11.68h1.77l3.74,8.78h-2l-0.8-1.96h-3.69
		l-0.8,1.96h-1.96L168.71,11.68"/>
	<rect x="175.32" y="11.37" class="st0" width="1.89" height="9.09"/>
	<path class="st0" d="M178.82,18.1v-4.32h1.89v3.72c0,0.9,0.42,1.36,1.15,1.36c0.72,0,1.18-0.46,1.18-1.36v-3.72h1.89v6.67h-1.89
		v-0.95c-0.44,0.56-1,1.07-1.95,1.07C179.66,20.58,178.82,19.63,178.82,18.1"/>
	<path class="st0" d="M186.51,13.78h1.89v0.95c0.44-0.56,1.01-1.07,1.97-1.07c0.87,0,1.53,0.39,1.88,1.06
		c0.58-0.68,1.28-1.06,2.19-1.06c1.41,0,2.25,0.85,2.25,2.45v4.35h-1.89v-3.72c0-0.9-0.4-1.36-1.11-1.36
		c-0.71,0-1.14,0.46-1.14,1.36v3.72h-1.89v-3.72c0-0.9-0.4-1.36-1.11-1.36c-0.71,0-1.15,0.46-1.15,1.36v3.72h-1.89V13.78"/>
	<path class="st0" d="M198.21,13.78h1.89v0.95c0.44-0.56,1-1.07,1.96-1.07c1.43,0,2.26,0.95,2.26,2.48v4.32h-1.89v-3.72
		c0-0.9-0.42-1.36-1.15-1.36c-0.72,0-1.18,0.46-1.18,1.36v3.72h-1.89V13.78"/>
	<g>
		<defs>
			<rect id="SVGID_1_" width="207.84" height="31.8"/>
		</defs>
		<clipPath id="SVGID_2_">
			<use xlink:href="#SVGID_1_"  style="overflow:visible;"/>
		</clipPath>
		<path class="st1" d="M205.93,13.78h1.89v6.67h-1.89V13.78z M205.88,11.37h1.99v1.68h-1.99V11.37z"/>
	</g>
	<path class="st0" d="M117.24,1.39l0.29-0.02l0.02-0.01c0.05-0.03,0.08-0.11,0.07-0.2c0-0.04-0.02-0.16-0.1-0.2l-0.02-0.01l-0.02,0
		c-0.49,0.02-0.87,0.03-1.3,0.03c-0.45,0-0.81-0.01-1.32-0.03l-0.02,0l-0.02,0.01c-0.09,0.04-0.1,0.17-0.1,0.2
		c-0.01,0.09,0.02,0.16,0.07,0.2l0.02,0.01l0.28,0.02c0.54,0.04,0.57,0.12,0.57,1.26v3.73c0,1.13-0.03,1.19-0.57,1.25l-0.29,0.04
		l-0.02,0.02c-0.06,0.06-0.07,0.16-0.06,0.23c0.01,0.08,0.05,0.14,0.1,0.16l0.02,0.01h0.02c0.53-0.02,0.88-0.03,1.32-0.03
		c0.42,0,0.76,0.01,1.3,0.03h0.02l0.02-0.01c0.09-0.04,0.1-0.17,0.1-0.2c0.01-0.09-0.02-0.16-0.07-0.2l-0.3-0.04
		c-0.54-0.07-0.57-0.12-0.57-1.25V2.65C116.67,1.51,116.71,1.43,117.24,1.39"/>
	<path class="st0" d="M111.17,4.12l-0.84-0.52c-0.32-0.2-0.85-0.62-0.85-1.22c0-0.4,0.15-1.08,1.17-1.08c0.92,0,1.21,0.6,1.35,1.13
		l0.01,0.03c0.03,0.04,0.09,0.06,0.16,0.06c0.08,0,0.19-0.03,0.23-0.1l0.01-0.02V2.37c0-0.43-0.09-1.03-0.19-1.31l-0.02-0.05h-0.06
		c-0.07,0-0.21-0.02-0.35-0.06c-0.25-0.07-0.64-0.14-0.99-0.14c-1.33,0-2.22,0.76-2.22,1.88c0,0.96,0.73,1.58,1.17,1.87l1,0.65
		c0.72,0.47,0.82,0.95,0.82,1.4c0,0.56-0.38,1.12-1.23,1.12c-1.06,0-1.53-0.82-1.73-1.51l-0.01-0.02c-0.03-0.05-0.09-0.07-0.16-0.07
		c-0.07,0-0.17,0.03-0.22,0.1l-0.02,0.02l0,0.03c0.02,0.47,0.15,1.25,0.29,1.5l0.01,0.02l0.02,0.01c0.21,0.12,0.78,0.4,1.68,0.4
		c1.38,0,2.31-0.81,2.31-2.02C112.52,5.37,112.08,4.69,111.17,4.12"/>
	<path class="st0" d="M126.04,0.67c-0.02,0-0.06,0-0.1,0.02l-0.02,0.01l-0.02,0.03c-0.14,0.23-0.19,0.25-0.75,0.25h-4.34
		c-0.47,0-0.68-0.02-0.72-0.26l-0.01-0.02l-0.02-0.02c-0.03-0.03-0.08-0.04-0.14-0.04c-0.03,0-0.11,0-0.16,0.03l-0.03,0.02
		l-0.01,0.03c-0.07,0.42-0.23,1.08-0.39,1.55l-0.01,0.03l0.01,0.03c0.06,0.13,0.28,0.19,0.39,0.1l0.02-0.01l0.01-0.02
		c0.1-0.24,0.21-0.47,0.45-0.7c0.23-0.21,0.75-0.24,1.23-0.24h0.58c0.23,0,0.23,0,0.23,0.26V6.4c0,1.14-0.06,1.19-0.58,1.23
		l-0.38,0.03l-0.04,0.01c-0.06,0.04-0.09,0.12-0.09,0.21c0,0.07,0.03,0.16,0.1,0.19l0.02,0.01h0.02c0.64-0.02,1.03-0.03,1.46-0.03
		c0.41,0,0.75,0.01,1.37,0.03h0.02l0.02-0.01c0.09-0.04,0.1-0.17,0.1-0.2c0.01-0.09-0.02-0.16-0.07-0.2l-0.37-0.04
		c-0.53-0.05-0.55-0.11-0.55-1.23V1.7c0-0.11,0-0.21,0.02-0.22c0.02-0.02,0.13-0.02,0.21-0.02h0.74c0.56,0,0.94,0.08,1.17,0.25
		c0.1,0.07,0.19,0.34,0.23,0.71l0,0.02l0.02,0.02c0.04,0.05,0.11,0.07,0.19,0.07c0.1,0,0.18-0.04,0.22-0.11l0.01-0.02l0-0.02
		c-0.03-0.3,0.04-1.14,0.16-1.56l0.01-0.03l-0.01-0.03C126.19,0.68,126.08,0.67,126.04,0.67"/>
	<path class="st0" d="M134.17,0.96l-0.02-0.01l-0.03,0c-0.75,0.04-1.18,0.04-1.97,0l-0.02,0l-0.02,0.01
		c-0.06,0.03-0.1,0.09-0.11,0.16c-0.01,0.08,0.01,0.17,0.07,0.23l0.02,0.02l0.22,0.03c0.2,0.02,0.33,0.07,0.37,0.1
		c-0.03,0.15-0.4,0.83-0.62,1.24L132,2.82c-0.25,0.49-0.54,1.02-0.91,1.65c-0.27-0.5-0.54-1.05-0.81-1.58
		c-0.1-0.21-0.21-0.42-0.31-0.62c-0.08-0.15-0.32-0.69-0.32-0.77c0-0.02,0.05-0.06,0.37-0.11l0.16-0.03l0.02-0.02
		c0.06-0.06,0.08-0.16,0.06-0.25c-0.02-0.07-0.06-0.12-0.12-0.14l-0.01-0.01l-0.02,0c-0.26,0.02-0.64,0.03-1.12,0.03
		c-0.48,0-0.87-0.01-1.21-0.03l-0.02,0l-0.02,0.01c-0.05,0.03-0.09,0.08-0.1,0.15c-0.01,0.08,0.01,0.17,0.06,0.23l0.02,0.02
		l0.32,0.06c0.28,0.04,0.42,0.07,0.77,0.75l1.24,2.41c0.3,0.57,0.33,0.69,0.33,1.26v0.53c0,1.14-0.03,1.2-0.56,1.25l-0.35,0.03
		l-0.02,0.02c-0.06,0.06-0.07,0.16-0.06,0.23c0.01,0.08,0.05,0.14,0.1,0.16l0.02,0.01h0.02c0.55-0.02,0.93-0.03,1.37-0.03
		c0.43,0,0.8,0.01,1.42,0.03h0.02l0.02-0.01c0.05-0.03,0.09-0.09,0.1-0.16c0.01-0.07,0-0.17-0.06-0.23l-0.02-0.02l-0.43-0.03
		c-0.48-0.04-0.56-0.12-0.56-1.25V5.84c0-0.79,0.02-0.86,0.48-1.66l0.66-1.14c0.06-0.1,0.12-0.2,0.17-0.3
		c0.41-0.72,0.71-1.24,1.15-1.32l0.32-0.06l0.01-0.01c0.06-0.05,0.08-0.12,0.08-0.2C134.27,1.07,134.23,1,134.17,0.96"/>
	<path class="st0" d="M154.08,2.41c-0.02-0.38-0.03-0.87-0.03-1.38v-0.1l-0.1,0.02c-0.13,0.03-0.77,0.03-1.4,0.03h-1.93
		c-0.39,0-0.75-0.01-1.21-0.03l-0.02,0l-0.02,0.01c-0.09,0.04-0.1,0.17-0.1,0.2c-0.01,0.09,0.02,0.16,0.07,0.2l0.2,0.03
		c0.53,0.07,0.56,0.12,0.56,1.24V6.4c0,1.11-0.03,1.17-0.56,1.23l-0.29,0.04l-0.02,0.02c-0.06,0.06-0.07,0.16-0.06,0.23
		c0.01,0.08,0.05,0.14,0.1,0.16l0.02,0.01h0.02c0.49-0.02,0.84-0.03,1.31-0.03c0.42,0,0.79,0.01,1.39,0.03h0.02l0.02-0.01
		c0.09-0.04,0.1-0.17,0.1-0.2c0.01-0.09-0.02-0.16-0.07-0.2l-0.39-0.04c-0.54-0.05-0.57-0.11-0.57-1.23V4.95c0-0.2,0-0.2,0.27-0.2
		h0.71c0.37,0,0.64,0.01,0.78,0.05c0.15,0.05,0.23,0.14,0.28,0.34l0.11,0.43l0.02,0.02c0.1,0.09,0.33,0.08,0.39-0.02l0.01-0.02V5.52
		c0-0.11-0.01-0.25-0.01-0.4c-0.01-0.19-0.02-0.41-0.02-0.61c0-0.21,0.01-0.44,0.02-0.63c0.01-0.16,0.01-0.31,0.01-0.42V3.42
		l-0.01-0.02c-0.05-0.08-0.15-0.08-0.2-0.08c-0.09,0-0.16,0.03-0.2,0.08l-0.11,0.45c-0.06,0.25-0.13,0.28-0.21,0.31
		c-0.11,0.04-0.43,0.06-0.86,0.06h-0.71c-0.27,0-0.27,0-0.27-0.2V1.8c0-0.34,0-0.34,0.23-0.34h0.64c0.43,0,0.78,0,1,0.06
		c0.45,0.12,0.59,0.42,0.68,0.93l0.01,0.03l0.02,0.02c0.04,0.03,0.1,0.05,0.16,0.05c0.08,0,0.18-0.03,0.22-0.11l0.01-0.02
		L154.08,2.41"/>
	<path class="st0" d="M101.97,1.68c0-0.24,0-0.26,0.6-0.26c1.18,0,1.6,0.83,1.6,1.54c0,0.58-0.16,0.97-0.49,1.24
		c-0.3,0.23-0.71,0.26-1.03,0.26c-0.47,0-0.62-0.02-0.66-0.03c-0.01-0.04-0.01-0.17-0.01-0.29V1.68L101.97,1.68z M106.81,7.82
		l-0.02-0.01c-0.25-0.02-0.5-0.12-0.68-0.27c-0.72-0.61-1.3-1.49-2.09-2.77c-0.06-0.09-0.06-0.13-0.06-0.15
		c0.35-0.14,1.33-0.66,1.33-1.82c0-0.88-0.5-1.32-0.91-1.54c-0.53-0.29-1.2-0.32-1.79-0.32c-0.96,0-1.71,0.03-2.35,0.08l-0.03,0.01
		c-0.06,0.03-0.1,0.1-0.11,0.18c-0.01,0.09,0.03,0.18,0.08,0.22l0.02,0.01l0.35,0.04c0.34,0.04,0.39,0.12,0.39,1.15V6.4
		c0,1.11-0.02,1.17-0.56,1.23l-0.29,0.04l-0.02,0.02c-0.06,0.07-0.07,0.17-0.05,0.24c0.01,0.07,0.05,0.12,0.1,0.15l0.02,0.01h0.02
		c0.47-0.02,0.85-0.03,1.31-0.03c0.43,0,0.8,0.01,1.24,0.03h0.02l0.02-0.01c0.08-0.04,0.1-0.14,0.1-0.18
		c0.01-0.09-0.01-0.17-0.06-0.21l-0.02-0.01l-0.24-0.04c-0.54-0.08-0.56-0.12-0.56-1.23V5.08c0-0.15,0-0.15,0.41-0.15
		c0.4,0,0.54,0.1,0.68,0.3c0.16,0.23,0.34,0.52,0.52,0.81c0.19,0.3,0.37,0.58,0.51,0.78c0.72,1.03,1.26,1.35,2.24,1.35
		c0.2,0,0.38-0.02,0.49-0.05l0.02-0.01c0.05-0.04,0.07-0.1,0.06-0.16C106.89,7.88,106.86,7.84,106.81,7.82"/>
	<path class="st0" d="M143.45,7.74c-2.16,0-2.74-2.19-2.74-3.48c0-2.19,1.31-2.96,2.43-2.96c1.98,0,2.69,1.89,2.69,3.52
		C145.82,6.97,144.54,7.74,143.45,7.74L143.45,7.74z M143.31,0.81c-2.18,0-3.81,1.62-3.81,3.78c0,1.81,1.31,3.64,3.81,3.64
		c2.12,0,3.72-1.61,3.72-3.74C147.03,2.71,145.87,0.81,143.31,0.81"/>
	<path class="st0" d="M36.98,0.67c-0.03,0-0.06,0-0.1,0.02L36.85,0.7l-0.01,0.03c-0.13,0.23-0.19,0.25-0.75,0.25h-4.34
		c-0.47,0-0.68-0.02-0.72-0.26l0-0.02l-0.02-0.02c-0.03-0.03-0.08-0.04-0.14-0.04c-0.03,0-0.11,0-0.16,0.03l-0.03,0.02l-0.01,0.03
		c-0.07,0.42-0.23,1.08-0.39,1.55L30.27,2.3l0.02,0.03c0.06,0.13,0.28,0.19,0.39,0.1l0.02-0.01L30.7,2.4
		c0.11-0.24,0.21-0.47,0.45-0.7c0.23-0.21,0.75-0.24,1.24-0.24h0.58c0.23,0,0.23,0,0.23,0.26V6.4c0,1.14-0.07,1.19-0.58,1.23
		l-0.38,0.03l-0.04,0.01c-0.06,0.04-0.1,0.12-0.09,0.21c0,0.07,0.03,0.16,0.1,0.19l0.02,0.01h0.02c0.64-0.02,1.03-0.03,1.46-0.03
		c0.41,0,0.75,0.01,1.37,0.03h0.02l0.02-0.01c0.07-0.04,0.1-0.13,0.1-0.2c0-0.09-0.02-0.16-0.07-0.2l-0.37-0.04
		c-0.52-0.05-0.55-0.11-0.55-1.23v-4.7c0-0.11,0-0.21,0.02-0.23c0.02-0.02,0.13-0.02,0.21-0.02h0.74c0.56,0,0.94,0.08,1.17,0.25
		c0.1,0.07,0.19,0.34,0.23,0.71l0,0.02l0.02,0.02c0.04,0.05,0.11,0.07,0.19,0.07c0.1,0,0.18-0.04,0.22-0.11l0.01-0.02l0-0.02
		c-0.03-0.3,0.04-1.15,0.16-1.56l0.01-0.03l-0.01-0.03C37.13,0.68,37.01,0.67,36.98,0.67"/>
	<path class="st0" d="M54.18,6.41l-0.02,0.03c-0.3,0.6-0.57,0.9-0.71,0.98c-0.23,0.11-0.54,0.15-1.31,0.15
		c-0.87,0-1.1-0.1-1.21-0.22c-0.15-0.16-0.18-0.5-0.18-1.04V4.84c0-0.2,0-0.2,0.27-0.2h0.61c0.37,0,0.64,0.01,0.79,0.05
		c0.15,0.04,0.22,0.13,0.27,0.34l0.1,0.41l0.02,0.03c0.04,0.05,0.11,0.08,0.2,0.08c0.1,0,0.17-0.04,0.21-0.1l0.01-0.02V5.41
		c0-0.1-0.01-0.24-0.02-0.39c-0.01-0.19-0.02-0.41-0.02-0.62c0-0.22,0.01-0.44,0.02-0.64c0.01-0.16,0.02-0.3,0.02-0.42V3.32
		L53.19,3.3c-0.03-0.06-0.11-0.1-0.21-0.1c-0.08,0-0.16,0.03-0.2,0.07l-0.1,0.47c-0.05,0.24-0.11,0.27-0.2,0.31
		c-0.11,0.04-0.43,0.06-0.87,0.06h-0.61c-0.27,0-0.27,0-0.27-0.21V1.8c0-0.34,0-0.34,0.24-0.34h0.75c0.45,0,0.79,0.01,1,0.06
		c0.48,0.12,0.58,0.42,0.72,0.88l0.02,0.06l0.01,0.03c0.04,0.04,0.1,0.07,0.17,0.07c0.07,0,0.17-0.02,0.22-0.09l0.01-0.02
		l-0.01-0.15c-0.05-0.61-0.1-1.13-0.16-1.29L53.7,0.93l-0.07,0.02c-0.12,0.03-0.77,0.03-1.4,0.03h-1.97c-0.4,0-0.75-0.01-1.23-0.03
		l-0.02,0l-0.02,0.01c-0.09,0.04-0.1,0.17-0.1,0.2c-0.01,0.09,0.02,0.16,0.07,0.2l0.2,0.04c0.54,0.06,0.57,0.13,0.57,1.24V6.4
		c0,1.14-0.06,1.19-0.58,1.23l-0.37,0.03l-0.02,0.02c-0.06,0.06-0.07,0.16-0.06,0.23c0.01,0.08,0.05,0.14,0.1,0.16l0.02,0.01h0.02
		c0.61-0.02,0.97-0.03,1.42-0.03h0.94c0.91,0,1.83,0.01,2.81,0.03l0.05,0l0.02-0.05c0.14-0.29,0.4-1.11,0.48-1.48l0.01-0.03
		l-0.01-0.02C54.49,6.36,54.28,6.34,54.18,6.41"/>
	<path class="st0" d="M67.59,0.96l-0.02-0.01l-0.03,0c-0.36,0.02-0.65,0.03-1.1,0.03c-0.4,0-0.79-0.01-1.19-0.03l-0.03,0l-0.02,0.01
		c-0.05,0.03-0.08,0.09-0.09,0.16c-0.01,0.08,0.01,0.15,0.06,0.21l0.02,0.03l0.3,0.02c0.24,0.02,0.4,0.08,0.46,0.18
		c0.12,0.22,0.19,0.97,0.19,2.13v1.21c0,1.24-0.35,2.71-2.02,2.71c-1.4,0-2.05-0.86-2.05-2.72V2.62c0-1.11,0.04-1.2,0.55-1.24
		l0.27-0.02l0.02-0.01c0.05-0.03,0.08-0.11,0.07-0.19c0-0.07-0.03-0.16-0.1-0.2l-0.02-0.01l-0.02,0c-0.5,0.02-0.85,0.03-1.29,0.03
		c-0.43,0-0.8-0.01-1.3-0.03l-0.02,0l-0.02,0.01c-0.07,0.03-0.1,0.12-0.1,0.2c-0.01,0.09,0.02,0.16,0.07,0.19l0.02,0.01l0.28,0.02
		c0.52,0.04,0.56,0.13,0.56,1.24v2.48c0,1.27,0.26,2.05,0.85,2.54c0.46,0.39,1.14,0.6,2.01,0.6c0.83,0,1.62-0.3,2.06-0.79
		c0.51-0.54,0.76-1.38,0.76-2.56V3.69c0-0.53,0-1.78,0.14-2.11c0.05-0.11,0.23-0.19,0.46-0.2l0.29-0.02l0.02-0.03
		c0.05-0.06,0.07-0.14,0.05-0.22C67.68,1.04,67.64,0.99,67.59,0.96"/>
	<path class="st0" d="M46.64,7.68l-0.29-0.04C45.83,7.57,45.8,7.51,45.8,6.4V2.63c0-1.12,0.03-1.19,0.56-1.24l0.22-0.02l0.04-0.01
		c0.05-0.03,0.08-0.11,0.07-0.2c0-0.04-0.02-0.16-0.1-0.2l-0.02-0.01l-0.02,0c-0.51,0.02-0.85,0.03-1.24,0.03
		c-0.45,0-0.82-0.01-1.26-0.03l-0.02,0l-0.02,0.01c-0.09,0.04-0.1,0.17-0.1,0.2c-0.01,0.09,0.02,0.16,0.07,0.2l0.24,0.03
		c0.53,0.05,0.57,0.12,0.57,1.24v1.2c0,0.26,0,0.26-0.44,0.26h-3c-0.44,0-0.44,0-0.44-0.26v-1.2c0-1.12,0.03-1.19,0.56-1.24
		l0.2-0.02l0.04-0.01c0.05-0.03,0.08-0.11,0.07-0.2c0-0.04-0.02-0.16-0.1-0.2l-0.02-0.01l-0.02,0c-0.48,0.02-0.83,0.03-1.21,0.03
		c-0.27,0-0.51-0.01-0.77-0.02c-0.17-0.01-0.34-0.01-0.55-0.01h-0.02l-0.02,0.01c-0.09,0.04-0.1,0.17-0.1,0.2
		c-0.01,0.09,0.02,0.16,0.07,0.2l0.02,0.01l0.3,0.02c0.46,0.03,0.54,0.13,0.54,1.24V6.4c0,1.09-0.02,1.14-0.54,1.23l-0.2,0.04
		l-0.02,0.02c-0.06,0.06-0.07,0.16-0.06,0.23c0.01,0.08,0.05,0.14,0.1,0.16l0.02,0.01h0.02c0.14-0.01,0.28-0.01,0.42-0.01
		c0.25-0.01,0.5-0.02,0.79-0.02c0.4,0,0.73,0.01,1.33,0.03h0.02l0.02-0.01c0.07-0.03,0.1-0.13,0.1-0.2c0.01-0.09-0.02-0.16-0.07-0.2
		l-0.34-0.04c-0.5-0.05-0.57-0.1-0.57-1.23V4.93c0-0.25,0-0.25,0.44-0.25h3c0.44,0,0.44,0,0.44,0.25V6.4c0,1.12-0.01,1.14-0.57,1.23
		l-0.23,0.04l-0.02,0.02c-0.06,0.06-0.07,0.16-0.06,0.23c0.01,0.08,0.05,0.14,0.1,0.16l0.02,0.01h0.02c0.5-0.02,0.87-0.03,1.26-0.03
		c0.41,0,0.78,0.01,1.27,0.03h0.02l0.02-0.01c0.09-0.04,0.1-0.17,0.1-0.2C46.72,7.79,46.7,7.71,46.64,7.68"/>
	<path class="st0" d="M81.57,1.39l0.28-0.02l0.02-0.01c0.05-0.03,0.08-0.11,0.07-0.2c0-0.04-0.02-0.16-0.1-0.2l-0.02-0.01l-0.02,0
		c-0.49,0.02-0.87,0.03-1.3,0.03c-0.45,0-0.81-0.01-1.32-0.03l-0.02,0l-0.02,0.01c-0.09,0.04-0.1,0.17-0.1,0.2
		c-0.01,0.09,0.02,0.16,0.07,0.2l0.02,0.01l0.28,0.02c0.53,0.04,0.56,0.13,0.56,1.26v3.73c0,1.13-0.03,1.19-0.57,1.25l-0.29,0.04
		L79.1,7.69c-0.06,0.06-0.07,0.16-0.06,0.23c0.01,0.08,0.05,0.14,0.1,0.16l0.02,0.01h0.02c0.53-0.02,0.88-0.03,1.32-0.03
		c0.42,0,0.78,0.01,1.3,0.03h0.02l0.02-0.01c0.09-0.04,0.1-0.17,0.1-0.2c0.01-0.09-0.02-0.17-0.07-0.2l-0.3-0.04
		C81.03,7.57,81,7.51,81,6.38V2.65C81,1.52,81.04,1.43,81.57,1.39"/>
	<path class="st0" d="M91.03,0.96l-0.02-0.01l-0.02,0c-0.35,0.02-0.67,0.03-1.01,0.03c-0.41,0-0.81-0.01-1.09-0.03l-0.02,0
		l-0.02,0.01c-0.06,0.03-0.1,0.1-0.11,0.19c-0.01,0.08,0.02,0.16,0.07,0.21l0.02,0.02l0.21,0.02c0.37,0.04,0.4,0.12,0.4,0.12
		c0,0.07-0.01,0.17-0.09,0.38c-0.18,0.46-0.68,1.66-0.97,2.35C88.3,4.41,88.2,4.64,88.09,4.9c-0.2,0.47-0.44,1.05-0.65,1.5
		c-0.5-1.14-0.95-2.28-1.42-3.45c-0.31-0.76-0.49-1.3-0.52-1.44c0.02-0.03,0.11-0.08,0.42-0.12l0.18-0.03l0.02-0.01
		c0.05-0.05,0.08-0.12,0.07-0.21c-0.01-0.08-0.05-0.15-0.1-0.19l-0.02-0.01l-0.02,0c-0.47,0.02-0.83,0.03-1.27,0.03
		c-0.44,0-0.77-0.01-1.08-0.03l-0.03,0l-0.02,0.01c-0.06,0.04-0.1,0.11-0.11,0.19c-0.01,0.08,0.02,0.16,0.08,0.2l0.02,0.02
		l0.22,0.02c0.41,0.05,0.55,0.24,0.78,0.81l1.85,4.55c0.22,0.55,0.38,1.01,0.48,1.38l0.01,0.04l0.04,0.02
		c0.06,0.02,0.12,0.04,0.19,0.04c0.06,0,0.12-0.02,0.16-0.04l0.02-0.02l0.01-0.03c0.18-0.56,0.68-1.8,1.09-2.73l0.57-1.29
		c0.49-1.1,0.89-1.93,1.17-2.4c0.13-0.22,0.27-0.31,0.48-0.33l0.35-0.02l0.02-0.02c0.06-0.06,0.07-0.16,0.06-0.22
		C91.11,1.04,91.08,0.98,91.03,0.96"/>
	<path class="st0" d="M97.87,6.41l-0.03,0.03c-0.3,0.6-0.57,0.9-0.71,0.98c-0.23,0.11-0.54,0.15-1.31,0.15
		c-0.87,0-1.1-0.1-1.21-0.22c-0.15-0.16-0.18-0.5-0.18-1.04V4.84c0-0.2,0-0.2,0.27-0.2h0.61c0.37,0,0.64,0.01,0.79,0.05
		c0.14,0.04,0.22,0.13,0.27,0.34l0.09,0.41l0.02,0.03c0.04,0.05,0.11,0.08,0.2,0.08c0.1,0,0.17-0.04,0.21-0.1l0.01-0.02V5.41
		c0-0.1-0.01-0.24-0.02-0.39c-0.01-0.19-0.02-0.41-0.02-0.62c0-0.22,0.01-0.44,0.02-0.64c0.01-0.16,0.02-0.3,0.02-0.42V3.32
		L96.89,3.3c-0.03-0.06-0.11-0.1-0.21-0.1c-0.08,0-0.16,0.03-0.2,0.07l-0.1,0.47c-0.05,0.24-0.11,0.27-0.2,0.31
		c-0.11,0.04-0.43,0.06-0.87,0.06h-0.61c-0.27,0-0.27,0-0.27-0.21V1.8c0-0.34,0-0.34,0.23-0.34h0.76c0.45,0,0.79,0.01,1,0.06
		C96.91,1.64,97,1.95,97.15,2.4l0.02,0.06l0.02,0.03c0.04,0.04,0.09,0.07,0.17,0.07c0.07,0,0.17-0.02,0.22-0.09l0.02-0.02
		l-0.01-0.15c-0.06-0.61-0.1-1.13-0.16-1.29l-0.03-0.07l-0.07,0.02c-0.12,0.03-0.77,0.03-1.39,0.03h-1.97
		c-0.4,0-0.75-0.01-1.23-0.03l-0.02,0l-0.02,0.01c-0.08,0.04-0.1,0.16-0.1,0.2c-0.01,0.09,0.02,0.16,0.07,0.2l0.2,0.04
		c0.54,0.06,0.57,0.13,0.57,1.24V6.4c0,1.14-0.07,1.19-0.58,1.23l-0.37,0.03l-0.02,0.02c-0.06,0.06-0.07,0.16-0.06,0.23
		c0.01,0.08,0.05,0.14,0.1,0.16l0.02,0.01h0.02c0.61-0.02,0.97-0.03,1.42-0.03h0.94c0.91,0,1.83,0.01,2.81,0.03l0.05,0l0.02-0.05
		c0.14-0.29,0.4-1.11,0.48-1.48l0.01-0.03l-0.01-0.02C98.18,6.36,97.97,6.34,97.87,6.41"/>
	<path class="st0" d="M77,0.96l-0.02-0.01l-0.02,0c-0.34,0.02-0.62,0.03-1.08,0.03c-0.37,0-0.72-0.01-1.23-0.03l-0.02,0l-0.01,0.01
		c-0.06,0.02-0.1,0.08-0.12,0.16c-0.02,0.1,0.01,0.19,0.07,0.24l0.02,0.02l0.2,0.02c0.36,0.04,0.54,0.1,0.59,0.17
		c0.13,0.2,0.2,0.97,0.2,2.13v2.25c0,0.1,0,0.22-0.01,0.3c-0.36-0.38-0.74-0.8-1.22-1.33l-1.46-1.64C71.86,2.1,71.26,1.34,71.13,1
		L71.1,0.94l-0.06,0.01c-0.13,0.02-0.3,0.03-0.47,0.03c-0.18,0-0.74,0-1.18-0.03l-0.02,0l-0.02,0.01c-0.06,0.03-0.1,0.09-0.11,0.16
		c-0.01,0.09,0.01,0.18,0.07,0.23l0.02,0.02l0.21,0.03c0.28,0.03,0.49,0.11,0.6,0.23c0.2,0.21,0.21,0.41,0.21,0.7v3.13
		c0,0.51,0,1.69-0.13,2.03c-0.02,0.05-0.11,0.12-0.4,0.16l-0.31,0.03l-0.02,0.02c-0.05,0.05-0.07,0.12-0.06,0.2
		c0.01,0.08,0.04,0.14,0.09,0.18l0.02,0.02l0.03,0c0.36-0.02,0.65-0.03,1.09-0.03c0.36,0,0.71,0.01,1.22,0.03l0.03,0l0.02-0.02
		c0.05-0.04,0.08-0.09,0.09-0.16c0.01-0.08-0.01-0.16-0.05-0.22l-0.02-0.03l-0.36-0.04c-0.25-0.02-0.43-0.08-0.47-0.16
		C71,7.28,70.93,6.5,70.93,5.35V3.06c0-0.19,0-0.39,0.02-0.53c0.17,0.19,0.44,0.51,0.7,0.81c0.17,0.2,0.33,0.39,0.43,0.51l2.43,2.77
		c0.81,0.92,1.19,1.37,1.34,1.58l0.02,0.03h0.04c0.14,0,0.24-0.07,0.28-0.17l0.01-0.02l0-0.02c-0.01-0.12-0.03-0.54-0.03-1.83V3.55
		c0-0.54-0.01-1.66,0.15-1.98c0.01-0.03,0.14-0.12,0.53-0.18l0.17-0.03l0.02-0.02c0.05-0.05,0.07-0.13,0.07-0.21
		C77.09,1.06,77.06,0.99,77,0.96"/>
	<path class="st0" d="M133.74,23.98l-0.02-0.01l-0.02,0c-0.85,0.05-1.69,0.07-2.66,0.07c-1.57,0-2.91-0.03-3.59-0.07l-0.02,0
		l-0.02,0.01c-0.11,0.05-0.19,0.19-0.19,0.37c0,0.15,0.04,0.33,0.19,0.4l1.13,0.13c1.51,0.17,1.57,0.26,1.57,2.36v1.01
		c0,0.78-0.12,1.23-0.24,1.39c-0.29,0.45-1.3,0.72-2.7,0.72c-4.61,0-7.47-3.28-7.47-8.55c0-3.31,1.82-7.17,6.94-7.17
		c2.88,0,4.45,1.08,5.08,3.51l0,0.02l0.02,0.02c0.08,0.08,0.21,0.12,0.36,0.12c0.17,0,0.38-0.06,0.45-0.23l0.01-0.02l0-0.02
		c-0.26-1.69-0.38-2.88-0.38-3.64v-0.1l-0.09,0.02c-0.26,0.04-0.94-0.1-1.4-0.2l-0.13-0.03c-0.38-0.09-1.73-0.38-3.21-0.38
		c-3.5,0-6.12,0.97-8.04,2.97c-1.47,1.57-2.29,3.71-2.29,6.02c0,2.24,0.81,4.24,2.34,5.77c1.82,1.84,4.49,2.82,7.73,2.82
		c1.5,0,3.38-0.35,4.53-0.66c0.39-0.1,0.89-0.22,1.21-0.22h0.03l0.02-0.02c0.07-0.05,0.1-0.12,0.11-0.21
		c0.01-0.08-0.02-0.16-0.08-0.22l-0.03-0.02c-0.39-0.15-0.55-0.66-0.55-1.71v-1.41c0-1.33,0.04-1.92,1.01-2.04l0.43-0.05l0.02-0.02
		c0.1-0.09,0.16-0.25,0.14-0.42C133.9,24.16,133.84,24.03,133.74,23.98"/>
	<path class="st0" d="M45.55,26.69c-0.12,0-0.23,0.03-0.31,0.08l-0.02,0.01l-0.01,0.02c-0.52,1.32-1.88,3.55-5.18,3.55
		c-4.42,0-7.39-3.26-7.39-8.12c0-5.58,3.64-7.57,7.04-7.57c2.84,0,4.55,1.21,5.08,3.61l0.01,0.03l0.02,0.02
		c0.09,0.08,0.22,0.12,0.36,0.12c0.19,0,0.35-0.07,0.43-0.18l0.02-0.02l0-0.03c-0.2-1.49-0.33-3.08-0.35-3.69l0-0.09l-0.09,0.01
		c-0.2,0.02-0.35-0.02-0.61-0.08l-0.06-0.02c-1.25-0.35-3.18-0.61-4.48-0.61c-2.67,0-5.04,0.75-6.84,2.16
		c-2.03,1.58-3.2,4.04-3.2,6.73c0,2.9,1.28,5.39,3.61,6.99c1.7,1.14,3.77,1.7,6.31,1.7c1.6,0,3.43-0.37,4.01-0.58
		c0.26-0.09,0.57-0.2,0.87-0.25l0.03,0l0.02-0.03c0.37-0.46,1.04-2.13,1.22-3.49l0-0.03l-0.01-0.02
		C45.92,26.75,45.7,26.69,45.55,26.69"/>
	<path class="st0" d="M152.34,23.22c0,5.27-3.13,7.14-5.81,7.14c-4.59,0-6.69-4.39-6.69-8.48c0-5.33,3.19-7.22,5.93-7.22
		C150.62,14.66,152.34,19.27,152.34,23.22L152.34,23.22z M146.2,13.72c-5.15,0-9.04,3.86-9.04,8.97c0,4.28,3.11,8.61,9.04,8.61
		c5.02,0,8.82-3.81,8.82-8.86C155.02,18.24,152.26,13.72,146.2,13.72"/>
	<path class="st0" d="M109.02,23.16c-0.06,0.08-0.27,0.1-0.57,0.1h-3.1c-0.25,0-0.5,0-0.54-0.06c-0.04-0.05,0.03-0.27,0.09-0.44
		l1.59-4.38c0.23-0.64,0.45-1.16,0.55-1.38c0.15,0.33,0.35,0.93,0.53,1.48l1.36,4.1C109.03,22.88,109.08,23.08,109.02,23.16
		L109.02,23.16z M115.67,30.2l-0.02-0.01l-0.7-0.08c-1.05-0.13-1.36-0.52-2.07-2.62l-3.59-10.54c-0.33-0.98-0.68-1.98-0.96-2.95
		c-0.05-0.18-0.22-0.29-0.46-0.29h-0.04l-0.02,0.03c-0.29,0.35-0.7,0.76-1.27,0.93l-0.07,0.02l0.01,0.07
		c0.07,0.38-0.07,0.84-0.42,1.74l-2.57,6.79c-0.73,1.96-1.31,3.36-1.72,4.39c-0.19,0.47-0.35,0.87-0.49,1.22
		c-0.3,0.76-0.74,1.12-1.44,1.18l-0.85,0.08l-0.02,0.02c-0.08,0.07-0.13,0.2-0.12,0.36c0.01,0.13,0.06,0.32,0.18,0.4l0.02,0.01h0.02
		c0.17-0.01,0.35-0.01,0.55-0.02c0.58-0.02,1.24-0.05,1.86-0.05c0.31,0.01,0.58,0.01,0.84,0.02c0.75,0.01,1.29,0.02,1.77,0.06
		l0.02,0l0.02-0.01c0.12-0.05,0.2-0.18,0.22-0.34c0.02-0.17-0.04-0.34-0.16-0.42l-0.02-0.01l-0.85-0.08
		c-0.61-0.05-0.66-0.2-0.66-0.42c0-0.27,0.18-0.97,0.55-2.06l0.88-2.64c0.16-0.48,0.27-0.55,0.88-0.55h3.8
		c0.73,0,0.79,0.06,0.95,0.57l1.11,3.42c0.23,0.68,0.32,1.07,0.32,1.31c0,0.19-0.3,0.33-0.81,0.37l-0.75,0.08l-0.02,0.01
		c-0.1,0.08-0.16,0.23-0.15,0.4c0.01,0.17,0.09,0.31,0.21,0.37l0.02,0.01h0.02c0.16-0.01,0.32-0.01,0.5-0.02
		c0.64-0.02,1.44-0.06,2.39-0.06c1.06,0,1.94,0.02,3.04,0.08l0.03,0l0.02-0.02c0.1-0.08,0.15-0.28,0.14-0.42
		C115.82,30.38,115.76,30.26,115.67,30.2"/>
	<path class="st0" d="M77.28,14.89l0.65-0.05l0.02-0.01c0.13-0.09,0.13-0.29,0.12-0.37c-0.01-0.14-0.06-0.33-0.18-0.39l-0.02-0.01
		l-0.02,0c-1.22,0.05-2.08,0.08-3.12,0.08c-1.08,0-1.94-0.03-3.17-0.08l-0.02,0l-0.02,0.01c-0.12,0.06-0.18,0.25-0.18,0.39
		c-0.01,0.08,0,0.29,0.13,0.37l0.02,0.01l0.65,0.05c1.41,0.12,1.46,0.47,1.46,3.14v8.96c0,2.65-0.05,2.95-1.46,3.12l-0.66,0.08
		l-0.02,0.02c-0.11,0.11-0.13,0.31-0.11,0.45c0.02,0.15,0.09,0.26,0.18,0.3l0.02,0.01h0.02c1.22-0.05,2.09-0.08,3.17-0.08
		c1.03,0,1.89,0.03,3.12,0.08h0.02l0.02-0.01c0.12-0.06,0.18-0.25,0.18-0.39c0.01-0.08,0-0.29-0.12-0.38l-0.67-0.09
		c-1.42-0.17-1.46-0.47-1.46-3.12v-8.96C75.82,15.36,75.87,15.01,77.28,14.89"/>
	<path class="st0" d="M96.56,26.69c-0.12,0-0.23,0.03-0.3,0.08l-0.02,0.01l-0.01,0.02c-0.52,1.32-1.88,3.55-5.19,3.55
		c-4.42,0-7.39-3.26-7.39-8.12c0-5.58,3.64-7.57,7.04-7.57c2.84,0,4.55,1.21,5.08,3.61l0.01,0.03l0.02,0.02
		c0.09,0.08,0.22,0.12,0.36,0.12c0.19,0,0.35-0.07,0.43-0.18l0.02-0.02l0-0.03c-0.19-1.48-0.33-3.08-0.35-3.69l0-0.09l-0.08,0.01
		c-0.2,0.02-0.35-0.02-0.61-0.08l-0.06-0.02c-1.25-0.35-3.17-0.61-4.48-0.61c-2.67,0-5.04,0.75-6.85,2.16
		c-2.03,1.58-3.2,4.04-3.2,6.73c0,2.9,1.28,5.39,3.61,6.99c1.71,1.14,3.77,1.7,6.31,1.7c1.6,0,3.43-0.37,4-0.58
		c0.26-0.09,0.57-0.2,0.87-0.25l0.03,0l0.02-0.03c0.37-0.46,1.04-2.13,1.23-3.49l0-0.03l-0.01-0.02
		C96.93,26.75,96.72,26.69,96.56,26.69"/>
	<path class="st0" d="M66.89,30.11c-1.4-0.17-1.44-0.42-1.44-3.07v-9.06c0-2.65,0.05-2.95,1.44-3.09l0.53-0.05l0.04-0.01
		c0.13-0.09,0.13-0.29,0.13-0.37c-0.01-0.14-0.06-0.33-0.18-0.39l-0.02-0.01l-0.02,0c-1.22,0.05-2.05,0.08-2.97,0.08
		c-1.09,0-1.97-0.03-3.04-0.08l-0.02,0l-0.02,0.01c-0.12,0.06-0.18,0.25-0.18,0.39c-0.01,0.08,0,0.29,0.13,0.37l0.51,0.06
		c1.42,0.14,1.46,0.44,1.46,3.09v2.89c0,0.73,0,0.73-1.18,0.73h-7.2c-1.18,0-1.18,0-1.18-0.73v-2.89c0-2.65,0.05-2.95,1.44-3.09
		l0.48-0.05l0.04-0.01c0.13-0.09,0.13-0.29,0.12-0.38c-0.01-0.14-0.06-0.33-0.18-0.39l-0.02-0.01l-0.02,0
		c-1.15,0.05-2,0.08-2.92,0.08c-0.66,0-1.24-0.02-1.85-0.04c-0.4-0.01-0.83-0.03-1.32-0.04h-0.02l-0.02,0.01
		c-0.12,0.06-0.18,0.25-0.18,0.39c0,0.08,0,0.29,0.13,0.37l0.02,0.01l0.68,0.05c1.24,0.1,1.41,0.47,1.41,3.09v9.06
		c0,2.68-0.07,2.83-1.39,3.07l-0.45,0.08l-0.02,0.02c-0.11,0.11-0.13,0.31-0.1,0.45c0.02,0.15,0.09,0.26,0.18,0.31l0.02,0.01h0.02
		c0.33-0.01,0.65-0.02,0.97-0.03c0.61-0.02,1.23-0.05,1.95-0.05c0.98,0,1.84,0.03,3.19,0.08h0.02l0.02-0.01
		c0.12-0.06,0.18-0.25,0.18-0.39c0.01-0.08,0-0.29-0.13-0.38l-0.77-0.09c-1.33-0.14-1.46-0.43-1.46-3.07v-3.55
		c0-0.7,0-0.72,1.18-0.72h7.2c1.18,0,1.18,0.03,1.18,0.72v3.55c0,2.67,0,2.82-1.47,3.07l-0.5,0.08l-0.02,0.02
		c-0.12,0.11-0.13,0.31-0.11,0.45c0.02,0.15,0.09,0.26,0.18,0.31l0.02,0.01h0.02c1.18-0.05,2.06-0.08,3.04-0.08
		c1.02,0,1.92,0.03,3.04,0.08h0.02l0.02-0.01c0.12-0.06,0.17-0.25,0.18-0.39c0-0.08,0-0.29-0.13-0.38L66.89,30.11"/>
	<g>
		<defs>
			<rect id="SVGID_3_" width="207.84" height="31.8"/>
		</defs>
		<clipPath id="SVGID_4_">
			<use xlink:href="#SVGID_3_"  style="overflow:visible;"/>
		</clipPath>
		<path class="st2" d="M0.3,0.88c0,1.61,0,17.43,0,17.5C1.4,30.09,12.2,31.53,12.56,31.57c3.39-0.62,11.34-3.13,12.29-13.2l0-17.48
			c-4.13-0.39-8.36-0.59-12.59-0.59C5.65,0.29,1.1,0.79,0.3,0.88L0.3,0.88z M12.57,31.86C12.46,31.86,1.14,30.43,0,18.4
			c0-0.01,0-0.01,0-17.64V0.62l0.13-0.02C0.18,0.6,4.97,0,12.26,0c4.28,0,8.57,0.2,12.75,0.61l0.13,0.01l0,17.76
			c-0.97,10.3-9.09,12.86-12.54,13.48L12.57,31.86"/>
	</g>
	<path class="st0" d="M20.64,3.97c0.92,0.4,1.28,0.04,1.57,0.04c0.91,0,0.95,0.85,0.95,0.85h0c-0.05-0.14-0.43-0.23-0.72-0.1
		c-0.41,0.18-1.43,0.76-1.8,0.65V3.97"/>
	<path class="st0" d="M20.64,6.93c0,0,0.17,0.3,1.64,0.09c0.8-0.12,0.92,0.82,0.92,0.82h0c-0.2-0.16-0.59-0.23-0.86-0.05
		c-0.89,0.57-1.69,0.58-1.69,0.58V6.93"/>
	<path class="st0" d="M9.87,12.81c-0.2-0.33,0.23-0.65,0.23-0.65c-0.01,0.94,1.19,0.3,1.82,0.6c0.15,0.07,0.26,0.2,0.32,0.34
		C11.57,12.62,10.32,13.57,9.87,12.81"/>
	<rect x="3.9" y="4.11" class="st0" width="0.94" height="0.92"/>
	<rect x="3.9" y="7.31" class="st0" width="0.94" height="0.92"/>
	<path class="st0" d="M2.79,3.67c1.06,0,1.06,1.61,0,1.61C1.72,5.28,1.74,3.67,2.79,3.67"/>
	<path class="st0" d="M2.79,6.89c1.06,0,1.06,1.61,0,1.61C1.69,8.5,1.69,6.89,2.79,6.89"/>
	<path class="st0" d="M4.07,22.24c-0.29-1.31-0.28-1.94-0.21-3.28c0.03-0.61,0.23-1.52,0.14-1.54c-0.09-0.02-1.46,3.52-1.79,4.21
		c-0.58-0.2,0.36-3.26,1.56-4.73c0.11-0.47-0.63,0.48-1.07,0.85c-0.4,0.34-0.92,0.79-1.47,0.64c0.72-0.76,2.36-2.18,2.54-2.53
		c0.15-0.3-1.12,0.95-2.47,0.48c0.87-0.47,2.9-1.5,2.91-2.23l-0.02-0.02c-0.02,0-1.56,0.97-2.57,0.51c0.75-0.41,3.33-2.06,4.04-2.52
		c0.33,0.07,0.47-0.05,0.58-0.12c-0.27,0.02-1.17,0.16-0.71-0.65c0.17,0.72,1.43,0.06,1.88-0.05c1.26-0.29,1.25,1.05,1.14,1.61
		c-0.04,0.21,0.38,0.35,0.59,0.32c-0.36,0.89-0.98,0.05-1.05,0.39c-0.03,0.14-0.44,0.25-0.44,0.59c0,0.46,0.18,0.21,0.2,0.57
		c0.02,0.35-0.15,0.08-0.11,0.46c0.06,0.6,1.05-0.08,1.46,0.08c0.21,0.08,0.34,0.26,0.54,0.23c0.06-0.05,0.03-0.28,0.02-0.36
		c-0.02-0.19-0.37-0.21-0.54-0.47c-0.14-0.23,0.16-0.91,0.33-1.11c0.24,1.13,1.3,0.78,1.45,1.96c0.1,0.34-0.36,0.71,0.01,1.25
		c-0.28,0.27-0.61,1.55-0.03,2.16c-0.1,0.27-0.23,0.9,0.29,1.27c-0.17,0.37-0.13,0.83,0.01,1.29c-0.32,0-0.26-1.82-2.2-1.88
		c-0.04-0.01-0.05,0.21,0,0.31c0.23,0.41,0.54,0.38,0.48,1.35c-0.02,0.33-0.22-0.06-0.32-0.15c-0.23-0.21-0.42-0.23-0.52-0.91
		c-0.79,0.62-0.71,1.37-0.66,1.75c0,0-0.17-0.47-0.37-0.96c-0.01-0.03,0.8-1,0.93-1.23c1.64-2.95-1.06,0.95-1.06,0.94
		c-0.14-0.34-0.22-0.56-0.31-0.65c0.02-0.04,0.42-0.6,0.63-1.03c1.27-2.63-0.75,0.88-0.82,0.81c-0.15-0.14-0.28-0.31-0.38-0.25
		c-0.02,0.4-0.12,0.35-0.09,0.76c-0.21,0.28-0.66,0.72-0.98,0.94c0,0-0.08-0.64-0.06-0.67c0.16-0.19,0.84-0.89,0.97-1.09
		c2.07-3.26-1.03,0.72-1.03,0.69c-0.02-0.13-0.14-0.29-0.32-0.47c0,0,0.62-0.97,0.79-1.31c1.26-2.6-1.01,1.15-1.04,1.14
		c-0.05-0.03-0.06-0.03-0.12-0.05c-0.06-0.02,0.16-0.73,0.25-1.17c0.17-0.86-0.38-0.18-0.51,1.18c-0.12,0.02-0.4,0.05-0.51,0.15
		c0.07,0.36,0.16,0.08,0.31,0.43c0.18,0.42-0.25,1.11,0.13,1.62c0.15,0.19,0.16,0.16,0.13,0.29C4.36,22.05,4.22,22.04,4.07,22.24"/>
	<path class="st0" d="M4.75,24.3c-0.3-0.56-0.41-1.03-0.57-1.56c0.22,0.15,0.49,0.22,0.73,0.32C5.22,23.85,4.92,24.63,4.75,24.3"/>
	<path class="st0" d="M20.72,24.5c-0.28,0.4-0.39-0.38-0.15-1.13c0.34-0.13,0.68-0.4,0.91-0.7C21.34,23.33,21.12,23.94,20.72,24.5"
		/>
	<path class="st0" d="M21.91,22.04c-0.36,0.12-0.55,0.49-0.83,0.72c-0.88,0.87-2.18,0.59-3.22,1.06c-0.95,0.34-1.63,1.22-2.62,1.44
		c-0.29,0.09-0.34,0.24-0.15,0.24c0.11,0,0.71,0.63,1.68,0.14c0.32-0.16,1.32-0.72,1.49-0.75c-0.54,0.52-0.82,0.98-1.3,1.25
		c-0.3,0.17-1.51,0.6-2.71,0.36c-0.53-0.1-0.95,0.39-0.81,0.38c0.29-0.08,0.61-0.04,0.8,0.21c0.35,0.27,0.86,0.61,1.29,0.11
		c0.15-0.17,0.84-0.53,1.49,0.13c-0.69-0.04-0.62,1.21-1.93,1.06c-0.48,0-1.56-1.11-1.86-0.77c-0.54,0.61,1.16,1.19,0.42,1.95
		c-0.67,0.69-1.46-0.55-1.46-0.55c0.42,0.18,1.18,0.29,0.85-0.39c-0.13-0.27-0.39-0.51-0.39-1.01c-0.06-0.25-1.59,1.96-2.6,0.97
		c-0.4-0.39-1.2-1.25-1.93-1.58c1.93-0.16,2.22,0.61,2.31,0.73c0.62,0.83,1.19-0.01,1.32-0.16c0.2-0.23,0.48-0.54,0.38-0.59
		c-0.75-0.35-1.6-0.43-2.24-0.14c1.37-1.88,2.43-0.12,2.43-0.12c0.15,0.09-0.04-1.11-1.39-1.18c-0.84-0.04-1.59,0.72-2.17,0.72
		c-0.47,0-1.91-0.97-2.25-1.83c0.83,0.63,1.9,0.98,2.56,0.59c1.25-0.74,2.82,0.38,2.89,0.24c-0.35-0.27-1.14-1.34-3.29-0.73
		c-0.83,0.48-1.18-0.36-1.69-0.37c0.87-0.77,1.47-0.38,1.77-0.35c0.07,0-0.36-0.36-0.67-0.39c-2.37-0.25-3.87-0.9-3.87-0.9
		c-0.01,0,0.2-0.48,1.21-0.13c0,0-0.91-0.56-0.9-1.28c0.03-0.44,0.24-0.92-0.1-1.29c1.37-0.06,0.4,1.86,1.36,2.35
		c0.02,0.01-0.29-0.46,0.14-0.82c0.2,0.56,0.69,0.85,1.04,0.95c0.08-0.04,0.18-0.22,0.18-0.22c-0.59-0.76-0.28-2.08-0.28-2.08
		c0.08,0,0.68,1.43,0.9,2.04c0.12,0.34,0.34,0.53,0.54,0.67c0.09-0.2,0.1-0.55,0.09-0.64c-0.05-0.32-0.18-0.75,0.25-1.27
		c0.26,0.75,0.61,0.53,0.66,0.89c0.07,0.5,0.02,0.3-0.03,0.69c0.03,0.53,0.51,0.68,0.94,1.02c0.97,0.53,1.62,0.81,2.04,1.49
		c0.21-1.14-2.61-1.21-2.43-3.58c-0.04-0.88,0.11-0.91-0.52-1.45c1.22,0.19,1.67,1.91,1.8,2.35c0.19,0.67,0.67,0.76,1.24,1.65
		c0.08,0.03-0.89-1.88,0.27-4.19c0,0,0.37,1.06,0.21,1.69c-0.11,0.43,0.04,0.74,0.07,1c0.02,0.27-0.04-0.88,0.9-1.52
		c0.06,0.47,0.44,1.12,0.07,1.88c-0.48,0.97-0.56,0.61-0.57,1.77c0.05-0.02,0.18-0.8,0.54-1.25c0.75-0.94,0.17-1.37,0.9-2.19
		c0.06,0.41,0.16,0.25,0.2,0.61c0.1,0.82-0.7,1.64-0.51,1.61c0.22-0.03,0.57-0.22,0.68-0.84c0,0,0.31,0.56,0.03,0.75
		c-0.52,0.34-0.63,0.71-0.55,1.12c0.42-0.5,0.99-0.96,0.9-1.67c0.05-0.43,0.55-0.56,0.64-1.56c0.02-0.16,0.08-0.35,0.25-0.44
		c-0.07,0.56,0.4,1-0.09,1.68c0.11,0.06,0.53-0.53,1.14-0.32c-1.22,0.22-0.87,1.54-1.8,2.16c-0.28,0.19-0.23,0.39-0.32,0.42
		c0.84-0.05,1.48-1.04,1.59-1.12c0.84-0.57,1.07-0.64,1.4-1.56c0.13-0.35,0.02-0.48,0.48-0.95c0.21,0.46-0.18,1.39-0.25,1.6
		c-0.15,0.45-0.62,0.83-0.51,0.83c2.25-1,2.27-1.62,2.81-2.33c0.16-0.27,0.96-0.74,1.26-0.79c-0.07,0.15-0.43,0.35-0.44,0.62
		c-0.03,0.5-0.19,0.8-0.44,1.2C21.37,22.29,21.64,21.79,21.91,22.04"/>
	<path class="st0" d="M19.23,22.44c-0.29,0.26-0.49,0.35-0.42,0.22c0.07-0.14,0.12-0.26,0.16-0.37
		C18.99,22.26,19.23,22.44,19.23,22.44"/>
	<path class="st0" d="M19.04,22.1c0.07-0.23,0.07-0.4,0.1-0.6c0.01-0.09,0.02-0.08,0.02-0.15c0-0.02,0.64,0.53,0.67,0.55
		c-0.16,0.2-0.3,0.27-0.45,0.41C19.27,22.21,19.03,22.12,19.04,22.1"/>
	<path class="st0" d="M22.6,16.21c-0.57-0.59-1.23-2.09-1.49-1.87c-0.03,0.01,1.08,1.75,1.64,2.78c0.28,0.52,0.51,1.27,0.53,1.83
		c0.09,2.78-0.33,2.57-0.33,2.57c-0.65-2.19-0.96-4.73-1.9-5.91c-0.38-0.47,1.01,2.05,1.07,4.33c-0.27,0.07-0.98,0.35-1.15,0.63
		c0.09-1.53-0.4-3.04-0.56-3.4c-0.31-0.71,0.14,1.65,0.17,2.19c0,0.02-2.54-3.27-1-0.73c0.4,0.66,1.02,1.09,1.02,1.1
		c0.01,0.46-0.02,0.79-0.11,1.04c-0.16,0.12-3.46-4.4-1.63-1.27c0.23,0.39,1.55,1.56,1.54,1.59c-0.08,0.18-0.23,0.44-0.44,0.63
		c-0.03-0.04-0.76-0.57-0.77-0.6c-0.05-0.35-0.06-0.68-0.49-0.43c0,0-1.63-1.9-0.87-0.57c0.33,0.58,0.55,0.64,0.63,0.75
		c0,0-0.25,0.34-0.33,0.71c-0.03,0.15-1.41-1.53-0.87-0.48c0.17,0.34,0.8,0.7,0.8,0.73c-0.06,0.22-0.13,0.43-0.2,0.57
		c-0.09,0.17-1.3,1.14-1.3,1.14c0,0,0.24-0.76,0.75-1.14c0.29-0.21,0.29-0.17,0.49-0.29c0-0.11-0.11-0.3-0.25-0.35
		c-0.18-0.06-0.75,0.04-0.75,0.04c0.05-0.29-0.2-0.9-0.19-1.58c-0.22,0.02-0.59,0.36-0.69,0.55c-0.07,1.13-0.31,0.79-0.54,1.6
		c-0.25-0.34,0.02-0.83-0.23-1.15c-0.34-0.44-0.39-0.73-0.44-1.27c0.08-0.04,0.42-0.42,0.11-1.22c-0.05-1.25,0.51-1.73-0.49-2.6
		c0.08-0.03,0.14-0.65,0.14-0.65c0.73,0.39,0.59-0.45,0.88-0.62c0.45-0.26,0.37-0.54,0.17-0.88c1.3,0.37-0.06,1.26,0.53,1.28
		c0.43,0.01,0.71-0.09,0.9-0.38c0.2-0.3-0.03-0.49,0.52-0.98c0.05-0.05,0.2-0.38-0.24-0.47c-0.1-0.02,0-0.39,0-0.39
		c-0.35,0.3-0.46,0.71-1.02,0.45c-0.29-0.14-0.47,0-0.59,0.05c0,0-0.06-0.23,0.18-0.31c0.61-0.21,0.77-0.45,0.73-0.59
		c-0.08-0.32-0.11,0-0.09-0.34c0.01-0.13,0.16-0.32,0.29-0.47c0.42-0.51,0.71-0.32,0.82-0.27c0.24-0.19,0.29-0.17,0.51-0.26
		c0.39-0.15,1.22,0.1,1.69,0.32c0.23,0.1,0.5,0.16,0.76,0.11c0,0.14-0.1,0.21-0.19,0.24c-0.15,0.04-0.32,0-0.31,0.11
		c0.01,0.06,0.21,0.07,0.33,0.11c0.69,0.19,1.59,0.81,1,0.68c-0.07-0.02,0.42,0.37,0.8,0.87L23.45,15
		c-0.06,0.07-0.52,0.01-1.99-1.37c-0.21,0.19,1.79,1.69,2.61,3.29C24,16.97,22.97,16.6,22.6,16.21"/>
	<path class="st0" d="M18.2,3.97c-0.03-0.02-0.07-0.04-0.03-0.1c0.07-0.1,0.1-0.21,0.15-0.2c0.05,0,0.34,0.16,0.33,0.24
		c0.01,0.06,0.01,0.15,0.01,0.27C18.52,4.13,18.3,4.06,18.2,3.97"/>
	<path class="st0" d="M18.41,4.69c-0.08-0.07-0.28-0.28-0.12-0.56c-0.02-0.01,0.02,0.01,0,0c0.14,0.08,0.25,0.11,0.38,0.15
		c0,0.11-0.01,0.3-0.01,0.34C18.58,4.62,18.51,4.65,18.41,4.69"/>
	<path class="st0" d="M19.79,6.14c-0.1-0.01-0.21-0.03-0.27-0.05c-0.09-0.03-0.05-0.15,0.02-0.15c0.08,0,0.19,0.02,0.25,0.05
		C19.84,6.01,19.86,6.15,19.79,6.14L19.79,6.14z M19.78,6.41c-0.11-0.01-0.21-0.03-0.27-0.05c-0.09-0.03-0.05-0.15,0.02-0.15
		c0.07,0,0.19,0.03,0.24,0.05C19.82,6.29,19.85,6.42,19.78,6.41L19.78,6.41z M19.58,7.83c-0.07,0.07-0.23,0.2-0.29,0.25
		C19.2,8.03,19.05,7.86,19,7.82c-0.03,0.02-0.08,0.05-0.12,0.07c0,0.1,0,0.88-0.01,0.97c-0.13,0.01-0.23,0.02-0.32,0
		c-0.01-0.12,0.01-0.8,0-0.91c-0.01-0.13-0.22-0.18-0.37-0.18c0.1-0.06,0.34-0.27,0.42-0.33c0.14,0.11,0.23,0.21,0.29,0.29
		c0.09-0.05,0.23-0.15,0.3-0.21c0.12,0.08,0.25,0.2,0.3,0.25C19.57,7.71,19.65,7.76,19.58,7.83L19.58,7.83z M18.83,5.39
		c0.33,0.11,0.47,0.45,0.48,0.67c0.01,0.18-0.11,0.42-0.2,0.57c-0.13,0.09-0.26,0.21-0.39,0.33c-0.4,0-0.6-0.47-0.59-0.7
		C18.15,5.87,18.41,5.54,18.83,5.39L18.83,5.39z M17.85,8.67c-0.09-0.03-0.25-0.17-0.24-0.29c-0.11,0.08-0.44,0.21-0.56,0.24
		c-0.12-0.12-0.21-0.15-0.22-0.3c-0.01-0.16,0.03-0.56-0.01-0.65c-0.05-0.1-0.13-0.12-0.23-0.12c0.12-0.13,0.25-0.22,0.32-0.3
		c0.13,0.1,0.17,0.16,0.24,0.26c0,0.17-0.04,0.53-0.03,0.66c0.01,0.12,0.49,0.21,0.52,0.03c0.02-0.18,0-0.41,0-0.52
		c-0.01-0.08-0.2-0.12-0.3-0.11c0.13-0.14,0.24-0.24,0.33-0.32c0.12,0.09,0.23,0.22,0.3,0.32c0,0.18-0.03,0.61-0.01,0.73
		c0.03,0.12,0.02,0.12,0.11,0.18C17.98,8.56,17.91,8.6,17.85,8.67L17.85,8.67z M16.46,8.23C16.42,8.27,16.3,8.46,16.2,8.5
		c-0.1,0.04-0.25-0.03-0.32-0.13c-0.11-0.16-0.04-0.68-0.04-0.99c0.02,0-0.26-0.1-0.14-0.16c0.21-0.1,0.42-0.32,0.45-0.41
		c0.03-0.08,0.11-0.05,0.07,0.04c-0.04,0.08-0.07,0.29-0.05,0.36c0.01,0.03,0.17,0.04,0.24,0.04c0.04,0,0.04,0.13,0,0.13
		c-0.05,0-0.25,0-0.25,0c-0.03,0.01-0.01,0.7,0.01,0.76c0.02,0.06,0.18,0.1,0.24,0.04C16.47,8.12,16.53,8.18,16.46,8.23L16.46,8.23z
		 M15.53,8.11c-0.05,0.05-0.27,0.32-0.33,0.39c-0.1-0.08-0.19-0.1-0.22-0.22c-0.26,0.1-0.36,0.25-0.52,0.36
		c-0.09-0.09-0.17-0.24-0.17-0.4c0-0.16,0.15-0.37,0.24-0.45c-0.01-0.01-0.02-0.01-0.03-0.02c-0.04-0.03-0.08-0.26-0.04-0.32
		c0.06-0.08,0.29-0.4,0.48-0.42c0.13-0.01,0.22,0.15,0.33,0.26c-0.03,0.03-0.02,0.59-0.02,0.66c0.12,0.13,0.17,0.16,0.24,0.11
		C15.56,8.01,15.58,8.06,15.53,8.11L15.53,8.11z M13.82,6.5c-0.24-0.14-0.45-0.18-0.46-0.71c0-0.32,0.3-0.58,0.49-0.69
		c0.22-0.12,0.71-0.2,0.88-0.14c0.08,0.02,0.17,0,0.17-0.04c0-0.06,0.08-0.04,0.08,0c0,0.04,0,0.58-0.01,0.63
		c0,0.05-0.08,0.05-0.08,0c0-0.08,0-0.1-0.07-0.21c-0.2-0.3-0.74-0.32-1.01,0.04C13.73,5.5,13.69,5.7,13.8,5.74
		c0.1,0.03,0.49,0,0.61-0.02c0.13-0.02,0.44-0.07,0.47-0.1c0.04-0.02,0.08-0.05,0.08,0.01c0,0.06,0,0.27,0,0.33
		c0,0.07-0.05,0.03-0.08,0.01c-0.04-0.02-0.33-0.05-0.46-0.06c-0.21-0.02-0.53-0.08-0.63-0.05c-0.11,0.03-0.02,0.19,0.07,0.32
		c0.27,0.36,0.76,0.37,0.96,0.08c0.07-0.11,0.07-0.13,0.07-0.2c0-0.05,0.08-0.06,0.08,0c0,0.05,0,0.5,0,0.54
		c0,0.05-0.08,0.06-0.08,0c0-0.09-0.06-0.09-0.17-0.05C14.43,6.61,14.05,6.63,13.82,6.5L13.82,6.5z M14.06,8.31
		c-0.11,0.08-0.24,0.28-0.31,0.35c-0.13-0.09-0.26-0.2-0.25-0.3c0.02-0.18-0.04-1.48-0.05-1.63c0.07,0.01,0.29,0.01,0.37,0.01
		c-0.01,0.16-0.01,1.28,0,1.39c0.01,0.12,0.11,0.15,0.21,0.11C14.08,8.22,14.12,8.26,14.06,8.31L14.06,8.31z M13.64,2.8
		c0.12,0.01,0.82,0.08,1.02,0.1c0.07,0.01,0.07,0.08-0.02,0.11c-0.05,0.01-0.16,0.07-0.16,0.12c0,0.08,0.25,0.63,0.32,0.74
		c0.06-0.14,0.3-0.75,0.25-0.89C15,2.85,14.98,2.83,14.88,2.82c-0.1-0.01-0.1-0.07,0.02-0.09c0.12-0.02,0.45-0.05,0.55-0.04
		c0.1,0.01,0.11,0.07-0.02,0.1c-0.13,0.04-0.22,0.17-0.25,0.3c-0.03,0.13-0.47,1.41-0.52,1.5c-0.11-0.4-0.55-1.35-0.69-1.55
		c-0.12-0.18-0.24-0.14-0.35-0.15C13.51,2.9,13.55,2.79,13.64,2.8L13.64,2.8z M15.89,3.11l0.24,0.24L16.13,4.1
		c0.12,0.13,0.19,0.16,0.36,0.19l-0.23,0.3h-0.22c-0.11-0.11-0.18-0.19-0.2-0.28l-0.01-0.73l-0.27-0.16
		C15.5,3.5,15.4,3.5,15.44,3.45l0.37-0.33L15.89,3.11L15.89,3.11z M16,2.46l0.18,0.17v0.18l-0.13,0.11h-0.11l-0.11-0.11l0-0.21
		L16,2.46L16,2.46z M16.09,5.66c0.08,0.18,0.42,0.36,0.59,0.41c-0.05,0.05-0.29,0.32-0.38,0.38c-0.12-0.07-0.28-0.23-0.37-0.36
		c-0.16,0.21-0.2,0.38-0.49,0.45c0.17-0.14,0.32-0.45,0.31-0.75c-0.01-0.27-0.16-0.4-0.29-0.45c-0.11,0.05-0.21,0.13-0.26,0.15
		c-0.06,0.02-0.08-0.07-0.03-0.09c0.14-0.07,0.45-0.31,0.5-0.35c0.13,0.02,0.3,0.14,0.32,0.25c0.1-0.06,0.28-0.25,0.33-0.3
		c0.06,0.1,0.24,0.24,0.44,0.31c-0.18,0.31-0.58,0.12-0.64,0.05C16.04,5.45,16.03,5.52,16.09,5.66L16.09,5.66z M16.69,3.38
		c0.25-0.11,0.49-0.44,0.51-0.52c0.03-0.09,0.11-0.05,0.07,0.04c-0.08,0.17-0.07,0.3-0.04,0.4c0.01,0.03,0.49,0.02,0.56,0.02
		c0.04,0,0.04,0.12,0,0.12c-0.05,0-0.62,0.07-0.62,0.07c-0.03,0.01,0.03,0.71,0.05,0.77c0.02,0.06,0.07,0.14,0.14,0.09
		c0.06-0.06,0.13,0.04,0.06,0.09c-0.04,0.03-0.16,0.28-0.22,0.31c-0.09,0.06-0.22-0.13-0.26-0.24c-0.07-0.19-0.11-0.67-0.11-0.98
		C16.85,3.54,16.57,3.43,16.69,3.38L16.69,3.38z M17.47,6.37c0.13,0.07,0.35,0.03,0.41,0.02c0.05-0.01,0.04-0.02,0.08-0.06
		c0.04-0.04,0.09,0,0.05,0.03c-0.04,0.04-0.36,0.35-0.45,0.41c-0.08,0.02-0.27,0.01-0.37-0.12c-0.2-0.24-0.33-0.33-0.27-0.77
		c0.04-0.3,0.54-0.56,0.66-0.62c0.05,0.04,0.27,0.28,0.37,0.36c-0.04,0.05-0.16,0.11-0.29,0.11c-0.12,0-0.21-0.1-0.29-0.19
		c-0.06,0.05-0.18,0.13-0.22,0.31C17.1,6.08,17.31,6.28,17.47,6.37L17.47,6.37z M18.04,3.98c-0.03-0.03-0.04-0.11,0-0.17
		c0.06-0.08,0.25-0.31,0.43-0.34c0.1-0.01,0.26,0.01,0.49,0.22c-0.03,0.04-0.03,0.69-0.03,0.77c0.08,0.1,0.21,0.2,0.21,0.2
		l-0.3,0.33c-0.09-0.06-0.14-0.13-0.17-0.24c-0.23,0.04-0.39,0.18-0.5,0.26c-0.09-0.09-0.24-0.32-0.24-0.47
		c0-0.16,0.12-0.39,0.21-0.47C18.16,4.06,18.08,4.01,18.04,3.98L18.04,3.98z M16.32,2.01c-1.51-0.56-3.57,0.41-3.57,0.41
		c0,0.26,0,7.4,0,7.4s0.76-0.62,2.33-0.62c0.76,0,3.76,0.82,5.21,0.72V2.39C20.29,2.39,18.16,2.69,16.32,2.01"/>
	<path class="st0" d="M18.86,6.72c-0.08-0.04-0.36-0.26-0.43-0.42c-0.08-0.23-0.08-0.48,0.15-0.62c0.19,0.07,0.41,0.26,0.43,0.42
		C19.04,6.32,18.97,6.58,18.86,6.72"/>
	<path class="st0" d="M14.97,8.13c-0.07,0.05-0.16,0.09-0.26,0.14c-0.08-0.06-0.19-0.12-0.05-0.39c0.1,0.06,0.16,0.02,0.31,0.01
		C14.97,7.99,14.97,8.08,14.97,8.13"/>
	<path class="st0" d="M14.64,7.73c-0.03-0.02-0.05-0.22-0.02-0.27c0.07-0.1,0.08-0.11,0.13-0.11c0.05,0,0.22,0.09,0.21,0.18
		c0.01,0.06,0.01,0.14,0.01,0.26C14.83,7.8,14.8,7.86,14.64,7.73"/>
	<path class="st0" d="M13.66,11.65c-0.42,0.08-0.74,0.54-1.22,0.35c-0.06-0.04-0.19-0.08-0.18-0.17c0.09,0.05,0.22,0.08,0.32,0.09
		c0,0-0.26-0.21-0.03-0.48c-0.29,0.18-0.39,0.13-0.39,0.04c0-0.04,0.38-0.32,0.74-0.19c0.26,0.1,0.48,0.3,0.76,0.34V11.65
		L13.66,11.65z M14.95,14.06c-0.4-0.21-0.39-0.54-0.44-0.89c-0.04-0.28-0.21-0.38-0.15-0.45c0.4,0.3,0.51-0.03,0.53-0.1
		c-0.08,0.04-0.44,0.09-0.48-0.47c-0.02-0.22-0.35-0.32-0.35-0.32c0.21-0.04,0.87-0.08,0.71-0.74c-0.08,0.15-0.28,0.4-0.69,0.31
		c0,0,0.26-0.07,0.22-0.36c-0.64,0.36-1.16-0.37-1.82-0.28c-0.24,0.03-0.53,0.17-0.6,0.42c-0.14,0.14-0.14-0.24-0.43-0.07
		c-0.13,0.17,0.2,0.54,0.12,0.57c-0.32,0.1-0.28-0.48-0.46-0.49c-0.26,0.09-0.93,0.7-0.27,1.18c-0.02-0.32,0.59-0.68,0.8,0.04
		c0.61-0.05,0.82,0.32,0.9,0.54c0.91,0.16,0.64,0.76,0.62,0.76c-0.09-0.13-0.48-0.73-1.11-0.32c-0.15,0.1-0.4,0.19-0.53,0.06
		c0.01,0.2,0.27,0.38,0.44,0.34c0.57-0.16,0.71,0.37,0.28,0.52c0.09,0.15,0.27,0.14,0.44,0.04c0.24-0.15,0.27-0.28,0.36-0.37
		c0.15,0.74-0.78,0.81-1.08,0.85c0.05,0.16,0.15,0.19,0.34,0.25c-0.99,0.03-1.18,0.96-1.12,1.49c0.22,0.02,0.57-0.47,0.54-0.19
		c-0.7,0.74-0.94,1.74-0.57,2.37c0.18-0.07,0.23-0.26,0.29-0.42c0.03-0.02,0.39,0.14-0.19,0.83c-0.04,0.18-0.24,0.72,0.2,0.85
		c0.17-0.2,0.14-0.37,0.18-0.58c0.13-0.05,0.21,0.36,0.16,0.49c-0.58,0.24-0.5,2.01,0.17,2.96c-0.31-0.69-0.27-1.58,0-2.28
		c0.21-0.55,0.66-1.78,0.67-1.76c0.26,0.32,0.58,1.67,0.58,2.23c0.36-0.32,0.43-0.66,0.73-0.89c0.14,0.49,0.2,0.82,0.31,1.25
		c0.14-0.42,0.52-0.9-0.02-2.28c0.11-0.1,0.32,0.48,0.38,0.45c0.05-0.02,0.12-0.31-0.06-0.85c-0.38-0.36-0.46-0.88-0.4-0.92
		c0.05-0.03,0.22,0.54,0.42,0.57c0.04-0.44,0.15-0.9,0.11-1.24c-0.01-0.09-0.16-0.55-0.58-0.93c-0.24-0.22-0.34-0.68-0.32-0.77
		c0.24,0.22,0.18,0.38,0.38,0.46c0.08-0.19,0.03-0.88-0.21-1.18c-0.14-0.23-0.07-0.2,0.09-0.06c0.22,0.26,0.11,0.24,0.3,0.35
		c0.41-0.97,0.04-1.16,0.07-1.22C14.41,13.75,14.7,14.26,14.95,14.06"/>
	<path class="st0" d="M11.82,6.51l-0.18,0.15c-0.1-0.1-0.17-0.13-0.19-0.21l-0.01-0.69l-0.16-0.1c-0.1,0.08-0.17,0.05-0.09-0.03
		l0.32-0.29l0.07-0.01l0.14,0.2l-0.01,0.73c0.08,0.07,0.08,0.06,0.24,0.09L11.82,6.51L11.82,6.51z M11.83,8.24
		c-0.05,0.04-0.22,0.18-0.28,0.25c-0.08-0.06-0.21-0.13-0.29-0.23c-0.17,0.03-0.35,0.16-0.5,0.26c-0.16-0.07-0.21-0.23-0.22-0.38
		c0-0.16,0.08-0.3,0.2-0.41c-0.01-0.01-0.01-0.01-0.02-0.02c-0.03-0.03-0.09-0.31-0.04-0.38c0.05-0.08,0.31-0.32,0.48-0.34
		c0.12-0.01,0.29,0.24,0.39,0.36c-0.03,0.03,0.04,0.73,0.04,0.8c0.03,0.06,0.16,0.1,0.19,0.04C11.83,8.12,11.87,8.19,11.83,8.24
		L11.83,8.24z M10.29,6.06c-0.11-0.3,0.09-0.57,0.18-0.65c0.08-0.06,0.25-0.21,0.36-0.28c0.11,0.07,0.19,0.11,0.25,0.14
		c-0.02,0.05-0.04,0.16-0.16,0.17c-0.18,0.01-0.31-0.04-0.41,0.06c-0.09,0.1-0.02,0.39,0.1,0.5c0.09,0.08,0.33,0.19,0.38,0.09
		c0.06-0.13,0.14-0.06,0.06,0.05c-0.06,0.07-0.16,0.23-0.22,0.33C10.64,6.45,10.39,6.36,10.29,6.06L10.29,6.06z M10.22,8.25
		l-0.13,0.13c-0.1-0.11-0.18-0.12-0.19-0.21l0-0.67L9.68,7.4c-0.1,0.08-0.17,0.05-0.09-0.03l0.32-0.29l0.08-0.01l0.2,0.29l0.01,0.63
		c0.08,0.08,0.01,0.07,0.16,0.1L10.22,8.25L10.22,8.25z M9.37,8.03C9.34,8.06,9.18,8.25,9.15,8.35C9.11,8.44,8.9,8.37,8.84,8.27
		C8.73,8.11,8.78,7.8,8.77,7.49c0.02,0.01-0.2-0.1-0.1-0.17c0.12-0.08,0.32-0.45,0.34-0.54c0.02-0.09,0.07-0.06,0.07,0.04
		C9.07,6.94,9.01,7.23,9.03,7.29c0.01,0.03,0.2,0.03,0.26,0.03c0.04,0,0.04,0.12,0,0.12c-0.05,0-0.26,0.03-0.26,0.03
		C9.01,7.48,9.03,7.91,9.07,7.96c0.08,0.08,0.15,0.13,0.26,0.01C9.38,7.92,9.44,7.97,9.37,8.03L9.37,8.03z M8.51,6.42
		c-0.08,0.07-0.24-0.04-0.3-0.14c-0.1-0.16-0.07-0.54-0.05-0.85c0.01,0-0.05-0.07-0.12-0.09c-0.08-0.02-0.1-0.05,0.03-0.1
		C8.22,5.18,8.46,4.81,8.5,4.73C8.53,4.65,8.57,4.73,8.53,4.8C8.43,4.99,8.47,5.2,8.49,5.26c0.01,0.03,0.3-0.01,0.36-0.01
		c0.04,0,0.04,0.12,0,0.12c-0.05,0-0.43,0.05-0.43,0.05C8.39,5.43,8.45,6.03,8.49,6.08c0.01,0.01,0.13,0.11,0.17,0.07
		c0.06-0.05,0.11,0,0.04,0.06C8.67,6.23,8.6,6.35,8.51,6.42L8.51,6.42z M8.39,8.31c-0.06,0.05-0.31,0.22-0.38,0.3
		C7.91,8.44,7.9,8.32,7.94,8.15c0.03-0.14,0-0.51,0-0.6c0-0.08-0.13-0.11-0.18-0.16C7.68,7.45,7.67,7.46,7.61,7.52
		c0,0.11-0.01,0.9,0,1c-0.18,0.01-0.16,0-0.26,0c-0.01-0.15,0-0.76-0.01-0.89c-0.01-0.13-0.12-0.22-0.19-0.3
		c0.14-0.11,0.22-0.19,0.31-0.28c0.08,0.13,0.12,0.26,0.2,0.31C7.76,7.28,7.93,7.17,8,7.09C8.07,7.13,8.2,7.2,8.21,7.47
		c0.01,0.26,0.04,0.67,0.04,0.76c0,0.05,0.01,0.03,0.09,0.02C8.41,8.22,8.44,8.26,8.39,8.31L8.39,8.31z M7.08,6.6
		C6.92,6.53,6.8,6.4,6.8,6.24c0-0.16,0.1-0.25,0.22-0.35C6.99,5.87,6.98,5.86,6.95,5.84C6.92,5.81,6.88,5.56,6.91,5.49
		c0.08-0.17,0.33-0.38,0.5-0.39c0.12-0.01,0.21,0.23,0.32,0.34C7.7,5.46,7.7,6.16,7.7,6.23C7.72,6.27,7.8,6.32,7.84,6.28
		c0.06-0.05,0.09,0,0.04,0.05C7.84,6.37,7.61,6.57,7.55,6.64C7.47,6.57,7.44,6.49,7.43,6.36C7.29,6.4,7.16,6.47,7.08,6.6L7.08,6.6z
		 M6.79,8.17c0.08-0.07,0.17-0.05,0.08,0.05C6.76,8.34,6.65,8.53,6.59,8.64c-0.22-0.1-0.69-0.39-0.62-0.88
		c0.07-0.51,0.57-0.72,0.72-0.82C6.72,7.09,6.89,7.35,7,7.45C6.83,7.59,6.45,7.91,6.3,8.02C6.38,8.17,6.69,8.28,6.79,8.17L6.79,8.17
		z M5.84,5.4c0.12-0.18,0.41-0.36,0.61-0.43c0.06,0.07,0.14,0.19,0.23,0.31C6.59,5.35,6.5,5.44,6.44,5.51C6.4,5.46,6.16,5.11,6,5.36
		C5.91,5.49,5.81,5.87,6.12,6.11c0.15,0.11,0.31,0.15,0.51,0.12C6.53,6.36,6.5,6.4,6.44,6.52c-0.3,0.05-0.42-0.04-0.56-0.17
		C5.57,6.11,5.67,5.67,5.84,5.4L5.84,5.4z M6.26,3.28c0.21-0.12,0.56-0.04,0.72,0.01C7.06,3.31,7.12,3.3,7.12,3.2
		c0-0.06,0.09-0.04,0.09,0c0,0.04,0,0.68,0,0.73c0,0.05-0.11,0.06-0.1,0.01c0-0.07-0.02-0.21-0.05-0.32
		C7.02,3.45,6.58,3.14,6.27,3.55c-0.01,0.02-0.13,0.24-0.12,0.4c0.01,0.13,0.03,0.3,0.12,0.42c0.25,0.35,0.6,0.23,0.79-0.05
		c0.07-0.1,0.06-0.23,0.06-0.31c0-0.04,0.1-0.05,0.1,0c0,0.05,0,0.47,0,0.51c0,0.06,0.05,0.11,0.07,0.14
		c0.06,0.09-0.01,0.17-0.1,0.05C7.13,4.65,7.11,4.58,7.01,4.61C6.74,4.69,6.45,4.77,6.24,4.65c-0.23-0.14-0.42-0.18-0.43-0.7
		C5.81,3.63,6.08,3.38,6.26,3.28L6.26,3.28z M7.81,3.1c0.13,0.1,0.21,0.1,0.28,0.18c0.08-0.05,0.23-0.14,0.3-0.19
		c0.06,0.07,0.18,0.19,0.22,0.25c0.06-0.06,0.13-0.01,0.07,0.06C8.61,3.45,8.46,3.55,8.4,3.59C8.32,3.55,8.22,3.41,8.18,3.37
		C8.15,3.39,8.11,3.42,8.07,3.44c0,0.09,0,0.92,0,1.01c-0.12,0.01-0.22,0.02-0.3,0c-0.01-0.12,0.01-0.78,0-0.89
		C7.75,3.43,7.64,3.42,7.49,3.38C7.57,3.27,7.73,3.15,7.81,3.1L7.81,3.1z M8.78,3.62c0.07-0.51,0.47-0.7,0.64-0.71
		C9.61,2.93,9.66,3.1,9.77,3.2C9.6,3.34,9.33,3.61,9.17,3.77c0.04,0.08,0.23,0.41,0.63,0.31c0.18-0.04,0.24,0.04,0.08,0.12
		C9.8,4.23,9.65,4.39,9.53,4.39C9.17,4.37,8.71,4.11,8.78,3.62L8.78,3.62z M10.08,6.74C9.99,6.83,9.91,6.92,9.83,7.01
		C9.75,6.96,9.64,6.87,9.56,6.8C9.7,6.73,9.77,6.65,9.82,6.55C9.88,6.68,9.99,6.72,10.08,6.74L10.08,6.74z M9.75,6.26
		C9.54,6.28,9.34,6.21,9.22,6.22C9.17,6.22,9.13,6.24,9.11,6.3C9.11,6.36,9.02,6.39,9,6.31C8.99,6.23,8.96,5.87,8.96,5.77
		c0-0.1,0.09-0.11,0.11,0c0.02,0.11,0.05,0.19,0.14,0.28C9.28,6.13,9.7,6.23,9.86,6.11c0.13-0.1,0.1-0.32-0.04-0.41
		C9.69,5.61,9.17,5.49,9.08,5.34C8.92,5.09,9.2,4.87,9.32,4.8C9.5,4.7,9.72,4.73,9.8,4.74c0.07,0,0.17,0.02,0.18-0.05
		c0.01-0.08,0.07-0.07,0.07,0.01c0.02,0.23,0.05,0.09,0.04,0.34c0,0.11-0.04,0.11-0.09,0.03C9.97,4.99,9.64,4.73,9.38,4.89
		C9.16,5.04,9.25,5.17,9.45,5.22C9.67,5.29,10,5.24,10.1,5.54C10.21,5.84,10.01,6.24,9.75,6.26L9.75,6.26z M10.15,3.42
		c0.1-0.15,0.4-0.4,0.67-0.39c0.27,0.01,0.39,0.2,0.5,0.27c-0.04,0.05-0.19,0.17-0.36,0.3c0.03,0.01,0.05,0.01,0.08,0.03
		c0.28,0.16,0.37,0.39,0.1,0.61c-0.15,0.12-0.39,0.25-0.65,0.26C10.31,4.51,10,4.36,9.95,4.3c0.14-0.13,0.29-0.28,0.4-0.37
		C10.18,3.8,10.02,3.62,10.15,3.42L10.15,3.42z M11.49,4.7l0.16,0.17v0.18l-0.12,0.11h-0.1l-0.1-0.1l0-0.2L11.49,4.7L11.49,4.7z
		 M11.58,3.95c0.4,0.03,0.31,0.23,0.24,0.22C11.4,4.12,11.51,3.94,11.58,3.95L11.58,3.95z M11.57,3.7c0.4,0.02,0.34,0.19,0.27,0.19
		C11.37,3.9,11.49,3.69,11.57,3.7L11.57,3.7z M7.96,2.28C7.15,2.59,5.18,2.33,5.18,2.33v7.58c1.73,0.12,3.97-0.77,5.09-0.7
		c1.15,0.08,2.13,0.61,2.13,0.61V2.4C12.4,2.4,10.71,1.22,7.96,2.28"/>
	<path class="st0" d="M10.95,8.23c-0.07-0.06-0.32-0.23-0.1-0.42c0.12,0.08,0.19,0.07,0.33,0.05c-0.01,0.08-0.01,0.15-0.01,0.19
		c0,0.04,0.01,0.06,0.02,0.09C11.12,8.17,11.02,8.19,10.95,8.23"/>
	<path class="st0" d="M11.19,7.78c-0.13,0-0.24-0.04-0.38-0.16c-0.03-0.02-0.05-0.18-0.02-0.24c0.06-0.1,0.06-0.13,0.12-0.12
		c0.04,0,0.3,0.16,0.29,0.24C11.2,7.56,11.2,7.67,11.19,7.78"/>
	<path class="st0" d="M10.83,4.32c-0.16,0.07-0.45-0.13-0.49-0.22c0.06-0.05,0.17-0.14,0.29-0.24c0.09,0.04,0.18,0.08,0.29,0.14
		C11.06,4.09,10.99,4.25,10.83,4.32"/>
	<path class="st0" d="M10.54,3.27c0.08,0.01,0.27,0.11,0.38,0.22c-0.02,0.02-0.09,0.08-0.17,0.13c-0.04,0.01-0.09,0.01-0.13,0.01
		c-0.14-0.02-0.2-0.12-0.27-0.2C10.29,3.33,10.46,3.26,10.54,3.27"/>
	<path class="st0" d="M6.26,7.89C6.13,7.72,6.03,7.49,6.45,7.23c0.04,0.11,0.13,0.33,0.2,0.37C6.54,7.71,6.34,7.84,6.26,7.89"/>
	<path class="st0" d="M9.28,3.08C9.32,3.19,9.44,3.27,9.5,3.31C9.39,3.42,9.21,3.62,9.14,3.68C9.04,3.35,9.07,3.24,9.28,3.08"/>
	<path class="st0" d="M7.43,6.15c0,0.04,0,0.07,0,0.1C7.39,6.27,7.35,6.28,7.29,6.3C7.22,6.24,6.89,6.13,7.11,5.95
		c0.14,0.08,0.19,0.02,0.32-0.07C7.43,6.01,7.43,6.11,7.43,6.15"/>
	<path class="st0" d="M7.22,5.31c0.04,0,0.2,0.19,0.19,0.27c0.01,0.05,0.02,0.08,0.02,0.17C7.23,5.89,7.19,5.94,7.06,5.79
		C6.99,5.71,7,5.56,7.03,5.51C7.09,5.41,7.17,5.31,7.22,5.31"/>
	<path class="st0" d="M12.85,11.42c0.11,0.03,0.37,0.18,0.46,0.24l-0.46,0.23c0,0,0.13-0.14,0.13-0.24
		C12.98,11.52,12.85,11.42,12.85,11.42"/>
</g>
</svg>
