<?xml version="1.0" encoding="utf-8"?>
<!-- Generator: Adobe Illustrator 16.0.0, SVG Export Plug-In . SVG Version: 6.00 Build 0)  -->
<!DOCTYPE svg PUBLIC "-//W3C//DTD SVG 1.1//EN" "http://www.w3.org/Graphics/SVG/1.1/DTD/svg11.dtd">
<svg version="1.1" id="Layer_1" xmlns="http://www.w3.org/2000/svg" xmlns:xlink="http://www.w3.org/1999/xlink" x="0px" y="0px"
	 width="262.693px" height="37.264px" viewBox="0 0 262.693 37.264" enable-background="new 0 0 262.693 37.264"
	 xml:space="preserve">
<g>
	<rect x="175.992" y="1.761" fill="#FFFFFF" width="0.9" height="33.569"/>
	<g>
		<path fill="#FFFFFF" d="M186.67,6.589h1.947l4.11,9.643h-2.206l-0.876-2.147h-4.057l-0.876,2.147h-2.152L186.67,6.589z
			 M188.891,12.224l-1.274-3.104l-1.274,3.104H188.891z"/>
		<path fill="#FFFFFF" d="M193.946,6.248h2.083v9.983h-2.083V6.248z"/>
		<path fill="#FFFFFF" d="M197.798,13.646V8.901h2.083v4.089c0,0.984,0.467,1.491,1.262,1.491s1.301-0.507,1.301-1.491V8.901h2.082
			v7.331h-2.082v-1.039c-0.48,0.616-1.097,1.176-2.15,1.176C198.716,16.368,197.798,15.33,197.798,13.646z"/>
		<path fill="#FFFFFF" d="M206.254,8.901h2.083v1.04c0.479-0.616,1.108-1.176,2.164-1.176c0.958,0,1.686,0.424,2.069,1.162
			c0.643-0.752,1.41-1.162,2.412-1.162c1.548,0,2.48,0.929,2.48,2.693v4.773h-2.082v-4.089c0-0.985-0.439-1.491-1.222-1.491
			c-0.78,0-1.259,0.506-1.259,1.491v4.089h-2.084v-4.089c0-0.985-0.438-1.491-1.221-1.491c-0.779,0-1.259,0.506-1.259,1.491v4.089
			h-2.083V8.901z"/>
		<path fill="#FFFFFF" d="M219.136,8.901h2.083v1.04c0.479-0.616,1.096-1.176,2.151-1.176c1.575,0,2.493,1.038,2.493,2.721v4.746
			h-2.083v-4.089c0-0.985-0.466-1.491-1.262-1.491c-0.793,0-1.3,0.506-1.3,1.491v4.089h-2.083V8.901z"/>
		<path fill="#FFFFFF" d="M227.576,6.248h2.192v1.846h-2.192V6.248z M227.63,8.901h2.083v7.331h-2.083V8.901z"/>
		<path fill="#FFFFFF" d="M186.67,20.268h1.947l4.11,9.643h-2.206l-0.876-2.147h-4.057l-0.876,2.147h-2.152L186.67,20.268z
			 M188.891,25.902l-1.274-3.104l-1.274,3.104H188.891z"/>
		<path fill="#FFFFFF" d="M193.275,28.939l0.89-1.367c0.796,0.574,1.632,0.875,2.317,0.875c0.602,0,0.877-0.22,0.877-0.547v-0.028
			c0-0.45-0.713-0.602-1.521-0.848c-1.027-0.302-2.192-0.78-2.192-2.202v-0.027c0-1.49,1.205-2.325,2.687-2.325
			c0.931,0,1.945,0.314,2.74,0.848l-0.795,1.437c-0.727-0.424-1.453-0.684-1.986-0.684c-0.508,0-0.768,0.219-0.768,0.506v0.027
			c0,0.41,0.699,0.602,1.492,0.875c1.029,0.342,2.221,0.835,2.221,2.175v0.027c0,1.628-1.219,2.367-2.811,2.367
			C195.399,30.048,194.25,29.705,193.275,28.939z"/>
		<path fill="#FFFFFF" d="M199.883,28.939l0.89-1.367c0.796,0.574,1.632,0.875,2.315,0.875c0.604,0,0.877-0.22,0.877-0.547v-0.028
			c0-0.45-0.711-0.602-1.52-0.848c-1.027-0.302-2.192-0.78-2.192-2.202v-0.027c0-1.49,1.206-2.325,2.685-2.325
			c0.933,0,1.945,0.314,2.74,0.848l-0.795,1.437c-0.725-0.424-1.451-0.684-1.986-0.684c-0.508,0-0.768,0.219-0.768,0.506v0.027
			c0,0.41,0.699,0.602,1.494,0.875c1.027,0.342,2.221,0.835,2.221,2.175v0.027c0,1.628-1.222,2.367-2.811,2.367
			C202.007,30.048,200.854,29.705,199.883,28.939z"/>
		<path fill="#FFFFFF" d="M206.843,26.285v-0.026c0-2.107,1.7-3.817,3.987-3.817c2.273,0,3.961,1.684,3.961,3.789v0.028
			c0,2.105-1.699,3.815-3.988,3.815C208.527,30.074,206.843,28.393,206.843,26.285z M212.734,26.285v-0.026
			c0-1.081-0.78-2.024-1.932-2.024c-1.191,0-1.905,0.916-1.905,1.996v0.028c0,1.08,0.782,2.024,1.933,2.024
			C212.023,28.283,212.734,27.365,212.734,26.285z"/>
		<path fill="#FFFFFF" d="M215.806,26.285v-0.026c0-2.093,1.602-3.817,3.85-3.817c1.385,0,2.246,0.467,2.933,1.232l-1.275,1.367
			c-0.464-0.492-0.931-0.807-1.67-0.807c-1.043,0-1.782,0.916-1.782,1.996v0.028c0,1.121,0.728,2.024,1.864,2.024
			c0.698,0,1.178-0.302,1.685-0.78l1.22,1.231c-0.713,0.779-1.535,1.34-3.001,1.34C217.422,30.074,215.806,28.378,215.806,26.285z"
			/>
		<path fill="#FFFFFF" d="M223.891,19.925h2.191v1.847h-2.191V19.925z M223.943,22.579h2.083v7.331h-2.083V22.579z"/>
		<path fill="#FFFFFF" d="M227.412,27.803v-0.026c0-1.601,1.22-2.339,2.961-2.339c0.739,0,1.273,0.124,1.795,0.301v-0.123
			c0-0.861-0.536-1.34-1.576-1.34c-0.795,0-1.356,0.15-2.029,0.396l-0.52-1.586c0.808-0.356,1.604-0.588,2.85-0.588
			c1.137,0,1.961,0.3,2.48,0.819c0.549,0.547,0.796,1.354,0.796,2.339v4.254h-2.015v-0.794c-0.508,0.562-1.205,0.932-2.221,0.932
			C228.55,30.048,227.412,29.254,227.412,27.803z M232.195,27.325v-0.369c-0.357-0.164-0.823-0.273-1.33-0.273
			c-0.891,0-1.438,0.354-1.438,1.012v0.028c0,0.561,0.465,0.889,1.137,0.889C231.537,28.611,232.195,28.078,232.195,27.325z"/>
		<path fill="#FFFFFF" d="M236.101,27.831v-3.474h-0.877v-1.778h0.877v-1.874h2.083v1.874h1.727v1.778h-1.727v3.131
			c0,0.48,0.204,0.712,0.67,0.712c0.386,0,0.727-0.096,1.028-0.259v1.668c-0.438,0.26-0.946,0.424-1.645,0.424
			C236.963,30.033,236.101,29.527,236.101,27.831z"/>
		<path fill="#FFFFFF" d="M241.35,19.925h2.192v1.847h-2.192V19.925z M241.404,22.579h2.082v7.331h-2.082V22.579z"/>
		<path fill="#FFFFFF" d="M244.954,26.285v-0.026c0-2.107,1.698-3.817,3.987-3.817c2.274,0,3.959,1.684,3.959,3.789v0.028
			c0,2.105-1.697,3.815-3.986,3.815C246.639,30.074,244.954,28.393,244.954,26.285z M250.846,26.285v-0.026
			c0-1.081-0.782-2.024-1.932-2.024c-1.193,0-1.904,0.916-1.904,1.996v0.028c0,1.08,0.779,2.024,1.932,2.024
			C250.133,28.283,250.846,27.365,250.846,26.285z"/>
		<path fill="#FFFFFF" d="M254.271,22.579h2.084v1.039c0.479-0.615,1.096-1.177,2.151-1.177c1.575,0,2.493,1.041,2.493,2.724v4.745
			h-2.083v-4.09c0-0.984-0.466-1.49-1.262-1.49c-0.793,0-1.3,0.506-1.3,1.49v4.09h-2.084V22.579z"/>
	</g>
	<g>
		<g>
			<g>
				<path fill="none" d="M158.52,2.422c-1.232,0-2.67,0.852-2.67,3.252c0,1.422,0.637,3.828,3.016,3.828
					c1.205,0,2.611-0.842,2.611-3.217C161.477,4.505,160.703,2.422,158.52,2.422z"/>
				<path fill="none" d="M113.965,5.899c0.355,0,0.805-0.035,1.136-0.283c0.369-0.289,0.541-0.719,0.541-1.357
					c0-0.779-0.461-1.687-1.758-1.687c-0.661,0-0.661,0.021-0.661,0.28v2.697c0,0.13,0,0.267,0.014,0.314
					C113.283,5.879,113.443,5.899,113.965,5.899z"/>
				<path fill="#FFFFFF" d="M130.022,2.527l0.313-0.025l0.02-0.014c0.056-0.038,0.087-0.117,0.08-0.217
					c-0.002-0.041-0.021-0.176-0.113-0.224l-0.021-0.008l-0.023,0.001c-0.544,0.02-0.953,0.032-1.427,0.032
					c-0.496,0-0.891-0.011-1.451-0.032l-0.021-0.001l-0.022,0.008c-0.095,0.047-0.111,0.184-0.112,0.225
					c-0.006,0.1,0.023,0.179,0.082,0.216l0.019,0.014l0.31,0.024c0.589,0.049,0.625,0.128,0.625,1.386v4.101
					c0,1.241-0.029,1.303-0.628,1.375l-0.317,0.039l-0.021,0.021c-0.066,0.066-0.076,0.173-0.063,0.252
					c0.013,0.085,0.053,0.148,0.108,0.178l0.021,0.01h0.022c0.588-0.025,0.974-0.035,1.451-0.035c0.459,0,0.84,0.01,1.427,0.035
					h0.023l0.021-0.01c0.095-0.047,0.111-0.184,0.113-0.223c0.006-0.1-0.024-0.179-0.081-0.217l-0.329-0.049
					c-0.595-0.072-0.624-0.134-0.624-1.375V3.913C129.401,2.654,129.437,2.575,130.022,2.527z"/>
				<path fill="#FFFFFF" d="M123.347,5.531l-0.923-0.577c-0.352-0.218-0.939-0.679-0.939-1.342c0-0.443,0.167-1.19,1.287-1.19
					c1.016,0,1.326,0.661,1.484,1.237l0.016,0.032c0.037,0.046,0.1,0.071,0.176,0.071c0.086,0,0.204-0.037,0.255-0.113l0.014-0.021
					V3.601c0-0.47-0.097-1.128-0.212-1.437l-0.021-0.058h-0.064c-0.08,0-0.234-0.019-0.381-0.063
					c-0.275-0.075-0.708-0.154-1.094-0.154c-1.462,0-2.444,0.831-2.444,2.07c0,1.052,0.807,1.739,1.288,2.055l1.096,0.714
					c0.796,0.512,0.906,1.042,0.906,1.539c0,0.615-0.418,1.235-1.353,1.235c-1.168,0-1.679-0.899-1.9-1.653l-0.012-0.023
					c-0.035-0.053-0.098-0.08-0.177-0.08c-0.076,0-0.188,0.029-0.246,0.11l-0.018,0.026l0.001,0.031
					c0.022,0.52,0.17,1.373,0.322,1.649l0.011,0.021l0.021,0.013c0.228,0.132,0.86,0.439,1.847,0.439
					c1.522,0,2.546-0.892,2.546-2.22C124.832,6.896,124.346,6.148,123.347,5.531z"/>
				<path fill="#FFFFFF" d="M139.705,1.739c-0.027,0-0.07,0.003-0.109,0.02l-0.026,0.009l-0.017,0.028
					c-0.15,0.255-0.209,0.276-0.824,0.276h-4.771c-0.516,0-0.745-0.026-0.795-0.283l-0.006-0.027l-0.02-0.021
					c-0.03-0.032-0.084-0.047-0.157-0.047c-0.028,0-0.122,0.002-0.172,0.037l-0.034,0.02l-0.007,0.038
					c-0.079,0.461-0.251,1.191-0.435,1.703l-0.01,0.037l0.015,0.032c0.071,0.139,0.306,0.206,0.432,0.112l0.02-0.013l0.011-0.022
					c0.113-0.267,0.229-0.518,0.498-0.766c0.252-0.232,0.828-0.264,1.357-0.264h0.636c0.258,0,0.258,0,0.258,0.28v5.149
					c0,1.249-0.07,1.302-0.634,1.353l-0.418,0.035l-0.037,0.011c-0.069,0.043-0.105,0.128-0.104,0.232
					c0.004,0.077,0.034,0.172,0.109,0.211l0.021,0.01h0.021c0.705-0.022,1.133-0.035,1.602-0.035c0.451,0,0.825,0.01,1.509,0.035
					h0.021l0.019-0.01c0.1-0.047,0.112-0.184,0.114-0.223c0.007-0.1-0.022-0.179-0.079-0.217l-0.41-0.049
					c-0.578-0.05-0.608-0.126-0.608-1.353V2.871c0-0.116,0-0.227,0.017-0.246c0.02-0.018,0.145-0.018,0.229-0.018h0.816
					c0.619,0,1.04,0.089,1.285,0.27c0.109,0.08,0.204,0.374,0.254,0.78l0.002,0.025l0.018,0.021c0.043,0.053,0.12,0.083,0.21,0.083
					c0.11,0,0.202-0.047,0.239-0.121l0.01-0.023l-0.002-0.027c-0.034-0.33,0.048-1.258,0.172-1.717l0.01-0.035l-0.016-0.027
					C139.875,1.748,139.754,1.739,139.705,1.739z"/>
				<path fill="#FFFFFF" d="M148.655,2.053l-0.026-0.015l-0.027,0.002c-0.82,0.046-1.305,0.046-2.171,0l-0.023-0.002l-0.021,0.01
					c-0.064,0.033-0.107,0.098-0.123,0.178c-0.013,0.092,0.016,0.189,0.078,0.251l0.021,0.021l0.239,0.027
					c0.224,0.026,0.363,0.081,0.401,0.113c-0.033,0.164-0.438,0.912-0.684,1.367l-0.053,0.096c-0.277,0.537-0.598,1.114-1.004,1.81
					c-0.303-0.548-0.6-1.149-0.888-1.734c-0.112-0.23-0.226-0.458-0.338-0.685c-0.084-0.165-0.346-0.757-0.349-0.846
					c0-0.024,0.055-0.071,0.408-0.121l0.18-0.028l0.023-0.02c0.062-0.062,0.086-0.176,0.064-0.277
					c-0.021-0.078-0.069-0.135-0.139-0.156l-0.014-0.006l-0.018,0.002c-0.284,0.021-0.699,0.032-1.23,0.032
					c-0.532,0-0.958-0.01-1.332-0.032l-0.025-0.002l-0.023,0.013c-0.059,0.032-0.098,0.092-0.107,0.169
					c-0.016,0.092,0.006,0.191,0.062,0.252l0.021,0.024l0.352,0.064c0.308,0.05,0.461,0.078,0.848,0.828l1.362,2.649
					c0.327,0.627,0.361,0.757,0.361,1.388v0.588c0,1.25-0.03,1.314-0.612,1.375l-0.39,0.037l-0.024,0.023
					c-0.065,0.067-0.074,0.173-0.062,0.253c0.013,0.084,0.054,0.149,0.107,0.177l0.021,0.01h0.023
					c0.606-0.025,1.025-0.035,1.507-0.035c0.469,0,0.881,0.013,1.567,0.035h0.021l0.02-0.01c0.056-0.028,0.095-0.093,0.109-0.178
					c0.013-0.079,0.005-0.187-0.062-0.252l-0.021-0.023l-0.474-0.037c-0.532-0.041-0.609-0.127-0.609-1.375v-0.6
					c0-0.862,0.025-0.948,0.531-1.823l0.726-1.254c0.067-0.113,0.129-0.224,0.191-0.329c0.452-0.791,0.782-1.363,1.271-1.447
					l0.35-0.063l0.016-0.016c0.061-0.051,0.092-0.134,0.084-0.221C148.766,2.171,148.722,2.094,148.655,2.053z"/>
				<path fill="#FFFFFF" d="M170.564,3.644c-0.021-0.418-0.034-0.956-0.034-1.517v-0.11l-0.109,0.025
					c-0.14,0.031-0.85,0.031-1.537,0.031h-2.124c-0.434,0-0.82-0.008-1.334-0.032l-0.021-0.001l-0.02,0.008
					c-0.1,0.047-0.114,0.183-0.117,0.224c-0.006,0.101,0.024,0.18,0.082,0.217l0.224,0.039c0.583,0.071,0.613,0.133,0.613,1.364
					v4.146c0,1.22-0.03,1.282-0.613,1.353l-0.322,0.039l-0.019,0.021c-0.067,0.065-0.078,0.172-0.064,0.25
					c0.015,0.085,0.056,0.15,0.109,0.18l0.02,0.01h0.023c0.539-0.025,0.928-0.035,1.439-0.035c0.465,0,0.867,0.01,1.531,0.035h0.023
					l0.02-0.01c0.094-0.047,0.111-0.184,0.113-0.223c0.007-0.101-0.023-0.181-0.082-0.217l-0.432-0.049
					c-0.589-0.05-0.623-0.126-0.623-1.353V6.435c0-0.221,0-0.221,0.292-0.221h0.784c0.406,0,0.708,0.007,0.859,0.051
					c0.164,0.053,0.252,0.159,0.312,0.376l0.123,0.477l0.021,0.019c0.113,0.097,0.358,0.092,0.432-0.019l0.013-0.022V7.068
					c0-0.119-0.007-0.272-0.017-0.442c-0.014-0.211-0.026-0.447-0.026-0.676c0-0.232,0.013-0.479,0.026-0.696
					c0.01-0.18,0.017-0.34,0.017-0.465V4.762l-0.013-0.022c-0.056-0.084-0.17-0.091-0.22-0.091c-0.097,0-0.181,0.03-0.224,0.083
					l-0.12,0.498c-0.066,0.28-0.144,0.307-0.231,0.339c-0.121,0.04-0.478,0.064-0.953,0.064h-0.784c-0.292,0-0.292,0-0.292-0.222
					V2.978c0-0.371,0-0.371,0.258-0.371h0.703c0.477,0,0.855,0,1.096,0.068c0.494,0.128,0.645,0.458,0.744,1.023l0.006,0.029
					l0.023,0.021c0.043,0.039,0.105,0.06,0.177,0.06c0.086,0,0.195-0.037,0.239-0.121l0.01-0.021L170.564,3.644z"/>
				<path fill="#FFFFFF" d="M118.543,9.589l-0.025-0.006c-0.277-0.021-0.554-0.132-0.746-0.301
					c-0.795-0.666-1.427-1.637-2.301-3.043c-0.062-0.097-0.069-0.143-0.068-0.161c0.384-0.159,1.467-0.724,1.467-1.993
					c0-0.964-0.548-1.45-1.006-1.689c-0.579-0.314-1.32-0.354-1.968-0.354c-1.057,0-1.877,0.028-2.583,0.092l-0.031,0.009
					c-0.065,0.033-0.111,0.106-0.119,0.197c-0.007,0.1,0.03,0.194,0.094,0.241l0.02,0.014l0.391,0.049
					c0.377,0.045,0.43,0.127,0.43,1.258v4.137c0,1.22-0.028,1.281-0.613,1.353l-0.325,0.039l-0.021,0.024
					c-0.066,0.076-0.073,0.187-0.057,0.263c0.015,0.08,0.054,0.137,0.108,0.163l0.02,0.01h0.023
					c0.513-0.021,0.932-0.035,1.438-0.035c0.477,0,0.878,0.014,1.369,0.035h0.023l0.021-0.01c0.085-0.043,0.105-0.153,0.11-0.199
					c0.012-0.101-0.014-0.189-0.071-0.236l-0.019-0.015l-0.268-0.039c-0.593-0.083-0.616-0.133-0.616-1.353V6.584
					c0-0.164,0-0.164,0.453-0.164c0.444,0,0.595,0.105,0.749,0.33c0.174,0.254,0.376,0.575,0.574,0.886
					c0.207,0.326,0.403,0.636,0.557,0.854c0.793,1.128,1.39,1.487,2.462,1.487c0.222,0,0.417-0.021,0.535-0.06l0.025-0.016
					c0.054-0.043,0.081-0.109,0.07-0.178C118.639,9.663,118.6,9.611,118.543,9.589z M113.222,2.852c0-0.259,0-0.28,0.661-0.28
					c1.297,0,1.758,0.908,1.758,1.687c0,0.639-0.172,1.068-0.541,1.357c-0.331,0.249-0.781,0.283-1.136,0.283
					c-0.522,0-0.682-0.021-0.729-0.037c-0.014-0.047-0.014-0.184-0.014-0.314V2.852z"/>
				<path fill="#FFFFFF" d="M158.717,1.889c-2.395,0-4.197,1.786-4.197,4.154c0,1.984,1.441,3.994,4.197,3.994
					c2.334,0,4.095-1.766,4.095-4.11C162.812,3.982,161.528,1.889,158.717,1.889z M158.865,9.502c-2.379,0-3.016-2.406-3.016-3.828
					c0-2.4,1.438-3.252,2.67-3.252c2.184,0,2.957,2.083,2.957,3.863C161.477,8.66,160.07,9.502,158.865,9.502z"/>
				<path fill="#FFFFFF" d="M41.696,1.739c-0.029,0-0.071,0.003-0.108,0.02L41.559,1.77l-0.014,0.026
					c-0.149,0.255-0.211,0.276-0.824,0.276H35.95c-0.516,0-0.748-0.026-0.797-0.283l-0.005-0.027l-0.019-0.021
					c-0.033-0.032-0.085-0.047-0.159-0.047c-0.028,0-0.122,0.002-0.173,0.037l-0.031,0.02l-0.007,0.038
					c-0.08,0.459-0.251,1.188-0.434,1.703l-0.013,0.037l0.017,0.032c0.07,0.139,0.306,0.207,0.433,0.111l0.019-0.014l0.01-0.021
					c0.116-0.266,0.226-0.517,0.497-0.766c0.254-0.232,0.83-0.264,1.359-0.264h0.636c0.257,0,0.257,0,0.257,0.28v5.149
					c0,1.249-0.071,1.302-0.633,1.353l-0.415,0.035L36.45,9.435c-0.068,0.043-0.106,0.128-0.103,0.231
					c0.004,0.078,0.034,0.173,0.109,0.212l0.021,0.01H36.5c0.707-0.022,1.133-0.035,1.602-0.035c0.45,0,0.823,0.01,1.509,0.035
					h0.022l0.021-0.01c0.075-0.039,0.107-0.143,0.112-0.225c0.006-0.099-0.023-0.18-0.081-0.216l-0.41-0.049
					c-0.578-0.05-0.612-0.126-0.612-1.353V2.875c0-0.118,0-0.229,0.019-0.25c0.019-0.018,0.145-0.018,0.228-0.018h0.819
					c0.618,0,1.039,0.089,1.286,0.27c0.11,0.08,0.204,0.374,0.252,0.78l0.003,0.025l0.018,0.022
					c0.042,0.051,0.121,0.082,0.209,0.082c0.109,0,0.201-0.047,0.238-0.123l0.011-0.022l-0.002-0.027
					c-0.033-0.331,0.047-1.26,0.171-1.717l0.008-0.035l-0.015-0.028C41.864,1.746,41.735,1.739,41.696,1.739z"/>
				<path fill="#FFFFFF" d="M60.622,8.045l-0.027,0.033c-0.331,0.658-0.629,0.993-0.78,1.077c-0.249,0.124-0.598,0.164-1.438,0.164
					c-0.961,0-1.209-0.115-1.332-0.237c-0.163-0.174-0.195-0.548-0.195-1.137V6.319c0-0.223,0-0.223,0.292-0.223h0.669
					c0.404,0,0.705,0.01,0.867,0.055c0.161,0.04,0.243,0.145,0.293,0.374l0.104,0.447l0.018,0.038
					c0.043,0.051,0.125,0.083,0.216,0.083c0.105,0,0.191-0.04,0.229-0.107l0.011-0.02V6.943c0-0.112-0.009-0.261-0.019-0.428
					c-0.013-0.211-0.027-0.448-0.027-0.68c0-0.24,0.014-0.487,0.027-0.703c0.01-0.177,0.019-0.334,0.019-0.458V4.649l-0.011-0.02
					c-0.038-0.068-0.124-0.107-0.23-0.107c-0.092,0-0.173,0.03-0.216,0.082l-0.11,0.512c-0.053,0.265-0.117,0.303-0.219,0.336
					c-0.123,0.042-0.47,0.065-0.953,0.065h-0.669c-0.292,0-0.292,0-0.292-0.235V2.978c0-0.371,0-0.371,0.258-0.371h0.831
					c0.49,0,0.864,0.011,1.098,0.068c0.527,0.131,0.632,0.463,0.792,0.967l0.022,0.067l0.016,0.029
					c0.04,0.048,0.106,0.075,0.188,0.075c0.079,0,0.191-0.027,0.242-0.104l0.017-0.026l-0.014-0.168
					c-0.061-0.672-0.115-1.241-0.177-1.417l-0.026-0.075l-0.079,0.02c-0.128,0.03-0.844,0.03-1.536,0.03h-2.17
					c-0.444,0-0.825-0.008-1.357-0.032l-0.023-0.001l-0.02,0.008c-0.095,0.047-0.111,0.183-0.114,0.224
					c-0.007,0.099,0.022,0.18,0.08,0.217l0.224,0.039c0.591,0.067,0.626,0.146,0.626,1.364v4.146c0,1.249-0.072,1.302-0.636,1.353
					l-0.412,0.037l-0.023,0.023C54.59,9.515,54.58,9.622,54.594,9.7c0.013,0.085,0.052,0.15,0.107,0.178l0.021,0.01h0.022
					c0.667-0.025,1.068-0.035,1.566-0.035h1.04c1.006,0,2.017,0.01,3.09,0.035l0.058,0.001l0.024-0.053
					c0.154-0.32,0.445-1.215,0.526-1.622l0.005-0.027l-0.011-0.025C60.964,7.987,60.733,7.967,60.622,8.045z"/>
				<path fill="#FFFFFF" d="M75.388,2.051l-0.024-0.014L75.336,2.04c-0.4,0.021-0.712,0.032-1.207,0.032
					c-0.442,0-0.871-0.01-1.311-0.032l-0.029-0.002l-0.025,0.016c-0.053,0.035-0.09,0.101-0.101,0.179
					c-0.011,0.086,0.01,0.17,0.06,0.228l0.024,0.028l0.325,0.026c0.265,0.021,0.446,0.091,0.507,0.197
					c0.134,0.237,0.209,1.068,0.209,2.341v1.325c0,1.357-0.386,2.976-2.22,2.976c-1.538,0-2.254-0.95-2.254-2.989V3.877
					c0-1.224,0.04-1.313,0.611-1.362l0.3-0.024l0.018-0.013c0.058-0.038,0.088-0.116,0.081-0.213
					c-0.005-0.081-0.038-0.18-0.113-0.218l-0.021-0.008L70.167,2.04c-0.547,0.021-0.935,0.032-1.417,0.032
					c-0.473,0-0.881-0.012-1.426-0.032l-0.023-0.001l-0.02,0.008c-0.076,0.037-0.107,0.136-0.114,0.217
					c-0.006,0.097,0.023,0.175,0.08,0.214l0.02,0.013l0.311,0.024c0.572,0.049,0.611,0.139,0.611,1.362v2.719
					c0,1.393,0.289,2.252,0.932,2.788c0.508,0.433,1.253,0.653,2.216,0.653c0.909,0,1.779-0.334,2.269-0.87
					c0.56-0.598,0.832-1.517,0.832-2.813V5.053c0-0.585,0-1.952,0.154-2.314c0.054-0.117,0.252-0.205,0.503-0.224l0.314-0.026
					l0.024-0.029c0.051-0.061,0.076-0.157,0.061-0.242C75.481,2.146,75.444,2.087,75.388,2.051z"/>
				<path fill="#FFFFFF" d="M52.333,9.438l-0.316-0.049c-0.585-0.07-0.614-0.133-0.614-1.353V3.89c0-1.227,0.035-1.304,0.612-1.364
					l0.242-0.022l0.041-0.017c0.057-0.038,0.086-0.117,0.081-0.216c-0.003-0.041-0.019-0.177-0.113-0.225l-0.021-0.008L52.223,2.04
					c-0.558,0.023-0.939,0.032-1.359,0.032c-0.499,0-0.903-0.012-1.392-0.032l-0.022-0.001l-0.02,0.008
					c-0.094,0.047-0.112,0.183-0.114,0.224c-0.007,0.099,0.022,0.18,0.08,0.217l0.26,0.039c0.589,0.06,0.625,0.137,0.625,1.364
					v1.324c0,0.28,0,0.28-0.488,0.28h-3.301c-0.489,0-0.489,0-0.489-0.28V3.89c0-1.227,0.035-1.304,0.613-1.364l0.218-0.022
					l0.041-0.017c0.059-0.038,0.088-0.117,0.08-0.217c-0.002-0.041-0.018-0.176-0.112-0.224l-0.021-0.008L46.798,2.04
					c-0.525,0.023-0.912,0.032-1.335,0.032c-0.3,0-0.563-0.006-0.851-0.016c-0.185-0.006-0.378-0.012-0.601-0.016H43.99l-0.02,0.007
					c-0.095,0.047-0.111,0.182-0.114,0.223c-0.007,0.1,0.022,0.181,0.081,0.218l0.019,0.014l0.324,0.025
					c0.508,0.038,0.599,0.144,0.599,1.363v4.146c0,1.2-0.022,1.251-0.595,1.354l-0.225,0.039l-0.019,0.02
					c-0.066,0.066-0.077,0.173-0.064,0.252c0.014,0.085,0.053,0.15,0.109,0.178l0.02,0.01h0.022c0.159-0.005,0.311-0.01,0.462-0.015
					c0.272-0.01,0.554-0.02,0.874-0.02c0.434,0,0.802,0.01,1.464,0.035h0.022l0.021-0.01c0.076-0.039,0.107-0.143,0.113-0.225
					c0.005-0.099-0.024-0.18-0.082-0.216l-0.374-0.049c-0.553-0.06-0.625-0.114-0.625-1.353V6.412c0-0.279,0-0.279,0.489-0.279
					h3.301c0.488,0,0.488,0,0.488,0.279v1.624c0,1.226-0.012,1.251-0.628,1.353l-0.249,0.039l-0.021,0.021
					c-0.065,0.067-0.075,0.173-0.062,0.253c0.014,0.084,0.054,0.149,0.11,0.177l0.02,0.01h0.022
					c0.553-0.025,0.956-0.035,1.392-0.035c0.455,0,0.856,0.01,1.394,0.035h0.022l0.021-0.01c0.095-0.047,0.112-0.184,0.113-0.223
					C52.42,9.555,52.39,9.476,52.333,9.438z"/>
				<path fill="#FFFFFF" d="M90.765,2.527l0.312-0.025l0.019-0.014c0.058-0.038,0.087-0.117,0.08-0.217
					c-0.002-0.041-0.018-0.176-0.114-0.224l-0.02-0.008L91.02,2.04c-0.545,0.02-0.953,0.032-1.427,0.032
					c-0.496,0-0.893-0.011-1.451-0.032l-0.022-0.001L88.1,2.047c-0.096,0.047-0.112,0.183-0.114,0.224
					c-0.007,0.101,0.022,0.18,0.08,0.217l0.02,0.014l0.312,0.024c0.582,0.049,0.622,0.141,0.622,1.386v4.101
					c0,1.241-0.029,1.303-0.625,1.375l-0.318,0.039l-0.021,0.021c-0.066,0.066-0.077,0.173-0.064,0.252
					c0.015,0.085,0.054,0.15,0.11,0.178l0.02,0.01h0.022c0.586-0.025,0.972-0.035,1.451-0.035c0.457,0,0.853,0.01,1.427,0.035h0.023
					l0.02-0.01c0.096-0.047,0.112-0.184,0.114-0.223c0.007-0.1-0.022-0.181-0.08-0.217l-0.327-0.049
					c-0.597-0.072-0.626-0.134-0.626-1.375V3.913C90.143,2.667,90.184,2.575,90.765,2.527z"/>
				<path fill="#FFFFFF" d="M101.176,2.051l-0.022-0.013l-0.027,0.002c-0.387,0.021-0.741,0.032-1.114,0.032
					c-0.454,0-0.89-0.011-1.194-0.032l-0.026-0.002L98.77,2.051c-0.065,0.036-0.108,0.112-0.116,0.202
					c-0.01,0.094,0.021,0.179,0.077,0.229L98.751,2.5l0.235,0.026c0.404,0.045,0.442,0.13,0.442,0.13
					c0,0.075-0.012,0.19-0.098,0.417c-0.199,0.502-0.749,1.823-1.072,2.578c-0.084,0.194-0.191,0.447-0.31,0.728
					c-0.219,0.52-0.486,1.152-0.713,1.648c-0.544-1.247-1.049-2.506-1.56-3.791c-0.338-0.829-0.533-1.43-0.568-1.578
					c0.018-0.037,0.118-0.088,0.462-0.133l0.201-0.028l0.019-0.016c0.059-0.049,0.089-0.135,0.08-0.225
					c-0.009-0.093-0.052-0.17-0.115-0.206L95.73,2.038L95.705,2.04c-0.514,0.023-0.917,0.032-1.393,0.032
					c-0.481,0-0.85-0.01-1.194-0.032L93.09,2.038l-0.024,0.015c-0.069,0.042-0.112,0.119-0.119,0.208
					c-0.007,0.087,0.024,0.17,0.083,0.221L93.05,2.5l0.236,0.026c0.449,0.052,0.602,0.259,0.863,0.891l2.031,4.999
					c0.242,0.599,0.419,1.11,0.526,1.52l0.012,0.042l0.041,0.019c0.067,0.027,0.137,0.041,0.207,0.041
					c0.067,0,0.129-0.018,0.177-0.049l0.026-0.019l0.01-0.029c0.198-0.62,0.751-1.977,1.196-2.998l0.624-1.416
					c0.535-1.212,0.981-2.125,1.286-2.64c0.147-0.236,0.303-0.341,0.531-0.359l0.38-0.025l0.024-0.024
					c0.062-0.062,0.073-0.173,0.062-0.247C101.27,2.147,101.233,2.083,101.176,2.051z"/>
				<path fill="#FFFFFF" d="M108.709,8.045l-0.029,0.033c-0.331,0.658-0.629,0.993-0.78,1.077c-0.248,0.124-0.597,0.164-1.438,0.164
					c-0.962,0-1.208-0.115-1.33-0.237c-0.165-0.174-0.198-0.548-0.198-1.137V6.319c0-0.223,0-0.223,0.293-0.223h0.669
					c0.403,0,0.704,0.01,0.867,0.055c0.159,0.04,0.242,0.145,0.294,0.374l0.103,0.447l0.018,0.038
					c0.042,0.051,0.124,0.083,0.216,0.083c0.105,0,0.192-0.04,0.229-0.107l0.012-0.02V6.943c0-0.112-0.009-0.261-0.02-0.428
					c-0.013-0.211-0.026-0.448-0.026-0.68c0-0.24,0.013-0.487,0.026-0.703c0.011-0.177,0.02-0.334,0.02-0.458V4.649l-0.012-0.02
					c-0.038-0.068-0.125-0.107-0.229-0.107c-0.092,0-0.173,0.03-0.216,0.082l-0.112,0.512c-0.051,0.265-0.117,0.303-0.217,0.336
					c-0.125,0.042-0.471,0.065-0.953,0.065h-0.669c-0.293,0-0.293,0-0.293-0.235V2.978c0-0.371,0-0.371,0.258-0.371h0.831
					c0.49,0,0.864,0.011,1.099,0.068c0.526,0.131,0.631,0.463,0.792,0.967l0.022,0.067l0.017,0.029
					c0.039,0.048,0.105,0.075,0.188,0.075c0.079,0,0.191-0.027,0.241-0.104l0.019-0.025l-0.015-0.165
					c-0.061-0.672-0.114-1.244-0.177-1.42l-0.028-0.075l-0.078,0.02c-0.128,0.03-0.844,0.03-1.536,0.03h-2.17
					c-0.445,0-0.826-0.008-1.357-0.032l-0.023-0.001l-0.021,0.008c-0.094,0.047-0.11,0.182-0.113,0.223
					c-0.007,0.1,0.022,0.181,0.08,0.218l0.224,0.039c0.59,0.067,0.625,0.146,0.625,1.364v4.146c0,1.249-0.072,1.302-0.635,1.353
					l-0.412,0.037l-0.023,0.023c-0.065,0.065-0.075,0.172-0.063,0.25c0.014,0.085,0.053,0.15,0.11,0.18l0.02,0.01h0.023
					c0.667-0.025,1.069-0.035,1.566-0.035h1.039c1.006,0,2.019,0.01,3.091,0.035l0.056,0.001l0.025-0.053
					c0.153-0.32,0.445-1.215,0.525-1.622l0.005-0.027l-0.011-0.025C109.051,7.987,108.82,7.967,108.709,8.045z"/>
				<path fill="#FFFFFF" d="M85.739,2.053l-0.024-0.015L85.687,2.04c-0.378,0.021-0.679,0.032-1.183,0.032
					c-0.408,0-0.789-0.008-1.357-0.032l-0.018-0.001l-0.017,0.005c-0.067,0.024-0.114,0.088-0.131,0.173
					c-0.018,0.104,0.013,0.207,0.081,0.265l0.02,0.019l0.223,0.026c0.396,0.049,0.597,0.108,0.651,0.189
					c0.139,0.219,0.218,1.07,0.218,2.337v2.466c0,0.112,0,0.24-0.007,0.328c-0.4-0.412-0.819-0.88-1.34-1.461l-1.604-1.798
					c-1.143-1.278-1.796-2.116-1.943-2.493l-0.026-0.065l-0.07,0.011c-0.139,0.021-0.327,0.032-0.518,0.032
					c-0.202,0-0.816,0-1.297-0.032l-0.024-0.002L77.32,2.047c-0.062,0.032-0.104,0.096-0.117,0.176
					c-0.016,0.096,0.013,0.195,0.071,0.255l0.021,0.021l0.226,0.027c0.307,0.038,0.537,0.126,0.661,0.248
					c0.216,0.236,0.231,0.446,0.231,0.77v3.434c0.001,0.557,0.003,1.86-0.142,2.232c-0.027,0.058-0.125,0.137-0.437,0.179
					l-0.343,0.038l-0.021,0.021c-0.052,0.051-0.078,0.133-0.071,0.221c0.008,0.085,0.045,0.159,0.104,0.203L77.53,9.89l0.031-0.002
					c0.402-0.025,0.711-0.035,1.196-0.035c0.39,0,0.781,0.01,1.346,0.035l0.03,0.001l0.025-0.019
					c0.054-0.039,0.09-0.101,0.102-0.172c0.014-0.084-0.008-0.172-0.059-0.24l-0.023-0.031l-0.399-0.039
					c-0.277-0.023-0.47-0.088-0.519-0.176c-0.125-0.218-0.196-1.071-0.196-2.34V4.361c0-0.205,0.003-0.426,0.024-0.581
					c0.184,0.204,0.489,0.564,0.764,0.89c0.188,0.222,0.363,0.427,0.476,0.557l2.678,3.041c0.888,1.01,1.314,1.511,1.471,1.733
					l0.026,0.037h0.046c0.151,0,0.264-0.071,0.303-0.188l0.006-0.018l-0.002-0.019c-0.016-0.136-0.035-0.592-0.035-2.007V4.898
					c-0.002-0.591-0.006-1.819,0.165-2.18C85,2.691,85.139,2.591,85.566,2.525l0.191-0.028l0.021-0.02
					c0.056-0.056,0.083-0.146,0.073-0.236C85.841,2.16,85.8,2.09,85.739,2.053z"/>
			</g>
			<g>
				<path fill="none" d="M161.428,17.109c-3.014,0-6.531,2.075-6.531,7.928c0,4.484,2.305,9.311,7.36,9.311
					c2.952,0,6.393-2.054,6.393-7.845C168.649,22.169,166.76,17.109,161.428,17.109z"/>
				<path fill="none" d="M119.383,21.305c-0.2-0.6-0.422-1.263-0.582-1.625c-0.114,0.242-0.351,0.818-0.608,1.518l-1.745,4.811
					c-0.064,0.186-0.145,0.418-0.102,0.479c0.047,0.066,0.329,0.066,0.6,0.066h3.409c0.327,0,0.559-0.019,0.624-0.108
					c0.064-0.087,0.008-0.308-0.099-0.632L119.383,21.305z"/>
				<path fill="#FFFFFF" d="M148.18,27.339l-0.025-0.014l-0.025,0.002c-0.934,0.056-1.863,0.081-2.93,0.081
					c-1.725,0-3.205-0.028-3.955-0.081l-0.023-0.002l-0.018,0.009c-0.123,0.052-0.207,0.213-0.211,0.409
					c-0.004,0.162,0.045,0.364,0.207,0.442l1.246,0.147c1.657,0.187,1.723,0.283,1.723,2.593v1.105c0,0.855-0.134,1.35-0.263,1.528
					c-0.321,0.494-1.432,0.788-2.973,0.788c-5.073,0-8.22-3.599-8.22-9.393c0-3.633,2.001-7.875,7.64-7.875
					c3.173,0,4.896,1.19,5.593,3.86l0.004,0.023l0.018,0.018c0.084,0.084,0.229,0.134,0.401,0.134c0.183,0,0.422-0.066,0.492-0.248
					l0.009-0.021l-0.004-0.023c-0.281-1.858-0.415-3.165-0.415-3.995v-0.105l-0.104,0.018c-0.292,0.05-1.029-0.109-1.541-0.219
					l-0.142-0.029c-0.418-0.098-1.906-0.418-3.539-0.418c-3.846,0-6.737,1.068-8.844,3.263c-1.623,1.726-2.517,4.073-2.517,6.612
					c0,2.466,0.891,4.658,2.574,6.338c2.003,2.025,4.946,3.096,8.512,3.096c1.655,0,3.716-0.389,4.98-0.723
					c0.435-0.113,0.98-0.245,1.333-0.245h0.029l0.023-0.018c0.071-0.053,0.114-0.136,0.123-0.228
					c0.006-0.089-0.025-0.179-0.084-0.238l-0.032-0.02c-0.425-0.165-0.608-0.729-0.608-1.881v-1.547
					c0-1.458,0.046-2.107,1.113-2.236l0.471-0.059l0.021-0.018c0.114-0.098,0.177-0.277,0.158-0.467
					C148.363,27.539,148.287,27.4,148.18,27.339z"/>
				<path fill="#FFFFFF" d="M51.124,30.318c-0.133,0-0.253,0.033-0.338,0.093l-0.021,0.017l-0.01,0.024
					c-0.568,1.454-2.065,3.896-5.706,3.896c-4.867,0-8.137-3.586-8.137-8.924c0-6.129,4.003-8.314,7.75-8.314
					c3.128,0,5.009,1.333,5.591,3.967l0.006,0.029l0.023,0.02c0.096,0.082,0.243,0.129,0.402,0.129c0.205,0,0.387-0.077,0.476-0.201
					l0.02-0.026l-0.003-0.036c-0.216-1.637-0.359-3.388-0.388-4.057l-0.003-0.095l-0.095,0.012c-0.216,0.022-0.386-0.02-0.677-0.091
					l-0.065-0.019c-1.376-0.378-3.495-0.667-4.926-0.667c-2.939,0-5.543,0.819-7.532,2.368c-2.24,1.735-3.524,4.433-3.524,7.398
					c0,3.189,1.41,5.916,3.972,7.676c1.875,1.255,4.146,1.866,6.945,1.866c1.759,0,3.773-0.41,4.407-0.641
					c0.285-0.104,0.623-0.217,0.953-0.273l0.035-0.005l0.021-0.028c0.402-0.509,1.146-2.342,1.347-3.829l0.005-0.03l-0.015-0.025
					C51.537,30.38,51.298,30.318,51.124,30.318z"/>
				<path fill="#FFFFFF" d="M161.898,16.074c-5.671,0-9.95,4.235-9.95,9.849c0,4.701,3.418,9.46,9.95,9.46
					c5.53,0,9.7-4.186,9.7-9.736C171.599,21.037,168.563,16.074,161.898,16.074z M168.649,26.503c0,5.791-3.44,7.845-6.393,7.845
					c-5.056,0-7.36-4.826-7.36-9.311c0-5.853,3.518-7.928,6.531-7.928C166.76,17.109,168.649,22.169,168.649,26.503z"/>
				<path fill="#FFFFFF" d="M128.301,34.171l-0.021-0.014l-0.769-0.083c-1.16-0.137-1.503-0.566-2.282-2.873l-3.952-11.576
					c-0.366-1.072-0.746-2.177-1.06-3.236c-0.058-0.2-0.24-0.314-0.5-0.314h-0.042l-0.026,0.033
					c-0.324,0.382-0.775,0.84-1.399,1.023l-0.077,0.021l0.016,0.079c0.079,0.413-0.08,0.924-0.465,1.914l-2.827,7.464
					c-0.806,2.147-1.436,3.693-1.896,4.823c-0.209,0.514-0.388,0.951-0.54,1.342c-0.325,0.834-0.815,1.233-1.587,1.3l-0.941,0.083
					l-0.022,0.019c-0.092,0.076-0.14,0.222-0.131,0.396c0.009,0.146,0.063,0.349,0.194,0.437L110,35.024h0.028
					c0.188-0.008,0.39-0.017,0.603-0.026c0.642-0.025,1.369-0.059,2.05-0.059c0.336,0.01,0.642,0.015,0.924,0.018
					c0.825,0.016,1.42,0.025,1.952,0.067l0.023,0.001l0.021-0.01c0.134-0.059,0.225-0.201,0.243-0.379
					c0.019-0.192-0.049-0.375-0.172-0.466l-0.02-0.014l-0.938-0.083c-0.673-0.057-0.722-0.222-0.722-0.466
					c0-0.302,0.202-1.064,0.604-2.267l0.969-2.902c0.178-0.531,0.295-0.604,0.969-0.604h4.182c0.804,0,0.873,0.07,1.051,0.629
					l1.218,3.762c0.25,0.745,0.356,1.174,0.356,1.436c0,0.205-0.332,0.357-0.889,0.412l-0.828,0.083l-0.02,0.014
					c-0.116,0.083-0.178,0.25-0.165,0.438c0.015,0.188,0.103,0.341,0.231,0.404l0.021,0.011h0.023
					c0.172-0.008,0.356-0.015,0.552-0.023c0.708-0.025,1.586-0.062,2.628-0.062c1.168,0,2.138,0.025,3.348,0.085l0.033,0.001
					l0.026-0.021c0.113-0.093,0.163-0.304,0.159-0.462C128.457,34.375,128.4,34.243,128.301,34.171z M120.979,26.444
					c-0.065,0.09-0.297,0.108-0.624,0.108h-3.409c-0.271,0-0.553,0-0.6-0.066c-0.042-0.061,0.038-0.293,0.102-0.479l1.745-4.811
					c0.257-0.699,0.494-1.275,0.608-1.518c0.16,0.362,0.382,1.025,0.582,1.625l1.497,4.508
					C120.987,26.137,121.043,26.357,120.979,26.444z"/>
				<path fill="#FFFFFF" d="M86.046,17.358l0.716-0.057l0.019-0.014c0.143-0.095,0.145-0.32,0.138-0.411
					c-0.009-0.158-0.068-0.366-0.202-0.432l-0.021-0.011l-0.022,0.002c-1.348,0.054-2.293,0.083-3.431,0.083
					c-1.184,0-2.138-0.029-3.486-0.083l-0.022-0.002l-0.021,0.011c-0.134,0.066-0.193,0.274-0.204,0.432
					c-0.005,0.091-0.003,0.316,0.139,0.411l0.019,0.014l0.715,0.057c1.548,0.13,1.608,0.511,1.608,3.45v9.842
					c0,2.911-0.053,3.238-1.612,3.424l-0.722,0.085l-0.022,0.021c-0.126,0.125-0.143,0.341-0.116,0.499
					c0.027,0.166,0.098,0.286,0.195,0.335l0.021,0.011h0.022c1.348-0.054,2.302-0.085,3.486-0.085c1.138,0,2.083,0.031,3.431,0.085
					h0.022l0.021-0.011c0.134-0.066,0.192-0.275,0.202-0.433c0.007-0.093,0.005-0.316-0.138-0.412l-0.731-0.095
					c-1.558-0.186-1.611-0.513-1.611-3.424v-9.842C84.438,17.87,84.497,17.489,86.046,17.358z"/>
				<path fill="#FFFFFF" d="M107.263,30.318c-0.133,0-0.254,0.033-0.335,0.093l-0.022,0.017l-0.01,0.024
					c-0.569,1.454-2.066,3.896-5.706,3.896c-4.867,0-8.137-3.586-8.137-8.924c0-6.129,4.004-8.314,7.75-8.314
					c3.129,0,5.009,1.333,5.591,3.967l0.007,0.029l0.022,0.02c0.097,0.082,0.243,0.129,0.401,0.129c0.205,0,0.387-0.077,0.476-0.201
					l0.02-0.026l-0.004-0.036c-0.214-1.626-0.357-3.382-0.387-4.057l-0.004-0.095l-0.094,0.012c-0.218,0.022-0.387-0.02-0.676-0.091
					l-0.066-0.019c-1.376-0.378-3.494-0.667-4.926-0.667c-2.94,0-5.545,0.819-7.533,2.368c-2.239,1.737-3.524,4.433-3.524,7.398
					c0,3.189,1.41,5.916,3.973,7.676c1.876,1.255,4.148,1.866,6.947,1.866c1.76,0,3.773-0.41,4.405-0.641
					c0.287-0.104,0.624-0.217,0.954-0.273l0.034-0.005l0.021-0.028c0.403-0.509,1.148-2.342,1.348-3.829l0.003-0.029l-0.014-0.026
					C107.678,30.38,107.438,30.318,107.263,30.318z"/>
				<path fill="#FFFFFF" d="M74.612,34.074c-1.54-0.186-1.583-0.461-1.583-3.368v-9.953c0-2.913,0.051-3.237,1.581-3.395
					l0.582-0.056l0.041-0.015c0.144-0.095,0.145-0.32,0.139-0.411c-0.01-0.158-0.069-0.366-0.203-0.432l-0.02-0.011l-0.024,0.002
					c-1.345,0.06-2.26,0.083-3.264,0.083c-1.196,0-2.168-0.033-3.348-0.083l-0.022-0.002l-0.021,0.011
					c-0.134,0.066-0.194,0.274-0.204,0.432c-0.005,0.091-0.003,0.316,0.139,0.411l0.566,0.071c1.558,0.158,1.609,0.481,1.609,3.395
					v3.179c0,0.797,0,0.797-1.295,0.797h-7.922c-1.295,0-1.295,0-1.295-0.797v-3.179c0-2.913,0.051-3.237,1.583-3.395l0.526-0.056
					l0.041-0.015c0.142-0.095,0.143-0.32,0.137-0.412c-0.01-0.157-0.069-0.365-0.202-0.432l-0.021-0.011l-0.023,0.002
					c-1.27,0.058-2.198,0.083-3.209,0.083c-0.722,0-1.363-0.021-2.041-0.043c-0.444-0.016-0.915-0.03-1.447-0.041h-0.021l-0.02,0.01
					c-0.134,0.066-0.193,0.274-0.204,0.432c-0.006,0.091-0.003,0.316,0.139,0.411l0.019,0.014l0.742,0.057
					c1.364,0.104,1.553,0.517,1.553,3.395v9.953c0,2.949-0.072,3.106-1.534,3.368l-0.498,0.087l-0.02,0.019
					c-0.125,0.125-0.142,0.341-0.116,0.499c0.025,0.166,0.097,0.286,0.193,0.335l0.02,0.011h0.023
					c0.366-0.011,0.715-0.023,1.064-0.034c0.668-0.025,1.359-0.051,2.146-0.051c1.073,0,2.025,0.029,3.514,0.085h0.022l0.021-0.011
					c0.135-0.066,0.193-0.275,0.204-0.432c0.006-0.094,0.004-0.317-0.139-0.413l-0.842-0.095c-1.459-0.158-1.61-0.473-1.61-3.368
					v-3.899c0-0.766,0-0.796,1.295-0.796h7.922c1.295,0,1.295,0.03,1.295,0.796v3.899c0,2.928,0,3.103-1.614,3.368l-0.554,0.086
					l-0.021,0.02c-0.125,0.125-0.142,0.341-0.116,0.499c0.026,0.166,0.098,0.286,0.195,0.335l0.021,0.011h0.022
					c1.299-0.06,2.27-0.085,3.348-0.085c1.127,0,2.116,0.033,3.348,0.085h0.022l0.021-0.011c0.134-0.066,0.193-0.275,0.203-0.432
					c0.006-0.094,0.004-0.317-0.138-0.412L74.612,34.074z"/>
			</g>
		</g>
		<g>
			<path fill="#FFFFFF" d="M14.832,36C14.708,36,2.251,34.43,1,21.208c0-0.013,0-0.016,0-19.38V1.687l0.142-0.018
				C1.195,1.661,6.472,1,14.492,1c4.709,0,9.429,0.225,14.029,0.668l0.148,0.014L28.67,21.19
				c-1.065,11.313-10.008,14.122-13.805,14.808L14.832,36z M1.325,1.973c0,1.771,0,19.146,0,19.22
				c1.217,12.862,13.098,14.442,13.499,14.482c3.734-0.677,12.479-3.441,13.521-14.501L28.343,1.977
				C23.8,1.544,19.14,1.324,14.492,1.324C7.221,1.324,2.216,1.869,1.325,1.973z"/>
			<path fill="#FFFFFF" d="M23.711,5.359c1.013,0.439,1.407,0.044,1.732,0.044c0.999,0,1.048,0.929,1.048,0.929h-0.001
				c-0.058-0.148-0.477-0.248-0.797-0.108c-0.448,0.196-1.572,0.835-1.982,0.714V5.359z"/>
			<path fill="#FFFFFF" d="M23.712,8.616c0,0,0.185,0.331,1.799,0.097c0.877-0.129,1.01,0.905,1.01,0.905h-0.002
				c-0.215-0.173-0.649-0.249-0.944-0.06c-0.98,0.629-1.863,0.636-1.863,0.636V8.616z"/>
			<path fill="#FFFFFF" d="M11.866,15.068c-0.216-0.367,0.258-0.719,0.258-0.719c-0.014,1.035,1.311,0.324,2.001,0.654
				c0.167,0.076,0.284,0.221,0.352,0.375C13.734,14.866,12.358,15.908,11.866,15.068z"/>
			<rect x="5.288" y="5.51" fill="#FFFFFF" width="1.03" height="1.012"/>
			<rect x="5.288" y="9.035" fill="#FFFFFF" width="1.03" height="1.011"/>
			<path fill="#FFFFFF" d="M4.074,5.036c1.164,0,1.164,1.769,0,1.769C2.892,6.805,2.917,5.036,4.074,5.036z"/>
			<path fill="#FFFFFF" d="M4.074,8.572c1.164,0,1.17,1.769,0,1.769C2.865,10.341,2.865,8.572,4.074,8.572z"/>
			<path fill="#FFFFFF" d="M5.476,25.435c-0.317-1.44-0.308-2.135-0.234-3.599c0.033-0.666,0.253-1.674,0.151-1.692
				c-0.094-0.018-1.606,3.868-1.971,4.632c-0.638-0.217,0.397-3.581,1.712-5.2c0.124-0.515-0.689,0.522-1.175,0.936
				c-0.445,0.379-1.008,0.872-1.623,0.703c0.789-0.833,2.597-2.391,2.798-2.779c0.168-0.334-1.234,1.039-2.715,0.527
				c0.959-0.513,3.196-1.652,3.199-2.445l-0.02-0.021c-0.024,0-1.722,1.068-2.824,0.556c0.821-0.453,3.667-2.259,4.445-2.771
				c0.367,0.08,0.516-0.053,0.634-0.134c-0.298,0.019-1.285,0.171-0.785-0.709c0.191,0.79,1.573,0.063,2.069-0.05
				c1.383-0.319,1.374,1.157,1.255,1.768c-0.043,0.226,0.424,0.388,0.654,0.356c-0.396,0.974-1.073,0.055-1.154,0.427
				c-0.032,0.15-0.485,0.269-0.483,0.644c0.003,0.51,0.203,0.231,0.222,0.627c0.02,0.385-0.165,0.086-0.123,0.502
				c0.066,0.661,1.161-0.085,1.612,0.091c0.227,0.09,0.376,0.291,0.597,0.252c0.064-0.054,0.035-0.304,0.025-0.392
				c-0.023-0.212-0.412-0.235-0.592-0.521c-0.157-0.25,0.179-1.001,0.36-1.223c0.261,1.241,1.425,0.853,1.599,2.156
				c0.11,0.368-0.4,0.778,0.013,1.377c-0.307,0.298-0.675,1.708-0.034,2.371c-0.108,0.302-0.252,0.993,0.32,1.399
				c-0.192,0.407-0.147,0.908,0.014,1.416c-0.356,0.001-0.285-1.994-2.419-2.06c-0.048-0.013-0.059,0.228,0.002,0.336
				c0.256,0.448,0.599,0.423,0.525,1.479c-0.024,0.36-0.236-0.064-0.35-0.163c-0.258-0.228-0.458-0.259-0.571-1.001
				c-0.867,0.679-0.782,1.501-0.728,1.918c0,0-0.191-0.521-0.411-1.055c-0.012-0.03,0.88-1.102,1.022-1.354
				c1.802-3.236-1.162,1.045-1.168,1.029c-0.159-0.369-0.248-0.617-0.341-0.717c0.023-0.045,0.466-0.664,0.69-1.13
				c1.393-2.895-0.828,0.964-0.907,0.893c-0.168-0.149-0.307-0.338-0.413-0.271c-0.025,0.444-0.132,0.385-0.101,0.839
				c-0.232,0.309-0.73,0.795-1.078,1.036c0,0-0.09-0.707-0.066-0.736c0.175-0.211,0.926-0.976,1.066-1.194
				c2.281-3.577-1.132,0.796-1.138,0.758c-0.023-0.142-0.152-0.316-0.348-0.516c0,0,0.685-1.065,0.867-1.439
				c1.389-2.851-1.117,1.264-1.144,1.249c-0.06-0.032-0.066-0.031-0.137-0.056c-0.07-0.024,0.181-0.801,0.277-1.279
				c0.189-0.949-0.419-0.204-0.557,1.299c-0.128,0.021-0.441,0.053-0.56,0.161c0.076,0.399,0.172,0.093,0.34,0.478
				c0.203,0.463-0.28,1.221,0.14,1.775c0.163,0.213,0.172,0.178,0.139,0.319C5.797,25.219,5.639,25.214,5.476,25.435z"/>
			<path fill="#FFFFFF" d="M6.231,27.698c-0.326-0.616-0.455-1.131-0.628-1.716c0.247,0.167,0.538,0.242,0.806,0.355
				C6.741,27.2,6.418,28.051,6.231,27.698z"/>
			<path fill="#FFFFFF" d="M23.806,27.913c-0.305,0.44-0.428-0.415-0.167-1.243c0.373-0.148,0.745-0.436,0.998-0.766
				C24.489,26.625,24.24,27.293,23.806,27.913z"/>
			<path fill="#FFFFFF" d="M25.112,25.211c-0.4,0.132-0.603,0.533-0.913,0.795c-0.971,0.957-2.403,0.653-3.55,1.166
				c-1.041,0.378-1.792,1.338-2.883,1.58c-0.321,0.104-0.374,0.263-0.169,0.258c0.12-0.003,0.784,0.688,1.847,0.155
				c0.354-0.179,1.458-0.792,1.644-0.826c-0.596,0.567-0.896,1.073-1.429,1.374c-0.327,0.184-1.657,0.657-2.983,0.4
				c-0.588-0.114-1.04,0.427-0.89,0.414c0.315-0.084,0.667-0.041,0.879,0.236c0.385,0.301,0.943,0.676,1.422,0.117
				c0.159-0.186,0.921-0.581,1.637,0.145c-0.762-0.039-0.687,1.327-2.128,1.168c-0.533-0.004-1.714-1.224-2.05-0.847
				c-0.596,0.668,1.281,1.304,0.468,2.144c-0.733,0.76-1.61-0.605-1.61-0.605c0.458,0.193,1.303,0.316,0.93-0.427
				c-0.147-0.296-0.428-0.562-0.428-1.106c-0.064-0.271-1.744,2.159-2.856,1.062c-0.437-0.433-1.321-1.379-2.122-1.74
				c2.122-0.179,2.444,0.669,2.546,0.806c0.678,0.912,1.306-0.016,1.451-0.178c0.221-0.251,0.533-0.597,0.423-0.649
				c-0.824-0.39-1.764-0.473-2.466-0.15c1.503-2.064,2.673-0.132,2.673-0.132c0.165,0.104-0.042-1.224-1.53-1.298
				c-0.929-0.045-1.747,0.79-2.386,0.79c-0.521-0.002-2.1-1.065-2.471-2.012c0.919,0.687,2.091,1.08,2.821,0.645
				c1.374-0.816,3.104,0.415,3.185,0.269c-0.384-0.3-1.257-1.469-3.615-0.802c-0.916,0.523-1.301-0.391-1.862-0.405
				c0.955-0.846,1.618-0.415,1.952-0.39c0.08,0-0.398-0.393-0.733-0.428c-2.605-0.27-4.256-0.986-4.256-0.986
				c-0.014,0,0.217-0.523,1.337-0.145c0,0-1.005-0.614-0.996-1.404c0.032-0.484,0.268-1.008-0.104-1.411
				c1.513-0.062,0.438,2.042,1.5,2.585c0.022,0.01-0.313-0.503,0.16-0.899c0.219,0.618,0.759,0.938,1.139,1.039
				c0.089-0.05,0.199-0.239,0.199-0.239c-0.649-0.834-0.313-2.281-0.313-2.281C8.665,23,9.333,24.572,9.567,25.234
				c0.131,0.371,0.379,0.582,0.598,0.733c0.094-0.221,0.114-0.6,0.099-0.701c-0.05-0.356-0.196-0.823,0.277-1.394
				c0.286,0.824,0.675,0.586,0.728,0.981c0.073,0.555,0.022,0.327-0.034,0.754c0.029,0.585,0.562,0.751,1.036,1.126
				c1.069,0.578,1.779,0.895,2.244,1.638c0.228-1.254-2.871-1.335-2.674-3.929c-0.045-0.966,0.119-1-0.566-1.59
				c1.344,0.209,1.84,2.102,1.976,2.581c0.208,0.732,0.739,0.837,1.364,1.813c0.09,0.031-0.976-2.061,0.292-4.606
				c0,0,0.404,1.16,0.227,1.857c-0.119,0.468,0.048,0.808,0.074,1.098c0.027,0.295-0.042-0.968,0.986-1.673
				c0.063,0.516,0.487,1.226,0.073,2.07c-0.522,1.066-0.612,0.667-0.621,1.949c0.052-0.023,0.201-0.884,0.591-1.374
				c0.828-1.032,0.183-1.509,0.99-2.403c0.064,0.447,0.178,0.27,0.227,0.668c0.109,0.896-0.773,1.797-0.566,1.767
				c0.238-0.035,0.621-0.241,0.749-0.92c0,0,0.346,0.62,0.03,0.826c-0.571,0.374-0.69,0.777-0.602,1.229
				c0.458-0.545,1.094-1.057,0.985-1.832c0.052-0.471,0.608-0.62,0.709-1.71c0.017-0.18,0.093-0.386,0.274-0.481
				c-0.08,0.611,0.446,1.095-0.096,1.844c0.123,0.066,0.582-0.583,1.251-0.346c-1.344,0.24-0.952,1.695-1.982,2.367
				c-0.31,0.203-0.257,0.432-0.35,0.458c0.92-0.053,1.629-1.147,1.752-1.229c0.925-0.624,1.176-0.703,1.546-1.716
				c0.144-0.387,0.021-0.525,0.534-1.043c0.225,0.511-0.201,1.53-0.278,1.761c-0.166,0.488-0.68,0.906-0.557,0.906
				c2.479-1.094,2.497-1.778,3.088-2.561c0.179-0.296,1.06-0.815,1.389-0.865c-0.08,0.163-0.472,0.389-0.487,0.686
				c-0.031,0.546-0.207,0.881-0.484,1.318C24.513,25.484,24.809,24.932,25.112,25.211z"/>
			<path fill="#FFFFFF" d="M22.165,25.651c-0.324,0.282-0.535,0.384-0.464,0.242c0.079-0.155,0.137-0.288,0.181-0.406
				C21.896,25.448,22.165,25.651,22.165,25.651z"/>
			<path fill="#FFFFFF" d="M21.952,25.273c0.072-0.257,0.072-0.436,0.105-0.66c0.014-0.098,0.017-0.086,0.021-0.169
				c0.001-0.025,0.701,0.583,0.74,0.606c-0.176,0.22-0.326,0.298-0.493,0.453C22.208,25.402,21.946,25.297,21.952,25.273z"/>
			<path fill="#FFFFFF" d="M25.874,18.81c-0.628-0.649-1.35-2.295-1.646-2.055c-0.036,0.014,1.193,1.923,1.801,3.057
				c0.306,0.574,0.558,1.396,0.58,2.014c0.097,3.053-0.363,2.818-0.363,2.818c-0.716-2.405-1.051-5.199-2.097-6.488
				c-0.417-0.515,1.117,2.255,1.183,4.753c-0.295,0.076-1.075,0.387-1.263,0.692c0.101-1.684-0.444-3.334-0.618-3.733
				c-0.337-0.779,0.151,1.809,0.184,2.405c0,0.025-2.796-3.59-1.106-0.805c0.438,0.72,1.121,1.192,1.121,1.204
				c0.012,0.502-0.021,0.871-0.117,1.14c-0.172,0.138-3.808-4.829-1.798-1.39c0.249,0.428,1.708,1.719,1.695,1.744
				c-0.092,0.195-0.255,0.481-0.482,0.691c-0.038-0.039-0.839-0.626-0.845-0.663c-0.06-0.385-0.062-0.747-0.538-0.475
				c0,0-1.791-2.081-0.961-0.622c0.362,0.637,0.6,0.707,0.696,0.821c0,0-0.278,0.376-0.367,0.775
				c-0.037,0.16-1.554-1.679-0.958-0.522c0.191,0.368,0.884,0.772,0.877,0.801c-0.071,0.239-0.144,0.472-0.219,0.624
				c-0.095,0.19-1.428,1.251-1.426,1.251c0,0,0.26-0.84,0.827-1.251c0.323-0.235,0.325-0.186,0.538-0.319
				c-0.004-0.125-0.125-0.327-0.279-0.38c-0.194-0.069-0.826,0.045-0.826,0.045c0.059-0.314-0.217-0.993-0.213-1.74
				c-0.238,0.024-0.654,0.392-0.755,0.599c-0.072,1.236-0.341,0.866-0.593,1.756c-0.274-0.373,0.019-0.909-0.25-1.259
				c-0.369-0.479-0.425-0.804-0.48-1.394c0.087-0.049,0.463-0.465,0.121-1.338c-0.056-1.371,0.558-1.895-0.54-2.854
				c0.093-0.03,0.159-0.714,0.159-0.718c0.808,0.432,0.648-0.496,0.963-0.68c0.5-0.289,0.409-0.589,0.185-0.963
				c1.43,0.405-0.064,1.381,0.583,1.402c0.469,0.014,0.784-0.104,0.987-0.42c0.217-0.333-0.037-0.537,0.569-1.077
				c0.061-0.054,0.221-0.414-0.259-0.513c-0.105-0.021,0-0.433,0-0.433c-0.385,0.325-0.505,0.783-1.125,0.494
				c-0.317-0.15-0.522-0.003-0.652,0.06c0,0-0.066-0.258,0.196-0.346c0.678-0.229,0.845-0.496,0.808-0.645
				c-0.091-0.352-0.119,0-0.099-0.37c0.009-0.147,0.179-0.347,0.321-0.517c0.46-0.555,0.785-0.346,0.903-0.298
				c0.267-0.206,0.313-0.192,0.562-0.29c0.426-0.167,1.347,0.112,1.863,0.35c0.25,0.113,0.548,0.179,0.839,0.117
				c-0.002,0.149-0.107,0.229-0.213,0.261c-0.16,0.05-0.352,0-0.34,0.117c0.007,0.067,0.228,0.081,0.365,0.118
				c0.765,0.207,1.753,0.89,1.104,0.748c-0.077-0.017,0.467,0.406,0.879,0.956l1.456,1.413c-0.066,0.079-0.577,0.007-2.194-1.506
				c-0.229,0.204,1.967,1.857,2.875,3.611C27.412,19.64,26.281,19.23,25.874,18.81z"/>
			<g>
				<path fill="#FFFFFF" d="M21.028,5.359c-0.031-0.023-0.075-0.048-0.037-0.108c0.074-0.109,0.109-0.23,0.168-0.225
					c0.051,0,0.379,0.173,0.368,0.265c0.011,0.065,0.015,0.166,0.015,0.303C21.379,5.536,21.145,5.457,21.028,5.359z"/>
				<path fill="#FFFFFF" d="M21.259,6.158c-0.089-0.074-0.307-0.309-0.136-0.62c-0.022-0.014,0.024,0.014,0,0
					c0.158,0.088,0.271,0.125,0.416,0.169c-0.001,0.125-0.017,0.328-0.011,0.369C21.442,6.081,21.368,6.104,21.259,6.158z"/>
			</g>
			<path fill="#FFFFFF" d="M18.958,3.213c-1.655-0.611-3.931,0.455-3.931,0.455c0.002,0.282,0,8.129,0,8.129s0.837-0.674,2.57-0.674
				c0.839,0,4.14,0.904,5.732,0.794V3.629C23.329,3.629,20.986,3.96,18.958,3.213z M20.855,5.368c-0.036-0.031-0.048-0.117,0-0.186
				c0.066-0.087,0.271-0.346,0.474-0.376c0.108-0.015,0.289,0.014,0.539,0.236c-0.032,0.039-0.032,0.764-0.032,0.84
				c0.087,0.106,0.235,0.222,0.235,0.222l-0.332,0.361c-0.097-0.07-0.156-0.144-0.183-0.264c-0.255,0.049-0.427,0.199-0.545,0.289
				c-0.105-0.095-0.263-0.348-0.265-0.521c-0.004-0.174,0.133-0.429,0.228-0.518C20.983,5.457,20.896,5.401,20.855,5.368z
				 M20.23,7.994c0.142,0.073,0.387,0.033,0.449,0.022c0.06-0.008,0.042-0.026,0.086-0.067c0.045-0.043,0.098-0.004,0.061,0.038
				c-0.04,0.043-0.399,0.384-0.499,0.453c-0.09,0.022-0.292,0.016-0.412-0.135c-0.214-0.267-0.367-0.363-0.301-0.849
				c0.047-0.328,0.597-0.614,0.723-0.684c0.05,0.048,0.301,0.311,0.41,0.4c-0.042,0.055-0.18,0.117-0.314,0.116
				c-0.136,0-0.227-0.114-0.317-0.213c-0.064,0.06-0.204,0.139-0.243,0.339C19.82,7.681,20.053,7.9,20.23,7.994z M19.37,4.71
				c0.272-0.117,0.535-0.48,0.567-0.572c0.035-0.096,0.121-0.056,0.077,0.039c-0.09,0.189-0.081,0.327-0.042,0.437
				c0.014,0.03,0.538,0.02,0.616,0.02c0.045,0,0.042,0.135,0,0.135c-0.061,0-0.681,0.075-0.681,0.075
				c-0.033,0.015,0.03,0.783,0.055,0.844c0.019,0.064,0.079,0.159,0.148,0.099c0.063-0.064,0.138,0.042,0.062,0.104
				c-0.043,0.034-0.181,0.307-0.243,0.345c-0.099,0.062-0.241-0.142-0.287-0.267c-0.075-0.208-0.125-0.731-0.123-1.08
				C19.541,4.894,19.23,4.766,19.37,4.71z M18.709,7.214c0.092,0.204,0.458,0.397,0.646,0.447c-0.058,0.059-0.32,0.354-0.413,0.417
				c-0.131-0.074-0.312-0.249-0.409-0.392c-0.175,0.227-0.217,0.416-0.538,0.498c0.186-0.154,0.356-0.498,0.342-0.825
				c-0.014-0.296-0.175-0.44-0.317-0.496c-0.122,0.06-0.227,0.139-0.292,0.167c-0.067,0.028-0.086-0.078-0.038-0.102
				c0.157-0.076,0.5-0.337,0.546-0.387c0.145,0.026,0.325,0.152,0.351,0.27c0.109-0.068,0.304-0.28,0.363-0.33
				c0.066,0.116,0.264,0.26,0.482,0.338c-0.201,0.342-0.644,0.137-0.708,0.054C18.655,6.99,18.637,7.063,18.709,7.214z
				 M18.613,3.705l0.194,0.188v0.201l-0.145,0.125h-0.119l-0.12-0.119L18.42,3.866L18.613,3.705z M18.492,4.417l0.262,0.26
				l-0.005,0.825c0.129,0.147,0.206,0.182,0.392,0.214L18.885,6.05h-0.239c-0.118-0.121-0.197-0.213-0.22-0.308l-0.013-0.797
				l-0.298-0.171c-0.055,0.075-0.165,0.075-0.123,0.013l0.411-0.359L18.492,4.417z M16.013,4.077
				c0.136,0.016,0.903,0.083,1.121,0.114c0.078,0.015,0.08,0.086-0.023,0.119c-0.053,0.013-0.176,0.073-0.176,0.132
				c0,0.083,0.278,0.695,0.355,0.809c0.065-0.157,0.328-0.826,0.276-0.973c-0.058-0.147-0.079-0.171-0.188-0.182
				c-0.11-0.014-0.11-0.076,0.021-0.095c0.131-0.022,0.496-0.053,0.605-0.04c0.11,0.01,0.124,0.074-0.023,0.112
				c-0.143,0.041-0.245,0.185-0.28,0.331c-0.028,0.148-0.513,1.552-0.571,1.645c-0.116-0.441-0.602-1.483-0.757-1.706
				c-0.134-0.194-0.262-0.159-0.385-0.162C15.87,4.182,15.915,4.068,16.013,4.077z M16.473,10.128
				c-0.122,0.091-0.269,0.305-0.337,0.386c-0.138-0.094-0.291-0.213-0.279-0.328c0.018-0.199-0.043-1.628-0.05-1.794
				c0.08,0.008,0.317,0.013,0.401,0.013c-0.01,0.178-0.01,1.407,0,1.531c0.011,0.128,0.121,0.167,0.23,0.118
				C16.495,10.032,16.544,10.07,16.473,10.128z M16.208,8.144c-0.266-0.153-0.499-0.203-0.505-0.787
				c-0.004-0.354,0.325-0.636,0.54-0.758c0.241-0.132,0.783-0.215,0.968-0.156c0.094,0.024,0.189,0,0.189-0.044
				c0-0.063,0.087-0.046,0.087,0c0,0.047-0.002,0.639-0.008,0.695c0,0.057-0.086,0.05-0.086,0c0-0.085,0-0.113-0.074-0.225
				c-0.216-0.326-0.815-0.354-1.111,0.038c-0.102,0.131-0.14,0.36-0.025,0.398c0.112,0.037,0.537,0.003,0.675-0.023
				c0.137-0.022,0.479-0.08,0.52-0.108c0.039-0.023,0.092-0.057,0.092,0.012c0,0.069,0,0.293-0.004,0.362
				c0,0.071-0.054,0.037-0.09,0.01c-0.041-0.023-0.362-0.055-0.501-0.065c-0.233-0.02-0.584-0.091-0.699-0.057
				c-0.116,0.033-0.026,0.215,0.075,0.349c0.292,0.394,0.84,0.406,1.058,0.083c0.08-0.116,0.08-0.14,0.08-0.222
				c0-0.053,0.089-0.062,0.089,0c0,0.053-0.004,0.544-0.004,0.591c0,0.049-0.092,0.062-0.092-0.002
				c0.004-0.104-0.062-0.096-0.181-0.061C16.884,8.257,16.46,8.286,16.208,8.144z M18.097,9.907c-0.054,0.052-0.3,0.354-0.367,0.427
				c-0.112-0.085-0.208-0.106-0.243-0.24c-0.29,0.111-0.398,0.279-0.571,0.399c-0.102-0.095-0.186-0.265-0.189-0.439
				c-0.004-0.171,0.165-0.403,0.261-0.494c-0.012-0.012-0.018-0.012-0.032-0.023c-0.038-0.032-0.091-0.283-0.04-0.35
				c0.064-0.093,0.321-0.444,0.523-0.462c0.139-0.013,0.247,0.161,0.365,0.288c-0.03,0.035-0.017,0.649-0.021,0.722
				c0.129,0.14,0.182,0.171,0.259,0.119C18.12,9.801,18.151,9.854,18.097,9.907z M19.114,10.046
				c-0.041,0.037-0.179,0.251-0.286,0.294c-0.112,0.042-0.28-0.03-0.354-0.14c-0.119-0.18-0.049-0.746-0.045-1.091
				c0.021,0.003-0.285-0.115-0.154-0.181c0.23-0.113,0.458-0.351,0.492-0.449c0.036-0.092,0.123-0.052,0.077,0.044
				c-0.044,0.092-0.077,0.323-0.05,0.396c0.009,0.03,0.184,0.044,0.262,0.047c0.044,0,0.042,0.138-0.004,0.138
				c-0.057-0.004-0.273,0.002-0.273,0.002c-0.031,0.016-0.008,0.77,0.011,0.833c0.023,0.063,0.202,0.106,0.268,0.045
				C19.126,9.924,19.194,9.988,19.114,10.046z M20.639,10.523c-0.101-0.03-0.273-0.182-0.261-0.318
				c-0.124,0.084-0.488,0.235-0.619,0.269c-0.131-0.135-0.23-0.171-0.239-0.335c-0.007-0.172,0.038-0.611-0.016-0.714
				c-0.053-0.106-0.144-0.13-0.254-0.138c0.132-0.148,0.274-0.243,0.356-0.325c0.14,0.105,0.186,0.17,0.261,0.285
				c-0.002,0.188-0.043,0.586-0.03,0.723c0.008,0.135,0.545,0.227,0.569,0.028c0.024-0.198,0.006-0.454,0-0.57
				c-0.01-0.091-0.222-0.133-0.331-0.118c0.146-0.152,0.269-0.264,0.361-0.348c0.129,0.097,0.255,0.237,0.332,0.353
				c-0.003,0.203-0.039,0.673-0.01,0.799c0.037,0.128,0.024,0.136,0.121,0.202C20.781,10.407,20.706,10.448,20.639,10.523z
				 M21.718,6.919c0.364,0.121,0.516,0.489,0.528,0.737c0.008,0.201-0.125,0.466-0.215,0.63c-0.145,0.094-0.288,0.232-0.424,0.363
				c-0.442-0.003-0.657-0.521-0.649-0.772C20.971,7.446,21.257,7.083,21.718,6.919z M22.543,9.603
				c-0.076,0.073-0.249,0.223-0.314,0.274c-0.097-0.052-0.263-0.241-0.317-0.284c-0.028,0.025-0.084,0.053-0.131,0.078
				c-0.003,0.105,0,0.964-0.007,1.069c-0.142,0.009-0.257,0.019-0.354-0.004c-0.008-0.136,0.006-0.881,0-1.001
				c-0.008-0.147-0.245-0.198-0.404-0.203c0.11-0.063,0.371-0.301,0.461-0.362c0.149,0.117,0.249,0.233,0.323,0.315
				c0.1-0.052,0.256-0.165,0.332-0.227c0.132,0.093,0.28,0.215,0.335,0.279C22.537,9.474,22.623,9.525,22.543,9.603z M22.766,8.042
				c-0.118-0.011-0.233-0.03-0.295-0.052c-0.101-0.035-0.061-0.161,0.024-0.161c0.079,0.002,0.206,0.03,0.263,0.055
				C22.816,7.91,22.84,8.051,22.766,8.042z M22.776,7.748c-0.115-0.009-0.235-0.033-0.301-0.055
				c-0.101-0.031-0.057-0.168,0.024-0.168c0.082,0,0.21,0.028,0.272,0.055C22.83,7.608,22.855,7.755,22.776,7.748z"/>
			<g>
				<path fill="#FFFFFF" d="M21.751,8.384c-0.085-0.042-0.397-0.282-0.468-0.466c-0.094-0.248-0.094-0.522,0.17-0.685
					c0.207,0.077,0.447,0.28,0.468,0.466C21.95,7.941,21.881,8.227,21.751,8.384z"/>
			</g>
			<g>
				<path fill="#FFFFFF" d="M17.47,9.931c-0.078,0.055-0.172,0.103-0.282,0.156c-0.087-0.069-0.214-0.132-0.06-0.423
					c0.113,0.062,0.17,0.024,0.346,0.005C17.474,9.779,17.471,9.879,17.47,9.931z"/>
				<path fill="#FFFFFF" d="M17.11,9.49c-0.032-0.026-0.058-0.245-0.022-0.302c0.074-0.113,0.082-0.119,0.141-0.119
					c0.053,0.003,0.246,0.099,0.234,0.194c0.011,0.062,0.013,0.156,0.012,0.287C17.321,9.569,17.283,9.636,17.11,9.49z"/>
			</g>
			<path fill="#FFFFFF" d="M17.452,16.446c-0.444-0.234-0.432-0.589-0.481-0.975c-0.039-0.303-0.235-0.417-0.16-0.49
				c0.443,0.332,0.565-0.038,0.579-0.111c-0.084,0.048-0.479,0.099-0.528-0.513c-0.019-0.242-0.391-0.348-0.389-0.346
				c0.228-0.045,0.958-0.086,0.784-0.81c-0.088,0.171-0.306,0.441-0.76,0.335c0,0,0.292-0.078,0.239-0.393
				c-0.703,0.393-1.272-0.41-2.005-0.305c-0.261,0.029-0.58,0.184-0.657,0.458c-0.16,0.158-0.152-0.264-0.476-0.079
				c-0.139,0.186,0.221,0.599,0.136,0.623c-0.353,0.106-0.309-0.528-0.509-0.544c-0.29,0.103-1.02,0.768-0.302,1.295
				c-0.022-0.355,0.652-0.745,0.875,0.043c0.677-0.053,0.905,0.357,0.989,0.589c0.997,0.178,0.71,0.838,0.682,0.838
				c-0.094-0.142-0.523-0.802-1.226-0.348c-0.163,0.106-0.445,0.209-0.583,0.07c0.015,0.221,0.294,0.42,0.484,0.368
				c0.625-0.17,0.782,0.409,0.305,0.567c0.103,0.16,0.299,0.15,0.479,0.04c0.269-0.164,0.3-0.308,0.398-0.407
				c0.17,0.812-0.86,0.891-1.189,0.939c0.051,0.172,0.162,0.211,0.369,0.271c-1.086,0.038-1.3,1.055-1.237,1.642
				c0.246,0.018,0.623-0.512,0.591-0.208c-0.771,0.815-1.03,1.906-0.624,2.603c0.193-0.081,0.252-0.292,0.32-0.465
				c0.029-0.019,0.425,0.155-0.207,0.911c-0.044,0.196-0.266,0.788,0.221,0.933c0.186-0.219,0.159-0.41,0.199-0.634
				c0.142-0.055,0.235,0.4,0.179,0.54c-0.634,0.263-0.555,2.207,0.181,3.249c-0.341-0.758-0.296-1.732,0-2.51
				c0.227-0.602,0.725-1.953,0.738-1.938c0.283,0.348,0.641,1.838,0.641,2.455c0.397-0.347,0.475-0.724,0.799-0.979
				c0.154,0.541,0.217,0.899,0.339,1.377c0.158-0.467,0.575-0.993-0.021-2.505c0.123-0.111,0.349,0.523,0.42,0.492
				c0.055-0.021,0.135-0.339-0.066-0.928c-0.419-0.392-0.513-0.964-0.447-1.006c0.053-0.036,0.242,0.593,0.464,0.624
				c0.045-0.487,0.164-0.986,0.127-1.364c-0.008-0.099-0.172-0.604-0.634-1.021c-0.267-0.241-0.371-0.745-0.347-0.846
				c0.259,0.239,0.203,0.414,0.422,0.51c0.093-0.206,0.029-0.965-0.238-1.298c-0.153-0.252-0.08-0.217,0.103-0.064
				c0.238,0.283,0.124,0.261,0.329,0.379c0.452-1.063,0.042-1.27,0.073-1.345C16.859,16.1,17.18,16.663,17.452,16.446z
				 M16.031,13.794c-0.464,0.09-0.812,0.597-1.339,0.381c-0.069-0.045-0.213-0.085-0.194-0.187c0.094,0.052,0.243,0.087,0.347,0.102
				c0,0-0.283-0.235-0.033-0.522c-0.319,0.201-0.431,0.147-0.431,0.041c0-0.048,0.417-0.352,0.812-0.204
				c0.285,0.108,0.529,0.326,0.839,0.369V13.794z"/>
			<path fill="#FFFFFF" d="M9.759,3.504C8.87,3.846,6.704,3.559,6.704,3.559v8.331c1.899,0.129,4.372-0.848,5.597-0.767
				c1.267,0.083,2.346,0.668,2.346,0.668V3.64C14.646,3.64,12.784,2.338,9.759,3.504z M13.736,5.061
				c0.437,0.023,0.377,0.208,0.296,0.21C13.517,5.29,13.65,5.054,13.736,5.061z M13.746,5.339c0.435,0.036,0.337,0.255,0.265,0.246
				C13.545,5.523,13.666,5.333,13.746,5.339z M13.644,6.163l0.18,0.187v0.192l-0.135,0.121h-0.113l-0.11-0.114l-0.004-0.223
				L13.644,6.163z M12.168,4.756c0.108-0.169,0.443-0.436,0.74-0.424c0.293,0.013,0.427,0.217,0.549,0.301
				c-0.042,0.051-0.208,0.186-0.397,0.333c0.029,0.007,0.057,0.011,0.087,0.028c0.305,0.179,0.408,0.43,0.109,0.666
				c-0.164,0.132-0.43,0.28-0.718,0.285c-0.191,0.007-0.53-0.154-0.592-0.222c0.155-0.145,0.322-0.304,0.443-0.408
				C12.2,5.174,12.023,4.978,12.168,4.756z M11.733,7.879c-0.238,0.018-0.452-0.061-0.585-0.05c-0.062,0.007-0.106,0.024-0.117,0.09
				c-0.009,0.073-0.103,0.104-0.122,0.01c-0.021-0.091-0.046-0.479-0.046-0.591c0-0.114,0.104-0.125,0.123,0
				c0.021,0.12,0.057,0.207,0.151,0.312c0.072,0.081,0.539,0.195,0.71,0.06c0.138-0.111,0.106-0.353-0.039-0.446
				c-0.144-0.096-0.72-0.228-0.818-0.394c-0.169-0.281,0.132-0.518,0.264-0.592c0.206-0.115,0.445-0.079,0.527-0.077
				c0.082,0,0.188,0.026,0.195-0.06c0.006-0.088,0.072-0.08,0.081,0.01c0.026,0.253,0.05,0.102,0.044,0.368
				c0,0.123-0.044,0.124-0.098,0.031c-0.034-0.064-0.389-0.36-0.675-0.175c-0.243,0.159-0.151,0.3,0.072,0.36
				c0.244,0.078,0.604,0.021,0.718,0.344C12.238,7.42,12.017,7.857,11.733,7.879z M12.094,8.407c-0.105,0.1-0.19,0.193-0.281,0.295
				c-0.08-0.053-0.201-0.155-0.293-0.237c0.152-0.068,0.235-0.162,0.288-0.265C11.869,8.333,11.99,8.386,12.094,8.407z
				 M10.657,4.977c0.077-0.558,0.518-0.772,0.707-0.776c0.216,0.015,0.266,0.201,0.388,0.314c-0.185,0.152-0.487,0.448-0.665,0.629
				c0.044,0.094,0.25,0.448,0.691,0.336c0.202-0.045,0.268,0.041,0.09,0.127c-0.082,0.042-0.249,0.212-0.382,0.212
				C11.087,5.804,10.583,5.514,10.657,4.977z M9.591,4.401c0.145,0.115,0.234,0.115,0.307,0.197c0.093-0.052,0.258-0.151,0.331-0.21
				c0.068,0.08,0.195,0.21,0.245,0.271c0.067-0.065,0.147-0.01,0.072,0.063c-0.072,0.071-0.239,0.177-0.304,0.226
				c-0.086-0.049-0.191-0.204-0.244-0.244C9.974,4.725,9.923,4.752,9.875,4.779c0,0.1,0.005,1.01-0.005,1.111
				C9.742,5.899,9.632,5.907,9.542,5.887C9.53,5.755,9.55,5.03,9.544,4.913C9.533,4.769,9.406,4.759,9.237,4.708
				C9.333,4.593,9.511,4.464,9.591,4.401z M7.893,4.602c0.227-0.13,0.615-0.045,0.791,0.007c0.084,0.027,0.15,0.017,0.154-0.092
				c0.003-0.062,0.096-0.046,0.094,0c0,0.048-0.003,0.744-0.003,0.8C8.928,5.373,8.813,5.378,8.816,5.325
				c0-0.08-0.028-0.229-0.054-0.353c-0.039-0.185-0.52-0.521-0.867-0.069c-0.008,0.024-0.147,0.262-0.13,0.445
				C7.777,5.487,7.8,5.682,7.893,5.81c0.272,0.386,0.66,0.256,0.864-0.058C8.83,5.639,8.817,5.497,8.823,5.415
				c0-0.049,0.109-0.055,0.109,0c0,0.057-0.005,0.521-0.005,0.564C8.93,6.049,8.979,6.101,9.005,6.134
				C9.073,6.237,8.996,6.317,8.9,6.191C8.845,6.107,8.83,6.034,8.713,6.067C8.419,6.151,8.097,6.239,7.864,6.103
				C7.616,5.95,7.401,5.903,7.395,5.337C7.39,4.992,7.695,4.718,7.893,4.602z M7.432,6.935c0.135-0.202,0.454-0.394,0.671-0.474
				c0.068,0.081,0.151,0.206,0.251,0.338C8.253,6.879,8.148,6.98,8.087,7.055C8.042,7.001,7.782,6.614,7.6,6.886
				C7.5,7.029,7.395,7.452,7.733,7.713c0.164,0.125,0.338,0.166,0.563,0.128c-0.115,0.15-0.144,0.192-0.209,0.322
				C7.761,8.221,7.629,8.119,7.469,7.982C7.128,7.707,7.236,7.233,7.432,6.935z M8.47,9.969c0.083-0.082,0.186-0.053,0.092,0.055
				c-0.122,0.141-0.248,0.342-0.309,0.466C8.008,10.386,7.5,10.065,7.572,9.526c0.082-0.562,0.627-0.79,0.791-0.898
				C8.392,8.791,8.58,9.074,8.702,9.188c-0.184,0.149-0.608,0.504-0.77,0.626C8.02,9.976,8.357,10.094,8.47,9.969z M8.79,8.252
				c-0.173-0.078-0.305-0.227-0.31-0.395C8.476,7.685,8.593,7.586,8.72,7.469C8.697,7.452,8.678,7.436,8.652,7.415
				C8.617,7.384,8.57,7.106,8.604,7.03c0.083-0.193,0.359-0.417,0.55-0.435c0.128-0.014,0.236,0.246,0.35,0.37
				C9.471,7.001,9.471,7.769,9.471,7.842c0.026,0.044,0.116,0.095,0.153,0.059c0.062-0.059,0.102,0,0.049,0.051
				C9.625,8.001,9.373,8.217,9.31,8.289c-0.088-0.069-0.119-0.165-0.131-0.3C9.025,8.026,8.881,8.11,8.79,8.252z M10.229,10.124
				c-0.062,0.049-0.344,0.246-0.419,0.33c-0.1-0.186-0.117-0.318-0.076-0.502c0.031-0.151,0.004-0.561,0.004-0.653
				c0-0.092-0.14-0.121-0.2-0.174C9.453,9.185,9.442,9.197,9.37,9.266c0,0.123-0.016,0.984,0.002,1.097
				c-0.194,0.007-0.174-0.004-0.287-0.004c-0.01-0.166-0.004-0.83-0.013-0.972C9.062,9.245,8.94,9.141,8.868,9.058
				c0.154-0.12,0.238-0.211,0.343-0.311C9.304,8.892,9.345,9.03,9.428,9.09c0.11-0.093,0.294-0.208,0.376-0.299
				c0.08,0.039,0.22,0.123,0.231,0.411c0.006,0.285,0.045,0.734,0.045,0.836c0,0.05,0.015,0.034,0.099,0.017
				C10.258,10.032,10.289,10.071,10.229,10.124z M10.37,8.051c-0.083,0.074-0.266-0.042-0.333-0.154
				C9.931,7.721,9.964,7.305,9.979,6.967c0.014,0.002-0.06-0.081-0.13-0.097c-0.09-0.021-0.105-0.054,0.034-0.11
				c0.169-0.067,0.432-0.474,0.469-0.564c0.033-0.09,0.083-0.005,0.034,0.083c-0.105,0.2-0.062,0.434-0.044,0.503
				c0.011,0.033,0.331-0.012,0.398-0.012c0.044,0.002,0.039,0.137-0.002,0.134c-0.055-0.002-0.474,0.049-0.474,0.049
				c-0.029,0.014,0.034,0.672,0.076,0.722c0.006,0.007,0.138,0.122,0.188,0.073c0.062-0.059,0.124,0.004,0.049,0.065
				C10.538,7.843,10.466,7.974,10.37,8.051z M11.315,9.818c-0.039,0.035-0.211,0.245-0.249,0.35
				c-0.041,0.101-0.267,0.022-0.34-0.085c-0.115-0.172-0.066-0.52-0.076-0.857c0.023,0.008-0.217-0.107-0.107-0.189
				c0.13-0.094,0.348-0.499,0.378-0.591c0.027-0.094,0.082-0.061,0.073,0.039c-0.012,0.145-0.078,0.462-0.053,0.528
				c0.012,0.033,0.216,0.03,0.284,0.03c0.044,0,0.048,0.132,0.005,0.132c-0.055,0-0.283,0.033-0.283,0.033
				c-0.032,0.014-0.015,0.486,0.03,0.538c0.091,0.087,0.16,0.146,0.285,0.016C11.324,9.697,11.387,9.756,11.315,9.818z
				 M12.246,10.063l-0.145,0.147c-0.112-0.116-0.193-0.136-0.213-0.228L11.883,9.25l-0.23-0.119
				c-0.107,0.089-0.189,0.05-0.096-0.031l0.347-0.323l0.085-0.012L12.21,9.09l0.006,0.692c0.089,0.084,0.01,0.081,0.18,0.113
				L12.246,10.063z M12.321,7.652c-0.117-0.325,0.096-0.628,0.199-0.716c0.084-0.068,0.276-0.231,0.401-0.31
				c0.121,0.072,0.213,0.124,0.275,0.154c-0.022,0.059-0.049,0.176-0.177,0.183c-0.193,0.005-0.344-0.046-0.448,0.067
				c-0.104,0.111-0.023,0.428,0.108,0.549c0.097,0.093,0.364,0.213,0.414,0.103c0.065-0.14,0.16-0.068,0.067,0.055
				c-0.063,0.082-0.177,0.255-0.238,0.368C12.714,8.088,12.438,7.982,12.321,7.652z M14.017,10.046
				c-0.053,0.048-0.245,0.204-0.304,0.275c-0.086-0.067-0.231-0.142-0.325-0.256c-0.191,0.036-0.391,0.176-0.545,0.289
				c-0.174-0.076-0.231-0.249-0.238-0.419c0-0.179,0.092-0.323,0.219-0.453c-0.01-0.009-0.015-0.011-0.024-0.018
				c-0.037-0.031-0.096-0.347-0.05-0.412c0.06-0.089,0.34-0.356,0.53-0.375c0.128-0.013,0.32,0.265,0.432,0.389
				c-0.032,0.035,0.039,0.806,0.039,0.877c0.038,0.064,0.173,0.11,0.213,0.047C14.017,9.924,14.067,9.996,14.017,10.046z
				 M14.011,8.147l-0.195,0.167C13.704,8.2,13.625,8.169,13.606,8.08L13.6,7.324l-0.181-0.111c-0.105,0.093-0.189,0.053-0.096-0.031
				l0.351-0.323l0.081-0.01l0.152,0.225l-0.007,0.802c0.092,0.083,0.092,0.072,0.267,0.104L14.011,8.147z"/>
			<g>
				<g>
					<path fill="#FFFFFF" d="M13.048,10.037c-0.075-0.068-0.353-0.258-0.106-0.461c0.13,0.088,0.205,0.076,0.369,0.06
						c-0.007,0.089-0.013,0.169-0.013,0.206c0,0.04,0.015,0.069,0.026,0.103C13.239,9.975,13.131,9.994,13.048,10.037z"/>
					<path fill="#FFFFFF" d="M13.317,9.549c-0.142,0.004-0.264-0.04-0.418-0.176c-0.029-0.025-0.057-0.2-0.024-0.259
						c0.068-0.107,0.068-0.14,0.128-0.138c0.045,0,0.331,0.172,0.316,0.263C13.33,9.304,13.325,9.429,13.317,9.549z"/>
				</g>
				<g>
					<path fill="#FFFFFF" d="M12.919,5.75c-0.177,0.08-0.49-0.146-0.541-0.239c0.064-0.057,0.186-0.152,0.322-0.26
						c0.101,0.045,0.203,0.091,0.313,0.156C13.174,5.497,13.092,5.672,12.919,5.75z"/>
					<path fill="#FFFFFF" d="M12.6,4.593c0.093,0.013,0.297,0.122,0.418,0.236c-0.025,0.02-0.101,0.084-0.184,0.147
						c-0.047,0.01-0.096,0.014-0.146,0.009c-0.15-0.022-0.224-0.136-0.292-0.226C12.322,4.663,12.508,4.584,12.6,4.593z"/>
				</g>
				<g>
					<path fill="#FFFFFF" d="M7.893,9.673c-0.152-0.19-0.259-0.448,0.205-0.73c0.048,0.125,0.145,0.366,0.216,0.408
						C8.192,9.471,7.978,9.614,7.893,9.673z"/>
				</g>
				<g>
					<path fill="#FFFFFF" d="M11.208,4.381c0.05,0.125,0.178,0.211,0.249,0.255c-0.126,0.122-0.321,0.341-0.401,0.403
						C10.944,4.681,10.985,4.559,11.208,4.381z"/>
				</g>
				<g>
					<path fill="#FFFFFF" d="M9.171,7.762c-0.001,0.041,0,0.076,0,0.114c-0.042,0.01-0.088,0.02-0.146,0.048
						C8.948,7.857,8.577,7.736,8.821,7.542C8.97,7.628,9.026,7.56,9.171,7.471C9.172,7.596,9.171,7.715,9.171,7.762z"/>
					<path fill="#FFFFFF" d="M8.946,6.834c0.047,0.002,0.22,0.211,0.207,0.302C9.163,7.187,9.17,7.229,9.172,7.327
						c-0.213,0.139-0.257,0.196-0.404,0.03C8.694,7.272,8.701,7.112,8.734,7.054C8.801,6.95,8.891,6.833,8.946,6.834z"/>
				</g>
			</g>
			<path fill="#FFFFFF" d="M15.142,13.548c0.12,0.034,0.403,0.193,0.504,0.261l-0.504,0.255c0,0,0.141-0.153,0.141-0.26
				C15.281,13.656,15.142,13.548,15.142,13.548z"/>
		</g>
	</g>
</g>
<g>
</g>
<g>
</g>
<g>
</g>
<g>
</g>
<g>
</g>
<g>
</g>
</svg>
