<?xml version="1.0" encoding="utf-8"?>
<!-- Generator: Adobe Illustrator 24.0.3, SVG Export Plug-In . SVG Version: 6.00 Build 0)  -->
<svg version="1.1" id="Layer_1" xmlns="http://www.w3.org/2000/svg" xmlns:xlink="http://www.w3.org/1999/xlink" x="0px" y="0px"
	 viewBox="0 0 262.7 37.3" style="enable-background:new 0 0 262.7 37.3;" xml:space="preserve">
<style type="text/css">
	.st0{fill:#FFFFFF;}
</style>
<g>
	<g>
		<path class="st0" d="M194.7,29.3c-0.7,0.6-1.5,0.9-2.4,0.9c-1.6,0-2.8-0.9-2.8-2.4v0c0-1.1,0.6-1.8,1.6-2.3
			c-0.4-0.6-0.6-1.1-0.6-1.7v0c0-1.1,0.9-2.2,2.5-2.2c1.4,0,2.3,0.9,2.3,2.1v0c0,1.1-0.7,1.8-1.8,2.2l1.1,1.1
			c0.3-0.4,0.5-0.9,0.8-1.4l1.3,0.7c-0.3,0.6-0.7,1.2-1.1,1.8l1.2,1.2l-1.3,0.9L194.7,29.3z M193.7,28.3l-1.6-1.6
			c-0.5,0.3-0.8,0.7-0.8,1.1v0c0,0.6,0.5,1,1.2,1C192.9,28.7,193.3,28.6,193.7,28.3z M193.8,23.9L193.8,23.9c0-0.5-0.3-0.8-0.8-0.8
			c-0.5,0-0.8,0.3-0.8,0.8v0c0,0.4,0.1,0.6,0.5,1C193.4,24.7,193.8,24.4,193.8,23.9z"/>
		<path class="st0" d="M201.7,21.8h6.4v1.7h-4.5v1.8h4v1.7h-4v3.2h-1.8V21.8z"/>
		<path class="st0" d="M209.2,23.7h1.8V25c0.4-0.9,1-1.5,2-1.4v1.9H213c-1.2,0-1.9,0.7-1.9,2.3v2.4h-1.8V23.7z"/>
		<path class="st0" d="M214.1,21.4h1.9V23h-1.9V21.4z M214.2,23.7h1.8v6.4h-1.8V23.7z"/>
		<path class="st0" d="M217.3,27L217.3,27c0-1.8,1.3-3.4,3.2-3.4c2.1,0,3.1,1.7,3.1,3.5c0,0.1,0,0.3,0,0.5h-4.4
			c0.2,0.8,0.8,1.3,1.6,1.3c0.6,0,1-0.2,1.6-0.7l1,0.9c-0.6,0.7-1.5,1.2-2.6,1.2C218.7,30.3,217.3,28.9,217.3,27z M221.8,26.4
			c-0.1-0.8-0.6-1.4-1.3-1.4c-0.8,0-1.2,0.5-1.4,1.4H221.8z"/>
		<path class="st0" d="M224.8,23.7h1.8v0.9c0.4-0.5,1-1,1.9-1c1.4,0,2.2,0.9,2.2,2.4v4.1h-1.8v-3.6c0-0.9-0.4-1.3-1.1-1.3
			s-1.1,0.4-1.1,1.3v3.6h-1.8V23.7z"/>
		<path class="st0" d="M231.8,26.9L231.8,26.9c0-2.2,1.4-3.3,2.9-3.3c1,0,1.6,0.4,2,1v-3.1h1.8v8.7h-1.8v-0.9c-0.4,0.6-1,1-2,1
			C233.2,30.2,231.8,29.1,231.8,26.9z M236.7,26.9L236.7,26.9c0-1.1-0.7-1.8-1.6-1.8c-0.8,0-1.6,0.7-1.6,1.8v0
			c0,1.1,0.7,1.8,1.6,1.8C236,28.7,236.7,28,236.7,26.9z"/>
		<path class="st0" d="M239.5,29.3l0.8-1.2c0.7,0.5,1.4,0.8,2,0.8c0.5,0,0.8-0.2,0.8-0.5v0c0-0.4-0.6-0.5-1.3-0.7
			c-0.9-0.3-1.9-0.7-1.9-1.9v0c0-1.3,1-2,2.3-2c0.8,0,1.7,0.3,2.4,0.7l-0.7,1.3c-0.6-0.4-1.3-0.6-1.7-0.6c-0.4,0-0.7,0.2-0.7,0.4v0
			c0,0.4,0.6,0.5,1.3,0.8c0.9,0.3,1.9,0.7,1.9,1.9v0c0,1.4-1.1,2.1-2.4,2.1C241.4,30.2,240.4,29.9,239.5,29.3z"/>
	</g>
	<g>
		<path class="st0" d="M192.9,7h1.7l3.6,8.4h-1.9l-0.8-1.9H192l-0.8,1.9h-1.9L192.9,7z M194.9,11.9l-1.1-2.7l-1.1,2.7H194.9z"/>
		<path class="st0" d="M199.3,6.7h1.8v8.7h-1.8V6.7z"/>
		<path class="st0" d="M202.6,13.2V9h1.8v3.6c0,0.9,0.4,1.3,1.1,1.3s1.1-0.4,1.1-1.3V9h1.8v6.4h-1.8v-0.9c-0.4,0.5-1,1-1.9,1
			C203.4,15.5,202.6,14.6,202.6,13.2z"/>
		<path class="st0" d="M210,9h1.8v0.9c0.4-0.5,1-1,1.9-1c0.8,0,1.5,0.4,1.8,1c0.6-0.7,1.2-1,2.1-1c1.3,0,2.2,0.8,2.2,2.3v4.2h-1.8
			v-3.6c0-0.9-0.4-1.3-1.1-1.3c-0.7,0-1.1,0.4-1.1,1.3v3.6H214v-3.6c0-0.9-0.4-1.3-1.1-1.3c-0.7,0-1.1,0.4-1.1,1.3v3.6H210V9z"/>
		<path class="st0" d="M221.2,9h1.8v0.9c0.4-0.5,1-1,1.9-1c1.4,0,2.2,0.9,2.2,2.4v4.1h-1.8v-3.6c0-0.9-0.4-1.3-1.1-1.3
			S223,11,223,11.9v3.6h-1.8V9z"/>
		<path class="st0" d="M228.6,6.7h1.9v1.6h-1.9V6.7z M228.6,9h1.8v6.4h-1.8V9z"/>
	</g>
	<polyline class="st0" points="181.1,1.8 181.1,35.2 181.8,35.2 181.8,1.8 	"/>
	<path class="st0" d="M172.2,3.5L172.2,3.5L172.2,3.5c0-0.5,0-1,0-1.6V1.8l-0.1,0c-0.1,0-0.9,0-1.5,0h-2.1c-0.4,0-0.8,0-1.3,0l0,0
		l0,0c-0.1,0-0.1,0.2-0.1,0.2c0,0.1,0,0.2,0.1,0.2l0.2,0c0.6,0.1,0.6,0.1,0.6,1.4v4.2c0,1.2,0,1.3-0.6,1.4l-0.3,0l0,0
		c-0.1,0.1-0.1,0.2-0.1,0.3c0,0.1,0.1,0.2,0.1,0.2l0,0l0,0c0.5,0,0.9,0,1.4,0c0.5,0,0.9,0,1.5,0l0,0l0,0c0.1,0,0.1-0.1,0.1-0.2
		c0-0.1,0-0.2-0.1-0.2l-0.4,0C169,9.2,169,9.1,169,7.9V6.2c0-0.2,0-0.2,0.3-0.2h0.8c0.4,0,0.7,0,0.9,0.1c0.2,0.1,0.3,0.2,0.3,0.4
		l0.1,0.5l0,0c0.1,0.1,0.4,0.1,0.4,0l0,0v0c0-0.1,0-0.3,0-0.4c0-0.2,0-0.4,0-0.7c0-0.2,0-0.5,0-0.7c0-0.2,0-0.3,0-0.5v0l0,0
		c-0.1-0.1-0.2-0.1-0.2-0.1c-0.1,0-0.2,0-0.2,0.1L171.3,5c-0.1,0.3-0.1,0.3-0.2,0.3c-0.1,0-0.5,0.1-1,0.1h-0.8c-0.3,0-0.3,0-0.3-0.2
		V2.8c0-0.4,0-0.4,0.3-0.4h0.7c0.5,0,0.9,0,1.1,0.1c0.5,0.1,0.6,0.5,0.7,1l0,0l0,0c0,0,0.1,0.1,0.2,0.1
		C172.1,3.6,172.2,3.6,172.2,3.5L172.2,3.5z M164.5,5.7c0-2-1.3-4.1-4.1-4.1c-2.4,0-4.2,1.8-4.2,4.2c0,2,1.4,4,4.2,4
		C162.7,9.9,164.5,8.1,164.5,5.7L164.5,5.7z M163.1,6.1c0,2.4-1.4,3.2-2.6,3.2c-2.4,0-3-2.4-3-3.8c0-2.4,1.4-3.3,2.7-3.3
		C162.4,2.2,163.1,4.3,163.1,6.1L163.1,6.1z M153.7,25.8c0,5,3.7,9.4,9.9,9.4c5.4,0,9.6-4.1,9.6-9.7c0-4.9-3.2-9.5-9.6-9.5
		C157.8,16,153.7,20.3,153.7,25.8L153.7,25.8z M156.4,24.9c0-6.1,3.8-8.1,6.6-8.1c5.3,0,7.3,4.9,7.3,9.5c0,5.5-3.2,8-6.5,8
		C158.4,34.4,156.4,29,156.4,24.9L156.4,24.9z M150.3,2.3c0.1-0.1,0.1-0.1,0.1-0.2c0-0.1-0.1-0.2-0.1-0.2l0,0l0,0
		c-0.8,0-1.3,0-2.2,0l0,0l0,0c-0.1,0-0.1,0.1-0.1,0.2c0,0.1,0,0.2,0.1,0.3l0,0l0.2,0c0.2,0,0.4,0.1,0.4,0.1c0,0.2-0.4,0.9-0.7,1.4
		l-0.1,0.1c-0.3,0.5-0.6,1.1-1,1.8c-0.3-0.6-0.6-1.2-0.9-1.7c-0.1-0.2-0.2-0.5-0.3-0.7c-0.1-0.2-0.3-0.8-0.3-0.9
		c0,0,0.1-0.1,0.4-0.1l0.2,0l0,0C146,2.2,146,2.1,146,2c0-0.1-0.1-0.1-0.1-0.2l0,0l0,0c-0.3,0-0.7,0-1.2,0c-0.5,0-1,0-1.3,0l0,0l0,0
		c-0.1,0-0.1,0.1-0.1,0.2c0,0.1,0,0.2,0.1,0.3l0,0l0.4,0.1c0.3,0.1,0.5,0.1,0.9,0.8l1.4,2.7c0.3,0.6,0.4,0.8,0.4,1.4v0.6
		c0,1.3,0,1.3-0.6,1.4l-0.4,0l0,0C145,9.3,145,9.4,145,9.5c0,0.1,0.1,0.1,0.1,0.2l0,0l0,0c0.6,0,1,0,1.5,0c0.5,0,0.9,0,1.6,0l0,0
		l0,0c0.1,0,0.1-0.1,0.1-0.2c0-0.1,0-0.2-0.1-0.3l0,0l-0.5,0c-0.5,0-0.6-0.1-0.6-1.4V7.2c0-0.9,0-1,0.5-1.8l0.7-1.3
		c0.1-0.1,0.1-0.2,0.2-0.3c0.5-0.8,0.8-1.4,1.3-1.5L150.3,2.3L150.3,2.3L150.3,2.3z M146.2,16.4c-0.5-0.1-1.9-0.4-3.5-0.4
		c-4.2,0-6.9,1.3-8.8,3.3c-1.7,1.8-2.5,4.2-2.5,6.6c0,2.4,0.9,4.6,2.6,6.3c2.1,2.2,5.2,3.1,8.5,3.1c1.5,0,3.5-0.3,5-0.7
		c0.5-0.1,1-0.3,1.4-0.3c0.1-0.1,0.1-0.3,0-0.3c-0.5-0.2-0.7-0.9-0.7-2v-1.6c0-1.4,0-2.2,1.2-2.3l0.4-0.1c0.2-0.2,0.2-0.6,0-0.7
		c-0.9,0.1-1.9,0.1-2.9,0.1c-1.6,0-3.2,0-4-0.1c-0.2,0.1-0.2,0.6,0,0.7l1.2,0.1c1.7,0.2,1.8,0.4,1.8,2.7V32c0,0.9-0.1,1.4-0.3,1.6
		c-0.3,0.5-1.3,0.8-3.1,0.8c-5.6,0-8.3-4.2-8.3-9.5c0-4.2,2.4-8,7.8-8c2.8,0,4.9,0.9,5.7,3.9c0.2,0.2,0.7,0.1,0.8-0.1
		c-0.3-1.7-0.4-3.1-0.4-4C147.6,16.7,146.8,16.5,146.2,16.4L146.2,16.4z M141.5,1.7L141.5,1.7L141.5,1.7c0-0.1-0.2-0.2-0.2-0.2
		c0,0-0.1,0-0.1,0l0,0l0,0c-0.1,0.3-0.2,0.3-0.8,0.3h-4.8c-0.5,0-0.8,0-0.8-0.3l0,0l0,0c0,0-0.1,0-0.2,0c0,0-0.1,0-0.2,0l0,0l0,0
		c-0.1,0.5-0.3,1.2-0.4,1.7l0,0l0,0c0.1,0.1,0.3,0.2,0.4,0.1l0,0l0,0c0.1-0.3,0.2-0.5,0.5-0.8c0.3-0.2,0.8-0.3,1.4-0.3h0.6
		c0.3,0,0.3,0,0.3,0.3v5.2c0,1.3-0.1,1.3-0.6,1.4l-0.4,0l0,0c-0.1,0-0.1,0.1-0.1,0.2c0,0.1,0,0.2,0.1,0.2l0,0l0,0c0.7,0,1.1,0,1.6,0
		c0.5,0,0.8,0,1.5,0l0,0l0,0c0.1,0,0.1-0.2,0.1-0.2c0-0.1,0-0.2-0.1-0.2l-0.4,0c-0.6,0-0.6-0.1-0.6-1.4V2.7c0-0.1,0-0.2,0-0.2
		c0,0,0.1,0,0.2,0h0.8c0.6,0,1,0.1,1.3,0.3c0.1,0.1,0.2,0.4,0.3,0.8l0,0l0,0c0,0.1,0.1,0.1,0.2,0.1c0.1,0,0.2,0,0.2-0.1l0,0l0,0
		C141.3,3.1,141.4,2.1,141.5,1.7L141.5,1.7z M131,7.8V3.7c0-1.3,0-1.3,0.6-1.4l0.3,0l0,0c0.1,0,0.1-0.1,0.1-0.2c0,0,0-0.2-0.1-0.2
		l0,0l0,0c-0.5,0-1,0-1.4,0c-0.5,0-0.9,0-1.5,0l0,0l0,0c-0.1,0-0.1,0.2-0.1,0.2c0,0.1,0,0.2,0.1,0.2l0,0l0.3,0
		c0.6,0.1,0.6,0.1,0.6,1.4v4.1c0,1.2,0,1.3-0.6,1.4l-0.3,0l0,0c-0.1,0.1-0.1,0.2-0.1,0.3c0,0.1,0.1,0.2,0.1,0.2l0,0l0,0
		c0.6,0,1,0,1.5,0c0.5,0,0.8,0,1.4,0l0,0l0,0c0.1,0,0.1-0.2,0.1-0.2c0-0.1,0-0.2-0.1-0.2l-0.3,0C131,9.1,131,9.1,131,7.8L131,7.8z
		 M129,34.1c-1.2-0.1-1.6-0.6-2.4-2.9L122.9,20c-0.4-1.2-0.9-2.5-1.2-3.7c-0.1-0.2-0.2-0.2-0.4-0.2c-0.3,0.4-0.8,0.9-1.4,1.1
		c0.1,0.4-0.1,1-0.5,2l-2.8,7.5c-1.2,3.1-1.9,4.9-2.4,6.2c-0.4,1-1,1.3-1.7,1.4l-0.9,0.1c-0.2,0.1-0.1,0.6,0.1,0.7
		c0.8,0,1.7-0.1,2.7-0.1c1.3,0,2.2,0,2.9,0.1c0.2-0.1,0.2-0.6,0.1-0.7l-0.9-0.1c-0.7-0.1-0.8-0.2-0.8-0.6c0-0.3,0.2-1.1,0.6-2.3
		l1-2.9c0.2-0.6,0.4-0.7,1.1-0.7h4.2c0.8,0,0.9,0.1,1.1,0.7l1.2,3.8c0.2,0.7,0.4,1.2,0.4,1.5c0,0.3-0.4,0.4-1,0.5l-0.8,0.1
		c-0.2,0.1-0.2,0.6,0.1,0.7c0.8,0,1.9-0.1,3.2-0.1c1.3,0,2.2,0,3.4,0.1c0.1-0.1,0.2-0.6,0-0.7L129,34.1L129,34.1z M121.9,26.5h-3.4
		c-0.8,0-0.8,0-0.6-0.7l1.8-4.8c0.3-0.8,0.6-1.5,0.7-1.6h0.1c0.2,0.3,0.4,1.1,0.6,1.8l1.5,4.5C122.7,26.4,122.7,26.5,121.9,26.5
		L121.9,26.5z M123,3.4c0-0.4,0.2-1.2,1.3-1.2c1,0,1.3,0.7,1.5,1.2l0,0c0,0,0.1,0.1,0.2,0.1c0.1,0,0.2,0,0.3-0.1l0,0v0
		c0-0.5-0.1-1.1-0.2-1.4l0-0.1H126c-0.1,0-0.2,0-0.4-0.1c-0.3-0.1-0.7-0.2-1.1-0.2c-1.5,0-2.5,0.8-2.5,2.1c0,1.1,0.8,1.7,1.3,2.1
		l1.1,0.7c0.8,0.5,0.9,1,0.9,1.5c0,0.6-0.4,1.2-1.4,1.2c-1.2,0-1.7-0.9-1.9-1.7l0,0c0-0.1-0.1-0.1-0.2-0.1c-0.1,0-0.2,0-0.2,0.1l0,0
		l0,0c0,0.5,0.2,1.4,0.3,1.7l0,0l0,0c0.2,0.1,0.9,0.4,1.9,0.4c1.5,0,2.6-0.9,2.6-2.2c0-0.9-0.5-1.7-1.5-2.3L124,4.8
		C123.6,4.5,123,4.1,123,3.4L123,3.4z M120.1,9.7c0.1,0,0.1-0.1,0.1-0.2c0-0.1,0-0.1-0.1-0.1l0,0c-0.3,0-0.6-0.1-0.7-0.3
		c-0.8-0.7-1.4-1.6-2.3-3.1c-0.1-0.1-0.1-0.1-0.1-0.2c0.4-0.2,1.5-0.7,1.5-2c0-1-0.5-1.5-1-1.7c-0.6-0.3-1.3-0.4-2-0.4
		c-1.1,0-1.9,0-2.6,0.1l0,0c-0.1,0-0.1,0.1-0.1,0.2c0,0.1,0,0.2,0.1,0.2l0,0l0.4,0c0.4,0,0.4,0.1,0.4,1.3v4.2c0,1.2,0,1.3-0.6,1.4
		l-0.3,0l0,0c-0.1,0.1-0.1,0.2-0.1,0.3c0,0.1,0.1,0.1,0.1,0.2l0,0l0,0c0.5,0,0.9,0,1.4,0c0.5,0,0.9,0,1.4,0l0,0l0,0
		c0.1,0,0.1-0.2,0.1-0.2c0-0.1,0-0.2-0.1-0.2l0,0l-0.3,0c-0.6-0.1-0.6-0.1-0.6-1.4V6.4c0-0.2,0-0.2,0.5-0.2c0.4,0,0.6,0.1,0.7,0.3
		c0.2,0.3,0.4,0.6,0.6,0.9c0.2,0.3,0.4,0.6,0.6,0.9c0.8,1.1,1.4,1.5,2.5,1.5C119.8,9.8,120,9.8,120.1,9.7L120.1,9.7L120.1,9.7z
		 M116.6,5.4c-0.3,0.3-0.8,0.3-1.1,0.3c-0.5,0-0.7,0-0.7,0c0,0,0-0.2,0-0.3V2.6c0-0.3,0-0.3,0.7-0.3c1.3,0,1.8,0.9,1.8,1.7
		C117.2,4.7,117,5.1,116.6,5.4L116.6,5.4z M110.6,8L110.6,8L110.6,8c-0.1-0.2-0.2-0.2-0.3-0.2c-0.1,0-0.1,0-0.1,0l0,0
		c-0.3,0.7-0.6,1-0.8,1.1c-0.2,0.1-0.6,0.2-1.4,0.2c-1,0-1.2-0.1-1.3-0.2c-0.2-0.2-0.2-0.6-0.2-1.1V6.1c0-0.2,0-0.2,0.3-0.2h0.7
		c0.4,0,0.7,0,0.9,0.1c0.2,0,0.2,0.1,0.3,0.4l0.1,0.5l0,0c0,0.1,0.1,0.1,0.2,0.1c0.1,0,0.2,0,0.2-0.1l0,0v0c0-0.1,0-0.3,0-0.4
		c0-0.2,0-0.5,0-0.7c0-0.2,0-0.5,0-0.7c0-0.2,0-0.3,0-0.5v0l0,0c0-0.1-0.1-0.1-0.2-0.1c-0.1,0-0.2,0-0.2,0.1l-0.1,0.5
		c-0.1,0.3-0.1,0.3-0.2,0.3c-0.1,0-0.5,0.1-1,0.1h-0.7c-0.3,0-0.3,0-0.3-0.2V2.8c0-0.4,0-0.4,0.3-0.4h0.8c0.5,0,0.9,0,1.1,0.1
		c0.5,0.1,0.6,0.5,0.8,1l0,0.1l0,0c0,0,0.1,0.1,0.2,0.1c0.1,0,0.2,0,0.2-0.1l0,0l0-0.2c-0.1-0.7-0.1-1.2-0.2-1.4l0-0.1l-0.1,0
		c-0.1,0-0.8,0-1.5,0h-2.2c-0.4,0-0.8,0-1.4,0l0,0l0,0c-0.1,0-0.1,0.2-0.1,0.2c0,0.1,0,0.2,0.1,0.2l0.2,0c0.6,0.1,0.6,0.1,0.6,1.4
		v4.2c0,1.3-0.1,1.3-0.6,1.4l-0.4,0l0,0c-0.1,0.1-0.1,0.2-0.1,0.3c0,0.1,0.1,0.2,0.1,0.2l0,0l0,0c0.7,0,1.1,0,1.6,0h1c1,0,2,0,3.1,0
		l0.1,0l0-0.1C110.3,9.3,110.5,8.4,110.6,8L110.6,8z M102.7,2.3c0.1-0.1,0.1-0.2,0.1-0.2c0-0.1,0-0.1-0.1-0.2l0,0l0,0
		c-0.4,0-0.7,0-1.1,0c-0.5,0-0.9,0-1.2,0l0,0l0,0c-0.1,0-0.1,0.1-0.1,0.2c0,0.1,0,0.2,0.1,0.2l0,0l0.2,0c0.4,0,0.4,0.1,0.4,0.1
		c0,0.1,0,0.2-0.1,0.4c-0.2,0.5-0.8,1.8-1.1,2.6c-0.1,0.2-0.2,0.5-0.3,0.7c-0.2,0.5-0.5,1.2-0.7,1.7c-0.5-1.3-1.1-2.5-1.6-3.8
		c-0.3-0.8-0.5-1.4-0.6-1.6c0,0,0.1-0.1,0.5-0.1l0.2,0l0,0c0.1-0.1,0.1-0.1,0.1-0.2c0-0.1-0.1-0.2-0.1-0.2l0,0l0,0
		c-0.5,0-0.9,0-1.4,0c-0.5,0-0.9,0-1.2,0l0,0l0,0c-0.1,0-0.1,0.1-0.1,0.2c0,0.1,0,0.2,0.1,0.2l0,0l0.2,0c0.5,0.1,0.6,0.3,0.9,0.9
		l2,5c0.2,0.6,0.4,1.1,0.5,1.5l0,0l0,0c0.1,0,0.1,0,0.2,0c0.1,0,0.1,0,0.2,0l0,0l0,0c0.2-0.6,0.8-2,1.2-3l0.6-1.4
		c0.5-1.2,1-2.1,1.3-2.7c0.1-0.2,0.3-0.3,0.5-0.4L102.7,2.3L102.7,2.3L102.7,2.3z M95.1,18.4c-2.1,1.6-3.5,4.3-3.5,7.4
		c0,3.6,1.7,6.1,3.9,7.6c2,1.4,4.4,1.9,6.9,1.9c1.8,0,3.8-0.4,4.4-0.6c0.3-0.1,0.6-0.2,1-0.3c0.4-0.5,1.1-2.4,1.3-3.8
		c-0.1-0.2-0.5-0.2-0.7-0.1c-0.6,1.6-2.2,4-5.8,4c-4.6,0-8.3-3.2-8.3-9.1c0-5.8,3.6-8.4,7.9-8.4c4,0,5.3,2.2,5.7,4.1
		c0.2,0.2,0.6,0.1,0.8-0.1c-0.2-1.7-0.4-3.4-0.4-4.1c-0.3,0-0.4,0-0.8-0.1c-1.3-0.4-3.4-0.7-4.9-0.7C99.7,16,97.2,16.8,95.1,18.4
		L95.1,18.4z M91.6,7.8V3.7c0-1.3,0-1.3,0.6-1.4l0.3,0l0,0c0.1,0,0.1-0.1,0.1-0.2c0,0,0-0.2-0.1-0.2l0,0l0,0c-0.5,0-1,0-1.4,0
		c-0.5,0-0.9,0-1.5,0l0,0l0,0c-0.1,0-0.1,0.2-0.1,0.2c0,0.1,0,0.2,0.1,0.2l0,0l0.3,0c0.6,0,0.6,0.1,0.6,1.4v4.1c0,1.2,0,1.3-0.6,1.4
		l-0.3,0l0,0c-0.1,0.1-0.1,0.2-0.1,0.3c0,0.1,0.1,0.2,0.1,0.2l0,0l0,0c0.6,0,1,0,1.5,0c0.5,0,0.9,0,1.4,0l0,0l0,0
		c0.1,0,0.1-0.2,0.1-0.2c0-0.1,0-0.2-0.1-0.2l-0.3,0C91.6,9.1,91.6,9.1,91.6,7.8L91.6,7.8z M85.8,30.6v-9.9c0-2.9,0.1-3.4,1.7-3.6
		l0.7-0.1c0.2-0.1,0.1-0.6-0.1-0.7c-1.4,0.1-2.3,0.1-3.4,0.1c-1.2,0-2.1,0-3.5-0.1c-0.2,0.1-0.2,0.6-0.1,0.7l0.7,0.1
		c1.6,0.1,1.7,0.6,1.7,3.6v9.9c0,2.9-0.1,3.3-1.7,3.5l-0.7,0.1c-0.2,0.2-0.1,0.6,0.1,0.7c1.4-0.1,2.3-0.1,3.5-0.1
		c1.1,0,2.1,0,3.4,0.1c0.2-0.1,0.2-0.6,0.1-0.7l-0.7-0.1C85.8,33.9,85.8,33.5,85.8,30.6L85.8,30.6z M87.2,2.3
		c0.1-0.1,0.1-0.1,0.1-0.2c0-0.1-0.1-0.2-0.1-0.2l0,0l0,0c-0.4,0-0.7,0-1.2,0c-0.4,0-0.8,0-1.4,0l0,0l0,0c-0.1,0-0.1,0.1-0.1,0.2
		c0,0.1,0,0.2,0.1,0.3l0,0l0.2,0c0.4,0,0.6,0.1,0.7,0.2c0.1,0.2,0.2,1.1,0.2,2.3v2.5c0,0.1,0,0.2,0,0.3c-0.4-0.4-0.8-0.9-1.3-1.5
		l-1.6-1.8c-1.1-1.3-1.8-2.1-1.9-2.5l0-0.1l-0.1,0c-0.1,0-0.3,0-0.5,0c-0.2,0-0.8,0-1.3,0l0,0l0,0c-0.1,0-0.1,0.1-0.1,0.2
		c0,0.1,0,0.2,0.1,0.3l0,0l0.2,0c0.3,0,0.5,0.1,0.7,0.2c0.2,0.2,0.2,0.4,0.2,0.8l0,3.5c0,0.6,0,1.9-0.1,2.2c0,0.1-0.1,0.1-0.4,0.2
		l-0.3,0l0,0c-0.1,0.1-0.1,0.1-0.1,0.2c0,0.1,0,0.2,0.1,0.2l0,0l0,0c0.4,0,0.7,0,1.2,0c0.4,0,0.8,0,1.4,0l0,0l0,0
		c0.1,0,0.1-0.1,0.1-0.2c0-0.1,0-0.2-0.1-0.2l0,0l-0.4,0c-0.3,0-0.5-0.1-0.5-0.2c-0.1-0.2-0.2-1.1-0.2-2.4V4.2c0-0.2,0-0.4,0-0.6
		c0.2,0.2,0.5,0.6,0.8,0.9c0.2,0.2,0.4,0.4,0.5,0.6l2.7,3.1c0.9,1,1.3,1.5,1.5,1.7l0,0h0c0.2,0,0.3-0.1,0.3-0.2l0,0l0,0
		c0-0.1,0-0.6,0-2l0-2.9c0-0.6,0-1.8,0.2-2.2c0,0,0.2-0.1,0.6-0.2L87.2,2.3L87.2,2.3L87.2,2.3z M76.8,2.2c0.1-0.1,0.1-0.2,0.1-0.2
		c0-0.1,0-0.1-0.1-0.2l0,0l0,0c-0.4,0-0.7,0-1.2,0c-0.4,0-0.9,0-1.3,0l0,0l0,0C74.1,1.9,74,1.9,74,2c0,0.1,0,0.2,0.1,0.2l0,0l0.3,0
		c0.3,0,0.4,0.1,0.5,0.2c0.1,0.2,0.2,1.1,0.2,2.4v1.3c0,1.4-0.4,3-2.2,3c-1.5,0-2.3-1-2.3-3V3.7c0-1.2,0-1.3,0.6-1.4l0.3,0l0,0
		c0.1,0,0.1-0.1,0.1-0.2c0-0.1,0-0.2-0.1-0.2l0,0l0,0c-0.5,0-0.9,0-1.4,0c-0.5,0-0.9,0-1.4,0l0,0l0,0c-0.1,0-0.1,0.1-0.1,0.2
		c0,0.1,0,0.2,0.1,0.2l0,0l0.3,0c0.6,0,0.6,0.1,0.6,1.4v2.7c0,1.4,0.3,2.3,0.9,2.8c0.5,0.4,1.3,0.7,2.2,0.7c0.9,0,1.8-0.3,2.3-0.9
		c0.6-0.6,0.8-1.5,0.8-2.8V4.9c0-0.6,0-2,0.2-2.3c0.1-0.1,0.3-0.2,0.5-0.2L76.8,2.2L76.8,2.2L76.8,2.2z M63.5,17.1
		c0.2-0.1,0.1-0.6-0.1-0.7c-1.2,0.1-2.1,0.1-3.2,0.1c-1.2,0-2.1-0.1-3.5-0.1c-0.2,0.1-0.2,0.6-0.1,0.7l0.7,0.1
		c1.4,0.1,1.6,0.6,1.6,3.5v10c0,2.9-0.1,3.2-1.6,3.5L57,34.2c-0.2,0.2-0.1,0.6,0.1,0.7c1.1,0,2-0.1,3.2-0.1c1.1,0,2,0,3.5,0.1
		c0.2-0.1,0.2-0.6,0.1-0.7L63,34.1c-1.6-0.2-1.7-0.6-1.7-3.5v-3.9c0-0.8,0.1-0.9,1.4-0.9h7.9c1.3,0,1.4,0.1,1.4,0.9v3.9
		c0,2.9,0,3.2-1.7,3.5l-0.5,0.1c-0.2,0.2-0.1,0.6,0.1,0.7c1.2-0.1,2.2-0.1,3.4-0.1c1.1,0,2,0,3.4,0.1c0.2-0.1,0.2-0.6,0.1-0.7
		L76,34.1c-1.6-0.2-1.7-0.6-1.7-3.5v-10c0-2.9,0.1-3.3,1.7-3.5l0.6-0.1c0.2-0.1,0.1-0.6-0.1-0.7c-1.3,0.1-2.2,0.1-3.3,0.1
		c-1.1,0-2.1,0-3.4-0.1c-0.2,0.1-0.2,0.6-0.1,0.7l0.5,0.1c1.6,0.2,1.7,0.6,1.7,3.5v3.2c0,0.9-0.1,0.9-1.4,0.9h-7.9
		c-1.3,0-1.4,0-1.4-0.9v-3.2c0-2.9,0.1-3.3,1.7-3.5L63.5,17.1L63.5,17.1z M62.4,8L62.4,8L62.4,8c-0.1-0.2-0.2-0.2-0.3-0.2
		c-0.1,0-0.1,0-0.1,0l0,0c-0.3,0.7-0.6,1-0.8,1.1c-0.2,0.1-0.6,0.2-1.4,0.2c-1,0-1.2-0.1-1.3-0.2c-0.2-0.2-0.2-0.6-0.2-1.1V6.1
		c0-0.2,0-0.2,0.3-0.2h0.7c0.4,0,0.7,0,0.9,0.1c0.2,0,0.2,0.1,0.3,0.4l0.1,0.5l0,0c0,0.1,0.1,0.1,0.2,0.1c0.1,0,0.2,0,0.2-0.1l0,0v0
		c0-0.1,0-0.3,0-0.4c0-0.2,0-0.5,0-0.7c0-0.2,0-0.5,0-0.7c0-0.2,0-0.3,0-0.5v0l0,0c0-0.1-0.1-0.1-0.2-0.1c-0.1,0-0.2,0-0.2,0.1
		l-0.1,0.5c-0.1,0.3-0.1,0.3-0.2,0.3c-0.1,0-0.5,0.1-1,0.1h-0.7c-0.3,0-0.3,0-0.3-0.2V2.8c0-0.4,0-0.4,0.3-0.4h0.8
		c0.5,0,0.9,0,1.1,0.1c0.5,0.1,0.6,0.5,0.8,1l0,0.1l0,0c0,0,0.1,0.1,0.2,0.1c0.1,0,0.2,0,0.2-0.1l0,0l0-0.2
		c-0.1-0.7-0.1-1.2-0.2-1.4l0-0.1l-0.1,0c-0.1,0-0.8,0-1.5,0h-2.2c-0.4,0-0.8,0-1.4,0l0,0l0,0c-0.1,0-0.1,0.2-0.1,0.2
		c0,0.1,0,0.2,0.1,0.2l0.2,0C57,2.4,57,2.5,57,3.7v4.2c0,1.3-0.1,1.3-0.6,1.4l-0.4,0l0,0c-0.1,0.1-0.1,0.2-0.1,0.3
		c0,0.1,0.1,0.2,0.1,0.2l0,0l0,0c0.7,0,1.1,0,1.6,0h1c1,0,2,0,3.1,0l0.1,0l0-0.1C62,9.3,62.3,8.4,62.4,8L62.4,8z M52.7,7.9V3.7
		c0-1.2,0-1.3,0.6-1.4l0.2,0l0,0c0.1,0,0.1-0.1,0.1-0.2c0,0,0-0.2-0.1-0.2l0,0l0,0c-0.6,0-0.9,0-1.4,0c-0.5,0-0.9,0-1.4,0l0,0l0,0
		c-0.1,0-0.1,0.2-0.1,0.2c0,0.1,0,0.2,0.1,0.2l0.3,0c0.6,0.1,0.6,0.1,0.6,1.4V5c0,0.3,0,0.3-0.5,0.3h-3.3c-0.5,0-0.5,0-0.5-0.3V3.7
		c0-1.2,0-1.3,0.6-1.4l0.2,0l0,0c0.1,0,0.1-0.1,0.1-0.2c0,0,0-0.2-0.1-0.2l0,0l0,0c-0.5,0-0.9,0-1.3,0c-0.3,0-0.6,0-0.9,0
		c-0.2,0-0.4,0-0.6,0l0,0l0,0c-0.1,0-0.1,0.2-0.1,0.2c0,0.1,0,0.2,0.1,0.2l0,0l0.3,0c0.5,0,0.6,0.1,0.6,1.4v4.2c0,1.2,0,1.3-0.6,1.4
		l-0.2,0l0,0c-0.1,0.1-0.1,0.2-0.1,0.3c0,0.1,0.1,0.2,0.1,0.2l0,0l0,0c0.2,0,0.3,0,0.5,0c0.3,0,0.6,0,0.9,0c0.4,0,0.8,0,1.5,0l0,0
		l0,0c0.1,0,0.1-0.1,0.1-0.2c0-0.1,0-0.2-0.1-0.2l-0.4,0c-0.6-0.1-0.6-0.1-0.6-1.4V6.2c0-0.3,0-0.3,0.5-0.3h3.3c0.5,0,0.5,0,0.5,0.3
		v1.6c0,1.2,0,1.3-0.6,1.4l-0.2,0l0,0c-0.1,0.1-0.1,0.2-0.1,0.3c0,0.1,0.1,0.1,0.1,0.2l0,0l0,0c0.6,0,1,0,1.4,0c0.5,0,0.9,0,1.4,0
		l0,0l0,0c0.1,0,0.1-0.2,0.1-0.2c0-0.1,0-0.2-0.1-0.2l-0.3,0C52.7,9.1,52.7,9.1,52.7,7.9L52.7,7.9z M43.2,1.7L43.2,1.7L43.2,1.7
		C43.1,1.5,43,1.5,43,1.5c0,0-0.1,0-0.1,0l0,0l0,0c-0.1,0.3-0.2,0.3-0.8,0.3h-4.8c-0.5,0-0.8,0-0.8-0.3l0,0l0,0c0,0-0.1,0-0.2,0
		c0,0-0.1,0-0.2,0l0,0l0,0c-0.1,0.5-0.3,1.2-0.4,1.7l0,0l0,0c0.1,0.1,0.3,0.2,0.4,0.1l0,0l0,0c0.1-0.3,0.2-0.5,0.5-0.8
		c0.3-0.2,0.8-0.3,1.4-0.3h0.6c0.3,0,0.3,0,0.3,0.3v5.2c0,1.3-0.1,1.3-0.6,1.4l-0.4,0l0,0c-0.1,0-0.1,0.1-0.1,0.2
		c0,0.1,0,0.2,0.1,0.2l0,0l0,0c0.7,0,1.1,0,1.6,0c0.5,0,0.8,0,1.5,0l0,0l0,0C41,9.7,41,9.6,41,9.5c0-0.1,0-0.2-0.1-0.2l-0.4,0
		c-0.6,0-0.6-0.1-0.6-1.4V2.7c0-0.1,0-0.2,0-0.2c0,0,0.1,0,0.2,0H41c0.6,0,1,0.1,1.3,0.3c0.1,0.1,0.2,0.4,0.3,0.8l0,0l0,0
		c0,0.1,0.1,0.1,0.2,0.1c0.1,0,0.2,0,0.2-0.1l0,0l0,0C43,3.1,43.1,2.1,43.2,1.7L43.2,1.7z M35.3,25.7c0,3.6,1.7,6.1,3.9,7.6
		c2,1.4,4.4,1.9,6.9,1.9c1.8,0,3.8-0.4,4.4-0.6c0.3-0.1,0.6-0.2,1-0.3c0.4-0.5,1.1-2.4,1.3-3.8c-0.1-0.2-0.5-0.2-0.7-0.1
		c-0.6,1.6-2.2,4-5.8,4c-4.6,0-8.3-3.2-8.3-9.1c0-5.8,3.6-8.4,7.9-8.4c4,0,5.3,2.2,5.7,4.1c0.2,0.2,0.6,0.1,0.7-0.1
		c-0.2-1.7-0.4-3.4-0.4-4.1c-0.3,0-0.4,0-0.8-0.1c-1.3-0.4-3.4-0.7-4.9-0.7c-2.9,0-5.5,0.8-7.5,2.4C36.7,20,35.3,22.7,35.3,25.7
		L35.3,25.7z M28.1,21.1l0-19.4c-15.5-1.5-27.3,0-27.3,0s0,19.4,0,19.4C2,34.2,14.3,35.7,14.4,35.7C16.6,35.3,26.9,33.2,28.1,21.1
		L28.1,21.1z M27.4,20.9c-1.1,11.7-10.9,13.7-13,14.1c-0.1,0-11.8-1.5-13-14.1c0,0,0-18.6,0-18.6s11.1-1.4,25.9,0L27.4,20.9
		L27.4,20.9z M23.4,27.8c0.4-0.6,0.7-1.3,0.8-2c-0.3,0.3-0.6,0.6-1,0.8C23,27.4,23.1,28.3,23.4,27.8L23.4,27.8z M23.9,26
		c0.3-0.3,0.5-0.7,0.9-0.8c-0.3-0.3-0.6,0.3-0.8,0.1c0.3-0.4,0.5-0.8,0.5-1.3c0-0.3,0.4-0.6,0.4-0.7c-0.3,0-1.2,0.6-1.4,0.9
		c-0.6,0.8-0.6,1.5-3.1,2.6c-0.1,0,0.5-0.4,0.6-0.9c0.1-0.2,0.4-1.3,0.2-1.8c-0.5,0.5-0.4,0.7-0.6,1.1c-0.4,1-0.6,1.1-1.5,1.7
		c-0.1,0.1-0.8,1.2-1.8,1.2c0.1,0,0-0.3,0.4-0.5c1-0.7,0.6-2.1,2-2.4c-0.7-0.2-1.1,0.4-1.3,0.3c0.5-0.8,0.1-1.4,0.1-2
		c-0.2,0.1-0.4,0.3-0.4,0.5c-0.1,1.1-0.6,1.3-0.7,1.8c0.1,0.8-0.5,1.4-1,1.9c-0.1-0.5,0-0.9,0.6-1.2c0.3-0.2,0-0.8,0-0.8
		c-0.1,0.7-0.5,0.9-0.8,0.9c-0.2,0,0.7-1,0.6-1.9c0-0.4-0.2-0.2-0.2-0.7c-0.8,0.9-0.2,1.5-1,2.5c-0.4,0.5-0.5,1.4-0.6,1.4
		c0-1.3,0.1-0.9,0.6-2c0.5-0.9,0-1.7-0.1-2.2c-1,0.7-0.9,2.1-1,1.8c0-0.3-0.2-0.8,0-1.3c0.2-0.8-0.3-1.9-0.3-1.9
		c-1.4,2.3-0.2,4.9-0.3,4.9c-0.6-1-1.1-1-1.2-1.8c-0.1-0.4-0.8-2.7-2.2-2.7c0.7,0.6,0.5,0.7,0.6,1.6c-0.4,2.4,3,2.7,2.7,3.9
		c-0.5-0.7-1.2-1.1-2.3-1.6c-0.5-0.4-1-0.5-1-1.1c0.1-0.4,0.1-0.3,0-0.9c-0.1-0.4-0.4-0.2-0.7-1c-0.6,0.6-0.4,1.2-0.3,1.5
		c0,0.1,0.1,0.5,0,0.7c-0.2-0.2-0.4-0.5-0.6-0.8c-0.4-0.6-0.4-1.2-0.7-1.7c-0.1-0.2-0.2-0.5-0.3-0.5l0,0c-0.1,0.9-0.1,1.7,0.3,2.3
		c0,0-0.1,0.2-0.2,0.2c-0.4-0.1-0.9-0.4-1.1-1C6.7,24.8,7,25.3,7,25.3c-1.1-0.5,0-2.7-1.5-2.6c0.4,0.4,0.1,0.9,0.1,1.4
		c0,0.8,1,1.4,1,1.4c-1.1-0.4-1.4,0.1-1.3,0.1c0,0,1.7,0.7,4.3,1c0.3,0,0.8,0.4,0.7,0.4c-0.3,0-1-0.5-2,0.4c0.6,0,1,0.9,1.9,0.4
		c2.4-0.7,3.2,0.5,3.6,0.8c-0.1,0.1-1.8-1.1-3.2-0.3c-0.7,0.4-1.9,0-2.8-0.6c0.4,1,2,2,2.5,2c0.6,0,1.5-0.8,2.4-0.8
		c1.5,0.1,1.7,1.4,1.5,1.3c0,0-1.2-1.9-2.7,0.1c0.7-0.3,1.6-0.2,2.5,0.2c0.1,0.1-0.2,0.4-0.4,0.7c-0.1,0.2-0.8,1.1-1.5,0.2
		c-0.1-0.1-0.4-1-2.6-0.8c0.8,0.4,1.7,1.3,2.1,1.7c1.1,1.1,2.8-1.3,2.9-1.1c0,0.5,0.3,0.8,0.4,1.1c0.4,0.7-0.5,0.6-0.9,0.4
		c0,0,0.9,1.4,1.6,0.6c0.8-0.8-1.1-1.5-0.5-2.2c0.3-0.4,1.5,0.8,2.1,0.9c1.4,0.2,1.4-1.2,2.1-1.2c-0.7-0.7-1.5-0.3-1.6-0.1
		c-0.5,0.6-1,0.2-1.4-0.1c-0.2-0.3-0.6-0.3-0.9-0.2c-0.2,0,0.3-0.5,0.9-0.4c1.3,0.3,2.7-0.2,3-0.4c0.5-0.3,0.8-0.8,1.4-1.4
		c-0.2,0-1.3,0.7-1.6,0.8c-1.1,0.5-1.7-0.2-1.9-0.2c-0.2,0-0.2-0.2,0.2-0.3c1.1-0.2,1.8-1.2,2.9-1.6C21.4,26.6,22.9,26.9,23.9,26
		L23.9,26z M21.7,24.5c0,0.2,0,0.4-0.1,0.7c0,0,0.3,0.1,0.4,0.2c0.2-0.2,0.3-0.2,0.5-0.5c0,0-0.7-0.6-0.7-0.6
		C21.7,24.4,21.7,24.4,21.7,24.5L21.7,24.5z M21.8,25.6c0,0-0.3-0.2-0.3-0.2c0,0.1-0.1,0.3-0.2,0.4C21.3,25.9,21.5,25.8,21.8,25.6
		L21.8,25.6z M25,22.8c-0.1-2.5-1.6-5.3-1.2-4.8c1,1.3,1.4,4.1,2.1,6.5c0,0,0.5,0.2,0.4-2.8c0-0.6-0.3-1.4-0.6-2
		c-0.6-1.1-1.8-3.1-1.8-3.1c0.3-0.2,1,1.4,1.7,2.1c0.4,0.4,1.5,0.8,1.6,0.8c-0.9-1.8-3.1-3.4-2.9-3.6c1.6,1.5,2.1,1.6,2.2,1.5
		L25,15.9c-0.4-0.6-1-1-0.9-1c0.7,0.1-0.3-0.5-1.1-0.8c-0.1,0-0.4,0-0.4-0.1c0-0.1,0.2-0.1,0.3-0.1c0.1,0,0.2-0.1,0.2-0.3
		c-0.3,0.1-0.6,0-0.8-0.1c-0.5-0.2-1.4-0.5-1.9-0.4c-0.2,0.1-0.3,0.1-0.6,0.3c-0.1,0-0.4-0.3-0.9,0.3c-0.1,0.2-0.3,0.4-0.3,0.5
		c0,0.4,0,0,0.1,0.4c0,0.1-0.1,0.4-0.8,0.6c-0.3,0.1-0.2,0.3-0.2,0.3c0.1-0.1,0.3-0.2,0.7-0.1c0.6,0.3,0.7-0.2,1.1-0.5
		c0,0-0.1,0.4,0,0.4c0.5,0.1,0.3,0.5,0.3,0.5c-0.6,0.5-0.4,0.7-0.6,1.1c-0.2,0.3-0.5,0.4-1,0.4c-0.6,0,0.8-1-0.6-1.4
		c0.2,0.4,0.3,0.7-0.2,1c-0.3,0.2-0.2,1.1-1,0.7c0,0-0.1,0.7-0.2,0.7c1.1,1,0.5,1.5,0.5,2.9c0.3,0.9,0,1.3-0.1,1.3
		c0.1,0.6,0.1,0.9,0.5,1.4c0.3,0.4,0,0.9,0.3,1.3c0.3-0.9,0.5-0.5,0.6-1.8c0.1-0.2,0.5-0.6,0.8-0.6c0,0.8,0.3,1.4,0.2,1.7
		c0,0,0.6-0.1,0.8,0c0.2,0.1,0.3,0.3,0.3,0.4c-0.2,0.1-0.2,0.1-0.5,0.3c-0.6,0.4-0.8,1.3-0.8,1.3c0,0,1.3-1.1,1.4-1.3
		c0.1-0.2,0.1-0.4,0.2-0.6c0,0-0.7-0.4-0.9-0.8c-0.6-1.2,0.9,0.7,1,0.5c0.1-0.4,0.4-0.8,0.4-0.8c-0.1-0.1-0.3-0.2-0.7-0.8
		c-0.8-1.5,1,0.6,1,0.6c0.5-0.3,0.5,0.1,0.5,0.5c0,0,0.8,0.6,0.8,0.7c0.2-0.2,0.4-0.5,0.5-0.7c0,0-1.5-1.3-1.7-1.8
		c-2-3.5,1.6,1.5,1.8,1.4c0.1-0.3,0.1-0.6,0.1-1.1c0,0-0.7-0.5-1.1-1.2c-1.7-2.8,1.1,0.8,1.1,0.8c0-0.6-0.5-3.2-0.2-2.4
		c0.2,0.4,0.7,2.1,0.6,3.8C23.9,23.2,24.7,22.9,25,22.8L25,22.8z M26.1,6.1c0,0.1,0,0.2,0,0.2C26.1,6.3,26.1,6.2,26.1,6.1
		c0,0,0-0.9-1.1-0.9c-0.3,0-0.7,0.4-1.7,0v1.6c0.4,0.1,1.5-0.5,2-0.7C25.6,5.9,26.1,6,26.1,6.1L26.1,6.1z M23.3,8.4V10
		c0,0,0.9,0,1.9-0.6c0.3-0.2,0.7-0.1,0.9,0.1h0c0,0-0.1-1-1-0.9C23.4,8.8,23.3,8.4,23.3,8.4L23.3,8.4z M17.2,11
		c0.8,0,4.2,0.9,5.8,0.8V3.4c0,0-2.4,0.3-4.4-0.4c-1.7-0.6-3.9,0.5-3.9,0.5c0,0.3,0,8.2,0,8.2S15.5,11,17.2,11L17.2,11z M15.4,8.2
		c0.1,0,0.3,0,0.4,0c0,0.2,0,1.4,0,1.5c0,0.1,0.1,0.2,0.2,0.1c0.1,0,0.1,0,0,0.1c-0.1,0.1-0.3,0.3-0.3,0.4c-0.1-0.1-0.3-0.2-0.3-0.3
		C15.5,9.8,15.4,8.4,15.4,8.2L15.4,8.2z M15.9,6.4c0.2-0.1,0.8-0.2,1-0.2c0.1,0,0.2,0,0.2,0c0-0.1,0.1,0,0.1,0c0,0,0,0.6,0,0.7
		C17.1,7,17,7,17,6.9c0-0.1,0-0.1-0.1-0.2c-0.2-0.3-0.8-0.4-1.1,0c-0.1,0.1-0.1,0.4,0,0.4c0.1,0,0.5,0,0.7,0C16.6,7.1,17,7,17,7
		c0,0,0.1-0.1,0.1,0c0,0.1,0,0.3,0,0.4c0,0.1-0.1,0-0.1,0c0,0-0.4-0.1-0.5-0.1c-0.2,0-0.6-0.1-0.7-0.1c-0.1,0,0,0.2,0.1,0.3
		C16.2,8,16.7,8,16.9,7.7C17,7.6,17,7.5,17,7.5c0-0.1,0.1-0.1,0.1,0c0,0.1,0,0.5,0,0.6c0,0-0.1,0.1-0.1,0C17,7.9,16.9,8,16.8,8
		c-0.3,0.1-0.7,0.1-1,0c-0.3-0.2-0.5-0.2-0.5-0.8C15.3,6.8,15.6,6.5,15.9,6.4L15.9,6.4z M17.6,3.9c-0.1,0-0.2,0.2-0.3,0.3
		c0,0.1-0.5,1.6-0.6,1.7c-0.1-0.4-0.6-1.5-0.8-1.7C15.8,3.9,15.7,4,15.6,4c-0.1,0-0.1-0.1,0-0.1c0.1,0,0.9,0.1,1.1,0.1
		c0.1,0,0.1,0.1,0,0.1c-0.1,0-0.2,0.1-0.2,0.1c0,0.1,0.3,0.7,0.4,0.8c0.1-0.2,0.3-0.8,0.3-1c-0.1-0.1-0.1-0.2-0.2-0.2
		c-0.1,0-0.1-0.1,0-0.1c0.1,0,0.5-0.1,0.6,0C17.7,3.8,17.7,3.8,17.6,3.9L17.6,3.9z M18.4,3.9L18.3,4h-0.1L18,3.9l0-0.2l0.2-0.2
		l0.2,0.2V3.9L18.4,3.9z M18.8,5.5l-0.3,0.3h-0.2c-0.1-0.1-0.2-0.2-0.2-0.3l0-0.8l-0.3-0.2c-0.1,0.1-0.2,0.1-0.1,0L18,4.2l0.1,0
		l0.3,0.3l0,0.8C18.5,5.5,18.6,5.5,18.8,5.5L18.8,5.5z M20.2,4.6c-0.1,0-0.7,0.1-0.7,0.1c0,0,0,0.8,0.1,0.8c0,0.1,0.1,0.2,0.1,0.1
		c0.1-0.1,0.1,0,0.1,0.1c0,0-0.2,0.3-0.2,0.3c-0.1,0.1-0.2-0.1-0.3-0.3c-0.1-0.2-0.1-0.7-0.1-1.1c0,0-0.3-0.1-0.2-0.2
		c0.3-0.1,0.5-0.5,0.6-0.6c0-0.1,0.1-0.1,0.1,0c-0.1,0.2-0.1,0.3,0,0.4c0,0,0.5,0,0.6,0C20.3,4.4,20.3,4.6,20.2,4.6L20.2,4.6z
		 M19.5,7.2c-0.1,0.3,0.2,0.5,0.4,0.6c0.1,0.1,0.4,0,0.5,0c0.1,0,0,0,0.1-0.1c0,0,0.1,0,0.1,0c0,0-0.4,0.4-0.5,0.5
		c-0.1,0-0.3,0-0.4-0.1c-0.2-0.3-0.4-0.4-0.3-0.9c0-0.3,0.6-0.6,0.7-0.7c0.1,0,0.3,0.3,0.4,0.4c0,0.1-0.2,0.1-0.3,0.1
		c-0.1,0-0.2-0.1-0.3-0.2C19.7,6.9,19.5,7,19.5,7.2L19.5,7.2z M21.7,5.9l-0.3,0.4c-0.1-0.1-0.2-0.1-0.2-0.3c-0.3,0-0.4,0.2-0.5,0.3
		c-0.1-0.1-0.3-0.3-0.3-0.5c0-0.2,0.1-0.4,0.2-0.5c0,0,0,0,0,0c-0.1,0-0.1-0.1-0.1-0.1c0,0,0-0.1,0-0.2c0.1-0.1,0.3-0.3,0.5-0.4
		c0.1,0,0.3,0,0.5,0.2c0,0,0,0.8,0,0.8C21.6,5.8,21.7,5.9,21.7,5.9L21.7,5.9z M22.4,7.6c-0.1,0-0.2,0-0.3,0c-0.1,0-0.1-0.1,0-0.1
		c0.1,0,0.2,0,0.3,0C22.4,7.5,22.5,7.6,22.4,7.6L22.4,7.6z M22.4,7.8c-0.1,0-0.2,0-0.3,0c-0.1,0-0.1-0.1,0-0.1c0.1,0,0.2,0,0.2,0
		C22.4,7.7,22.4,7.8,22.4,7.8L22.4,7.8z M20.6,9.4C20.8,9.3,21,9.1,21.1,9c0.2,0.1,0.2,0.2,0.3,0.3c0.1-0.1,0.3-0.2,0.3-0.2
		c0.1,0.1,0.3,0.2,0.3,0.3c0.1-0.1,0.2,0,0.1,0.1c-0.1,0.1-0.2,0.2-0.3,0.3c-0.1-0.1-0.3-0.2-0.3-0.3c0,0-0.1,0.1-0.1,0.1
		c0,0.1,0,1,0,1.1c-0.1,0-0.3,0-0.4,0c0-0.1,0-0.9,0-1C21,9.4,20.8,9.4,20.6,9.4L20.6,9.4z M20.6,7.7c0-0.4,0.3-0.8,0.8-1
		c0.4,0.1,0.5,0.5,0.5,0.7c0,0.2-0.1,0.5-0.2,0.6c-0.1,0.1-0.3,0.2-0.4,0.4C20.8,8.5,20.6,7.9,20.6,7.7L20.6,7.7z M18.9,9.1
		C19,9,19.1,8.9,19.2,8.8c0.1,0.1,0.2,0.2,0.3,0.3c0,0.2,0,0.6,0,0.7c0,0.1,0.5,0.2,0.6,0c0-0.2,0-0.5,0-0.6c0-0.1-0.2-0.1-0.3-0.1
		C19.8,9,20,8.9,20.1,8.8c0.1,0.1,0.3,0.2,0.3,0.4c0,0.2,0,0.7,0,0.8c0,0.1,0,0.1,0.1,0.2c-0.1,0.1-0.2,0.1-0.2,0.2
		c-0.1,0-0.3-0.2-0.3-0.3c-0.1,0.1-0.5,0.2-0.6,0.3c-0.1-0.1-0.2-0.2-0.2-0.3c0-0.2,0-0.6,0-0.7C19.1,9.1,19,9.1,18.9,9.1L18.9,9.1z
		 M18.6,7.9c-0.1-0.1-0.3-0.2-0.4-0.4C18,7.7,17.9,7.9,17.6,8C17.8,7.8,18,7.5,18,7.2c0-0.3-0.2-0.4-0.3-0.5
		c-0.1,0.1-0.2,0.1-0.3,0.2c-0.1,0-0.1-0.1,0-0.1c0.2-0.1,0.5-0.3,0.5-0.4c0.1,0,0.3,0.2,0.4,0.3c0.1-0.1,0.3-0.3,0.4-0.3
		c0.1,0.1,0.3,0.3,0.5,0.3c-0.2,0.3-0.6,0.1-0.7,0.1c-0.1,0.1-0.1,0.2,0,0.3c0.1,0.2,0.5,0.4,0.6,0.4C18.9,7.5,18.7,7.8,18.6,7.9
		L18.6,7.9z M18,8.9c0,0-0.3-0.1-0.2-0.2c0.2-0.1,0.5-0.4,0.5-0.5c0-0.1,0.1-0.1,0.1,0c0,0.1-0.1,0.3-0.1,0.4c0,0,0.2,0,0.3,0
		c0,0,0,0.1,0,0.1c-0.1,0-0.3,0-0.3,0c0,0,0,0.8,0,0.8c0,0.1,0.2,0.1,0.3,0c0.1-0.1,0.1,0,0.1,0.1c0,0-0.2,0.3-0.3,0.3
		c-0.1,0-0.3,0-0.4-0.1C18,9.8,18,9.3,18,8.9L18,8.9z M17.3,10.2c-0.1-0.1-0.2-0.1-0.2-0.2c-0.3,0.1-0.4,0.3-0.6,0.4
		c-0.1-0.1-0.2-0.3-0.2-0.4c0-0.2,0.2-0.4,0.3-0.5c0,0,0,0,0,0c0,0-0.1-0.3,0-0.4c0.1-0.1,0.3-0.4,0.5-0.5c0.1,0,0.2,0.2,0.4,0.3
		c0,0,0,0.7,0,0.7c0.1,0.1,0.2,0.2,0.3,0.1c0.1-0.1,0.1,0,0.1,0.1C17.7,9.8,17.4,10.1,17.3,10.2L17.3,10.2z M17.1,9.4
		c0-0.1,0-0.3,0-0.3c0-0.1-0.2-0.2-0.2-0.2c-0.1,0-0.1,0-0.2,0.1c0,0.1,0,0.3,0,0.3C16.8,9.4,16.9,9.4,17.1,9.4L17.1,9.4z M16.7,9.5
		c-0.2,0.3,0,0.4,0.1,0.4c0.1-0.1,0.2-0.1,0.3-0.2c0-0.1,0-0.2,0-0.3C16.9,9.5,16.9,9.5,16.7,9.5L16.7,9.5z M20.9,7.7
		c0.1,0.2,0.4,0.4,0.5,0.5c0.1-0.2,0.2-0.4,0.2-0.7c0-0.2-0.3-0.4-0.5-0.5C20.8,7.2,20.8,7.5,20.9,7.7L20.9,7.7z M20.9,6
		C21,6,21.1,5.9,21.2,5.9c0,0,0-0.1,0-0.1c0,0,0-0.2,0-0.3c-0.1,0-0.3-0.1-0.5-0.2c0,0,0,0,0.1,0C20.6,5.7,20.8,5.9,20.9,6L20.9,6z
		 M20.6,5.1c0.1,0.1,0.4,0.2,0.6,0.3c0-0.1,0-0.3,0-0.3c0-0.1-0.3-0.3-0.4-0.3C20.7,4.8,20.6,4.9,20.6,5.1
		C20.5,5.1,20.5,5.1,20.6,5.1L20.6,5.1z M14.3,12.7c-0.3,0-0.6,0.2-0.7,0.5c-0.2,0.2-0.2-0.3-0.5-0.1c-0.1,0.2,0.2,0.6,0.1,0.6
		c-0.4,0.1-0.3-0.5-0.5-0.5c-0.3,0.1-1,0.8-0.3,1.3c0-0.4,0.7-0.7,0.9,0c0.7-0.1,0.9,0.4,1,0.6c1,0.2,0.7,0.8,0.7,0.8
		c-0.1-0.1-0.5-0.8-1.2-0.3c-0.2,0.1-0.4,0.2-0.6,0.1c0,0.2,0.3,0.4,0.5,0.4c0.6-0.2,0.8,0.4,0.3,0.6c0.1,0.2,0.3,0.1,0.5,0
		c0.3-0.2,0.3-0.3,0.4-0.4c0.2,0.8-0.9,0.9-1.2,0.9c0.1,0.2,0.2,0.2,0.4,0.3c-1.1,0-1.3,1.1-1.2,1.6c0.2,0,0.6-0.5,0.6-0.2
		c-0.8,0.8-1,1.9-0.6,2.6c0.2-0.1,0.3-0.3,0.3-0.5c0,0,0.4,0.2-0.2,0.9c0,0.2-0.3,0.8,0.2,0.9c0.2-0.2,0.2-0.4,0.2-0.6
		c0.1-0.1,0.2,0.4,0.2,0.5C12.9,23,13,25,13.7,26c-0.3-0.8-0.3-1.7,0-2.5c0.2-0.6,0.7-2,0.7-1.9c0.3,0.3,0.6,1.8,0.6,2.5
		c0.4-0.3,0.5-0.7,0.8-1c0.2,0.5,0.2,0.9,0.3,1.4c0.2-0.5,0.6-1,0-2.5c0.1-0.1,0.3,0.5,0.4,0.5c0.1,0,0.1-0.3-0.1-0.9
		c-0.4-0.4-0.5-1-0.4-1c0.1,0,0.2,0.6,0.5,0.6c0-0.5,0.2-1,0.1-1.4c0-0.1-0.2-0.6-0.6-1c-0.3-0.2-0.4-0.7-0.3-0.9
		c0.3,0.2,0.2,0.4,0.4,0.5c0.1-0.2,0-1-0.2-1.3c-0.2-0.3-0.1-0.2,0.1-0.1c0.2,0.3,0.1,0.3,0.3,0.4c0.5-1.1,0-1.3,0.1-1.4
		c0-0.1,0.4,0.5,0.6,0.3c-0.4-0.2-0.4-0.6-0.5-1c0-0.3-0.2-0.4-0.2-0.5c0.4,0.3,0.6,0,0.6-0.1c-0.1,0-0.5,0.1-0.5-0.5
		c0-0.2-0.4-0.3-0.4-0.3c0.2,0,1-0.1,0.8-0.8c-0.1,0.2-0.3,0.4-0.8,0.3c0,0,0.3-0.1,0.2-0.4C15.6,13.4,15.1,12.6,14.3,12.7
		L14.3,12.7z M15.6,13.6c-0.5,0.1-0.8,0.6-1.3,0.4c-0.1,0-0.2-0.1-0.2-0.2c0.1,0.1,0.2,0.1,0.3,0.1c0,0-0.3-0.2,0-0.5
		c-0.3,0.2-0.4,0.1-0.4,0c0,0,0.4-0.4,0.8-0.2C15.1,13.4,15.3,13.6,15.6,13.6L15.6,13.6L15.6,13.6z M14.9,13.6
		c0,0.1-0.1,0.3-0.1,0.3l0.5-0.3c-0.1-0.1-0.4-0.2-0.5-0.3C14.7,13.4,14.9,13.5,14.9,13.6L14.9,13.6z M11.9,11
		c1.3,0.1,2.4,0.7,2.4,0.7V3.4c0,0-1.9-1.3-4.9-0.1C8.5,3.6,6.3,3.4,6.3,3.4v8.4C8.2,11.9,10.7,10.9,11.9,11L11.9,11z M11,6.5
		c0.2,0.1,0.6,0,0.7,0.3c0.1,0.3-0.1,0.8-0.4,0.8c-0.2,0-0.5-0.1-0.6,0c-0.1,0-0.1,0-0.1,0.1c0,0.1-0.1,0.1-0.1,0c0-0.1,0-0.5,0-0.6
		c0-0.1,0.1-0.1,0.1,0c0,0.1,0.1,0.2,0.2,0.3c0.1,0.1,0.5,0.2,0.7,0.1c0.1-0.1,0.1-0.4,0-0.4c-0.1-0.1-0.7-0.2-0.8-0.4
		c-0.2-0.3,0.1-0.5,0.3-0.6C11.1,6,11.3,6,11.4,6c0.1,0,0.2,0,0.2-0.1c0-0.1,0.1-0.1,0.1,0c0,0.3,0.1,0.1,0,0.4c0,0.1,0,0.1-0.1,0
		c0-0.1-0.4-0.4-0.7-0.2C10.7,6.3,10.8,6.5,11,6.5L11,6.5z M11.7,8.2c-0.1,0.1-0.2,0.2-0.3,0.3c-0.1-0.1-0.2-0.2-0.3-0.2
		c0.2-0.1,0.2-0.2,0.3-0.3C11.5,8.1,11.6,8.2,11.7,8.2L11.7,8.2z M10.1,8.9c0.1-0.1,0.3-0.5,0.4-0.6c0-0.1,0.1-0.1,0.1,0
		c0,0.1-0.1,0.5-0.1,0.5c0,0,0.2,0,0.3,0c0,0,0,0.1,0,0.1c-0.1,0-0.3,0-0.3,0c0,0,0,0.5,0,0.5c0.1,0.1,0.2,0.1,0.3,0
		c0.1-0.1,0.1,0,0.1,0.1c0,0-0.2,0.2-0.2,0.4c0,0.1-0.3,0-0.3-0.1c-0.1-0.2-0.1-0.5-0.1-0.9C10.3,9.1,10,8.9,10.1,8.9L10.1,8.9z
		 M10,7.9c-0.1,0.1-0.3,0-0.3-0.2C9.5,7.5,9.6,7.1,9.6,6.8c0,0-0.1-0.1-0.1-0.1c-0.1,0-0.1-0.1,0-0.1C9.6,6.5,9.9,6.1,9.9,6
		c0-0.1,0.1,0,0,0.1c-0.1,0.2-0.1,0.4,0,0.5c0,0,0.3,0,0.4,0c0,0,0,0.1,0,0.1c-0.1,0-0.5,0.1-0.5,0.1c0,0,0,0.7,0.1,0.7
		c0,0,0.1,0.1,0.2,0.1c0.1-0.1,0.1,0,0,0.1C10.1,7.7,10.1,7.8,10,7.9L10,7.9z M8.5,8.9c0.2-0.1,0.2-0.2,0.3-0.3
		C8.9,8.7,8.9,8.8,9,8.9c0.1-0.1,0.3-0.2,0.4-0.3c0.1,0,0.2,0.1,0.2,0.4c0,0.3,0,0.7,0,0.8c0,0.1,0,0,0.1,0c0.1,0,0.1,0,0,0.1
		c-0.1,0-0.3,0.2-0.4,0.3C9.3,10.1,9.3,10,9.3,9.8c0-0.2,0-0.6,0-0.7C9.3,9,9.2,9,9.1,8.9C9,9,9,9,9,9.1c0,0.1,0,1,0,1.1
		c-0.2,0-0.2,0-0.3,0c0-0.2,0-0.8,0-1C8.6,9.1,8.5,9,8.5,8.9L8.5,8.9z M7.2,9.3c0.1-0.6,0.6-0.8,0.8-0.9C8,8.6,8.2,8.9,8.3,9
		C8.1,9.2,7.7,9.5,7.5,9.6c0.1,0.2,0.4,0.3,0.5,0.2c0.1-0.1,0.2-0.1,0.1,0.1C8,10,7.9,10.2,7.8,10.3C7.6,10.2,7.1,9.9,7.2,9.3
		L7.2,9.3z M7,6.7c0.1-0.2,0.5-0.4,0.7-0.5c0.1,0.1,0.2,0.2,0.3,0.3C7.8,6.7,7.7,6.8,7.7,6.9c0-0.1-0.3-0.4-0.5-0.2
		C7.1,6.8,7,7.3,7.3,7.5c0.2,0.1,0.3,0.2,0.6,0.1C7.8,7.8,7.7,7.8,7.7,8C7.3,8,7.2,7.9,7.1,7.8C6.7,7.5,6.8,7,7,6.7L7,6.7z M8.5,6
		C8.4,5.9,8.4,5.8,8.3,5.9C8,6,7.7,6,7.4,5.9C7.2,5.8,7,5.7,7,5.1c0-0.3,0.3-0.6,0.5-0.7c0.2-0.1,0.6,0,0.8,0c0.1,0,0.2,0,0.2-0.1
		c0-0.1,0.1,0,0.1,0c0,0,0,0.7,0,0.8c0,0.1-0.1,0.1-0.1,0c0-0.1,0-0.2-0.1-0.4c0-0.2-0.5-0.5-0.9-0.1c0,0-0.1,0.3-0.1,0.4
		c0,0.1,0,0.3,0.1,0.5C7.8,6,8.1,5.9,8.3,5.6c0.1-0.1,0.1-0.3,0.1-0.3c0,0,0.1-0.1,0.1,0c0,0.1,0,0.5,0,0.6c0,0.1,0.1,0.1,0.1,0.2
		C8.7,6,8.6,6.1,8.5,6L8.5,6z M8.7,6.4c0.1,0,0.2,0.2,0.4,0.4c0,0,0,0.8,0,0.9c0,0,0.1,0.1,0.2,0.1c0.1-0.1,0.1,0,0,0.1
		c0,0-0.3,0.3-0.4,0.3C8.8,8,8.8,7.9,8.8,7.8c-0.2,0-0.3,0.1-0.4,0.3C8.2,8,8.1,7.8,8.1,7.7c0-0.2,0.1-0.3,0.2-0.4c0,0,0,0-0.1-0.1
		c0,0-0.1-0.3,0-0.4C8.3,6.6,8.6,6.4,8.7,6.4L8.7,6.4z M10.1,4.5c-0.1,0.1-0.2,0.2-0.3,0.2C9.7,4.7,9.6,4.5,9.6,4.5
		c0,0-0.1,0-0.1,0.1c0,0.1,0,1,0,1.1c-0.1,0-0.2,0-0.3,0c0-0.1,0-0.9,0-1c0-0.1-0.1-0.2-0.3-0.2c0.1-0.1,0.3-0.2,0.4-0.3
		c0.1,0.1,0.2,0.1,0.3,0.2c0.1-0.1,0.3-0.2,0.3-0.2C9.9,4.3,10,4.4,10.1,4.5C10.1,4.4,10.2,4.4,10.1,4.5L10.1,4.5z M11.5,5.4
		c-0.1,0-0.2,0.2-0.4,0.2c-0.4,0-0.9-0.3-0.8-0.8C10.3,4.2,10.8,4,11,4c0.2,0,0.3,0.2,0.4,0.3c-0.2,0.2-0.5,0.5-0.7,0.6
		c0,0.1,0.3,0.4,0.7,0.3C11.6,5.2,11.6,5.3,11.5,5.4L11.5,5.4z M13.1,4.4c0,0.1-0.2,0.2-0.4,0.3c0,0,0.1,0,0.1,0
		c0.3,0.2,0.4,0.4,0.1,0.7c-0.2,0.1-0.4,0.3-0.7,0.3c-0.2,0-0.5-0.2-0.6-0.2c0.2-0.1,0.3-0.3,0.4-0.4c-0.2-0.1-0.4-0.3-0.2-0.6
		c0.1-0.2,0.4-0.4,0.7-0.4C12.8,4.1,12.9,4.3,13.1,4.4L13.1,4.4z M13.2,6l0.2,0.2v0.2l-0.1,0.1h-0.1l-0.1-0.1l0-0.2L13.2,6L13.2,6z
		 M13.6,5.1c-0.4,0-0.3-0.2-0.2-0.2C13.7,4.9,13.7,5.1,13.6,5.1L13.6,5.1z M13.6,5.3c-0.4,0-0.3-0.2-0.2-0.2
		C13.7,5.2,13.6,5.3,13.6,5.3L13.6,5.3z M13.8,7.8L13.6,8l-0.2,0.2C13.3,8,13.2,8,13.2,7.9l0-0.8L13,7c-0.1,0.1-0.2,0.1-0.1,0
		l0.4-0.3l0.1,0l0.2,0.2l0,0.8C13.6,7.8,13.6,7.8,13.8,7.8L13.8,7.8z M12.2,9.8c0-0.2,0.1-0.3,0.2-0.5c0,0,0,0,0,0
		c0,0-0.1-0.3,0-0.4c0.1-0.1,0.3-0.4,0.5-0.4c0.1,0,0.3,0.3,0.4,0.4c0,0,0,0.8,0,0.9c0,0.1,0.2,0.1,0.2,0c0.1-0.1,0.1,0,0.1,0.1
		c-0.1,0-0.2,0.2-0.3,0.3c-0.1-0.1-0.2-0.1-0.3-0.3c-0.2,0-0.4,0.2-0.5,0.3C12.3,10.1,12.2,9.9,12.2,9.8L12.2,9.8z M11.9,7.5
		c-0.1-0.3,0.1-0.6,0.2-0.7c0.1-0.1,0.3-0.2,0.4-0.3c0.1,0.1,0.2,0.1,0.3,0.2c0,0.1,0,0.2-0.2,0.2c-0.2,0-0.3,0-0.5,0.1
		c-0.1,0.1,0,0.4,0.1,0.6c0.1,0.1,0.4,0.2,0.4,0.1c0.1-0.1,0.2-0.1,0.1,0.1c-0.1,0.1-0.2,0.3-0.2,0.4C12.3,7.9,12,7.8,11.9,7.5
		L11.9,7.5z M12,9.7l-0.2,0.2L11.7,10c-0.1-0.1-0.2-0.1-0.2-0.2l0-0.7L11.2,9c-0.1,0.1-0.2,0.1-0.1,0l0.3-0.3l0.1,0l0.2,0.3l0,0.7
		C11.9,9.7,11.8,9.7,12,9.7L12,9.7z M12.5,9.4c-0.2,0.2,0,0.4,0.1,0.5c0.1,0,0.2-0.1,0.3-0.1c0,0,0-0.1,0-0.1c0,0,0-0.1,0-0.2
		C12.7,9.5,12.7,9.5,12.5,9.4L12.5,9.4z M12.9,9.4c0-0.1,0-0.2,0-0.3c0-0.1-0.3-0.3-0.3-0.3c-0.1,0-0.1,0-0.1,0.1c0,0.1,0,0.2,0,0.3
		C12.7,9.3,12.8,9.4,12.9,9.4L12.9,9.4z M12.4,4.8c0.1-0.1,0.2-0.1,0.2-0.1c-0.1-0.1-0.3-0.2-0.4-0.2c-0.1,0-0.3,0.1-0.2,0.2
		c0.1,0.1,0.1,0.2,0.3,0.2C12.3,4.8,12.4,4.8,12.4,4.8L12.4,4.8z M12.3,5.1C12.2,5.2,12,5.3,12,5.3c0,0.1,0.4,0.3,0.5,0.2
		c0.2-0.1,0.3-0.3,0.1-0.3C12.5,5.1,12.4,5.1,12.3,5.1L12.3,5.1z M10.6,4.8c0.1-0.1,0.3-0.3,0.4-0.4c-0.1,0-0.2-0.1-0.2-0.3
		C10.6,4.4,10.5,4.5,10.6,4.8L10.6,4.8z M8.8,7.7c0,0,0-0.1,0-0.1c0,0,0-0.2,0-0.3C8.6,7.4,8.6,7.4,8.4,7.4C8.2,7.5,8.5,7.7,8.6,7.7
		C8.7,7.7,8.7,7.7,8.8,7.7L8.8,7.7z M8.8,7.2c0-0.1,0-0.2,0-0.2c0-0.1-0.2-0.3-0.2-0.3c-0.1,0-0.2,0.1-0.2,0.2c0,0.1,0,0.2,0,0.3
		C8.5,7.3,8.5,7.3,8.8,7.2L8.8,7.2z M7.7,8.8C7.2,9,7.3,9.4,7.5,9.6C7.5,9.5,7.8,9.3,8,9.2C7.9,9.1,7.7,8.9,7.7,8.8L7.7,8.8z
		 M4.9,9.9h1v-1h-1V9.9L4.9,9.9z M4.9,6.3h1v-1h-1V6.3L4.9,6.3z M3.6,8.4c-1.2,0-1.2,1.8,0,1.8C4.8,10.2,4.8,8.4,3.6,8.4L3.6,8.4z
		 M3.6,4.8c-1.2,0-1.2,1.8,0,1.8C4.8,6.6,4.8,4.8,3.6,4.8L3.6,4.8z M14.1,15.2c-0.1-0.2-0.2-0.3-0.4-0.4c-0.7-0.3-2,0.4-2-0.7
		c0,0-0.5,0.4-0.3,0.7C12,15.8,13.3,14.7,14.1,15.2L14.1,15.2z M7.9,23.7c-0.4,0.4-0.5,0.4-0.5,0.6c0.1,0.2,0.3,0.4,0.4,0.6
		C8,25,8.1,25.2,7.9,24.7C7.8,24.3,7.9,24,7.9,23.7L7.9,23.7z M5.2,16.4L5.2,16.4c0,0.8-2.2,2-3.2,2.5c1.5,0.5,2.9-0.9,2.7-0.5
		c-0.2,0.4-2,2-2.8,2.8c0.6,0.2,1.2-0.3,1.6-0.7C4,20,4.8,18.9,4.7,19.4c-1.3,1.6-2.4,5-1.7,5.2C3.4,23.9,4.9,20,5,20
		c0.1,0-0.1,1-0.2,1.7c-0.1,1.5-0.1,2.2,0.2,3.6c0.2-0.2,0.3-0.2,0.6-0.2c0-0.1,0-0.1-0.1-0.3c-0.4-0.6,0.1-1.3-0.1-1.8
		C5.2,22.6,5.1,23,5,22.6c0.1-0.1,0.4-0.1,0.6-0.2c0.1-1.5,0.6-2.3,0.5-1.3c-0.1,0.5-0.2,1.3-0.2,1.3c0.1,0,0.1,0,0.1,0.1
		c0,0,2.5-4.1,1.1-1.3c-0.2,0.4-0.9,1.4-0.9,1.4c0.2,0.2,0.4,0.4,0.4,0.6c0,0,3.4-4.4,1.1-0.8c-0.1,0.2-0.8,1-1,1.2
		c0,0,0.1,0.8,0.1,0.8c0.3-0.2,0.8-0.7,1.1-1c0-0.5,0.1-0.4,0.1-0.8c0.1-0.1,0.2,0.1,0.4,0.3c0.1,0.1,2.3-3.8,0.9-0.9
		c-0.2,0.5-0.7,1-0.7,1.1c0.1,0.1,0.2,0.4,0.4,0.8c0,0,3-4.3,1.2-1c-0.1,0.3-1,1.3-1,1.4c0.2,0.5,0.4,1.1,0.4,1.1
		c-0.1-0.4-0.1-1.2,0.7-1.9c0.1,0.7,0.3,0.8,0.6,1c0.1,0.1,0.3,0.5,0.4,0.2c0.1-1.1-0.3-1-0.5-1.5c-0.1-0.1-0.1-0.4,0-0.3
		c2.1,0.1,2.1,2.1,2.4,2.1c-0.2-0.5-0.2-1,0-1.4c-0.6-0.4-0.4-1.1-0.3-1.4c-0.6-0.7-0.3-2.1,0-2.4c-0.4-0.6,0.1-1,0-1.4
		c-0.2-1.3-1.3-0.9-1.6-2.2c-0.2,0.2-0.5,1-0.4,1.2c0.2,0.3,0.6,0.3,0.6,0.5c0,0.1,0,0.3,0,0.4c-0.2,0-0.4-0.2-0.6-0.3
		c-0.5-0.2-1.6,0.6-1.6-0.1c0-0.4,0.1-0.1,0.1-0.5C9.2,16.7,9,17,9,16.4c0-0.4,0.5-0.5,0.5-0.6c0.1-0.4,0.8,0.5,1.2-0.4
		c-0.2,0-0.7-0.1-0.7-0.4c0.1-0.6,0.1-2.1-1.3-1.8c-0.5,0.1-1.9,0.8-2.1,0.1C6.1,14.2,7.1,14,7.4,14c-0.1,0.1-0.3,0.2-0.6,0.1
		c-0.8,0.5-3.6,2.3-4.5,2.8C3.4,17.4,5.2,16.4,5.2,16.4L5.2,16.4z M6,26.2c-0.3-0.1-0.6-0.2-0.8-0.4c0.2,0.6,0.3,1.1,0.6,1.7
		C6,28,6.3,27.1,6,26.2L6,26.2z"/>
</g>
</svg>
