<?xml version="1.0" encoding="utf-8"?>
<!-- Generator: Adobe Illustrator 16.0.0, SVG Export Plug-In . SVG Version: 6.00 Build 0)  -->
<!DOCTYPE svg PUBLIC "-//W3C//DTD SVG 1.1//EN" "http://www.w3.org/Graphics/SVG/1.1/DTD/svg11.dtd">
<svg version="1.1" id="Layer_1" xmlns="http://www.w3.org/2000/svg" xmlns:xlink="http://www.w3.org/1999/xlink" x="0px" y="0px"
	 width="172px" height="110px" viewBox="0 0 172 110" enable-background="new 0 0 172 110" xml:space="preserve">
<g>
	<path fill="#FFFFFF" d="M171,109H1V1h170V109L171,109z M5.515,104.466h160.971V5.534H5.515V104.466L5.515,104.466z"/>
	<path fill="#FFFFFF" d="M152.73,96.193h1.69v-8.021h3.026v-1.561h-7.742v1.561h3.025V96.193L152.73,96.193z M143.464,96.357
		c1.785,0,2.876-0.657,3.87-1.697l-1.077-1.095c-0.817,0.767-1.565,1.245-2.739,1.245c-1.826,0-3.147-1.533-3.147-3.408v-0.027
		c0-1.875,1.321-3.381,3.147-3.381c1.091,0,1.908,0.479,2.672,1.191l1.077-1.246c-0.913-0.877-1.977-1.492-3.735-1.492
		c-2.889,0-4.92,2.231-4.92,4.955v0.027C138.611,94.181,140.684,96.357,143.464,96.357 M130.261,92.388l1.635-3.833l1.649,3.833
		H130.261L130.261,92.388z M126.948,96.193h1.718l0.98-2.313h4.512l0.968,2.313h1.771l-4.197-9.649h-1.553L126.948,96.193
		L126.948,96.193z M120.083,91.594v-3.449h1.949c1.254,0,2.059,0.589,2.059,1.711v0.027c0,1-0.791,1.711-2.059,1.711H120.083
		L120.083,91.594z M118.406,96.193h1.677v-3.08h1.895c2.099,0,3.816-1.122,3.816-3.271v-0.027c0-1.93-1.403-3.203-3.625-3.203
		h-3.763V96.193L118.406,96.193z M105.359,96.193h1.648V89.35l2.984,4.489h0.055l3.012-4.517v6.871h1.677v-9.582h-1.786
		l-2.902,4.531l-2.903-4.531h-1.784V96.193L105.359,96.193z M99.997,96.193h1.677v-9.582h-1.677V96.193L99.997,96.193z"/>
	<path fill="#FFFFFF" d="M88.304,94.935c-0.927,0-1.595-0.589-1.595-1.397v-0.026c0-0.616,0.383-1.205,1.269-1.589l2.125,2.178
		C89.558,94.619,88.959,94.935,88.304,94.935 M88.549,90.376c-0.531-0.589-0.722-0.944-0.722-1.424v-0.026
		c0-0.672,0.45-1.15,1.132-1.15c0.641,0,1.09,0.438,1.09,1.081v0.027C90.049,89.568,89.53,90.02,88.549,90.376 M92.324,96.385
		l1.24-0.89l-1.499-1.533c0.491-0.67,0.913-1.423,1.294-2.19l-1.268-0.67c-0.312,0.67-0.653,1.3-1.021,1.848l-1.636-1.67
		c1.268-0.479,2.1-1.232,2.1-2.492v-0.026c0-1.286-1.023-2.313-2.535-2.313c-1.704,0-2.74,1.123-2.74,2.409v0.027
		c0,0.698,0.245,1.3,0.791,1.998c-1.309,0.562-2.031,1.451-2.031,2.683v0.028c0,1.656,1.336,2.737,3.107,2.737
		c1.158,0,2.112-0.479,2.93-1.246L92.324,96.385L92.324,96.385z"/>
	<path fill="#FFFFFF" d="M74.743,96.193h1.69v-3.818l3.789-5.764H78.3l-2.698,4.244l-2.672-4.244h-1.976l3.789,5.804V96.193
		L74.743,96.193z M63.034,91.361v-3.217h2.44c1.24,0,1.976,0.561,1.976,1.588v0.027c0,0.973-0.764,1.602-1.963,1.602H63.034
		L63.034,91.361z M61.357,96.193h1.676v-3.34h2.099l2.344,3.34h1.977l-2.576-3.627c1.335-0.384,2.276-1.328,2.276-2.902v-0.027
		c0-0.834-0.286-1.547-0.791-2.067c-0.613-0.602-1.554-0.958-2.753-0.958h-4.252V96.193L61.357,96.193z M55.996,96.193h1.677v-9.582
		h-1.677V96.193L55.996,96.193z M48.281,96.344c2.495,0,4.102-1.437,4.102-4.298v-5.435h-1.675v5.517
		c0,1.766-0.914,2.669-2.399,2.669c-1.5,0-2.412-0.958-2.412-2.737v-5.448h-1.677v5.517C44.219,94.907,45.8,96.344,48.281,96.344
		 M36.159,94.811c-1.894,0-3.243-1.547-3.243-3.408v-0.027c0-1.862,1.322-3.381,3.216-3.381s3.244,1.547,3.244,3.408v0.027
		c0,0.671-0.164,1.287-0.491,1.793l-1.649-1.505l-1.077,1.231l1.636,1.396C37.346,94.633,36.787,94.811,36.159,94.811 M40.18,96.48
		l1.077-1.204l-1.09-0.931c0.627-0.836,0.967-1.861,0.967-2.943v-0.027c0-2.696-2.044-4.928-4.975-4.928
		c-2.93,0-5.001,2.258-5.001,4.955v0.027c0,2.697,2.044,4.928,4.974,4.928c1.117,0,2.099-0.329,2.903-0.904L40.18,96.48L40.18,96.48
		z M19.667,96.193h1.648v-6.816l5.26,6.816h1.404v-9.582h-1.649v6.625l-5.111-6.625h-1.553V96.193L19.667,96.193z M14.305,96.193
		h1.677v-9.582h-1.677V96.193L14.305,96.193z"/>
	<path fill="#FFFFFF" d="M142.588,77.971h2.99V65.61l9.539,12.36h2.546V60.596h-2.99v12.014l-9.268-12.014h-2.817V77.971
		L142.588,77.971z M130.025,78.269c3.065,0,5.512-1.241,7.217-2.706v-7.297h-7.364v2.656h4.424v3.251
		c-1.062,0.794-2.546,1.315-4.177,1.315c-3.533,0-5.883-2.631-5.883-6.205v-0.049c0-3.326,2.423-6.131,5.611-6.131
		c2.199,0,3.509,0.719,4.844,1.861l1.927-2.308c-1.778-1.515-3.632-2.358-6.647-2.358c-5.215,0-8.922,4.12-8.922,8.984v0.051
		C121.055,74.396,124.613,78.269,130.025,78.269 M113.039,77.971h3.039V60.596h-3.039V77.971L113.039,77.971z M96.93,71.07
		l2.967-6.95l2.99,6.95H96.93L96.93,71.07z M90.925,77.971h3.114l1.779-4.194h8.18l1.755,4.194h3.213l-7.611-17.498h-2.817
		L90.925,77.971L90.925,77.971z M79.417,69.631v-6.255h3.534c2.274,0,3.731,1.067,3.731,3.103v0.049
		c0,1.812-1.433,3.104-3.731,3.104H79.417L79.417,69.631z M76.376,77.971h3.04v-5.584h3.435c3.806,0,6.92-2.036,6.92-5.934v-0.049
		c0-3.5-2.546-5.809-6.574-5.809h-6.821V77.971L76.376,77.971z M53.576,77.971h2.99v-12.41l5.413,8.141h0.099l5.462-8.19v12.46h3.04
		V60.596h-3.237l-5.265,8.216l-5.264-8.216h-3.238V77.971L53.576,77.971z M37.547,71.07l2.966-6.95l2.99,6.95H37.547L37.547,71.07z
		 M31.542,77.971h3.114l1.779-4.194h8.18l1.755,4.194h3.213l-7.612-17.498h-2.817L31.542,77.971L31.542,77.971z M21.669,78.269
		c3.237,0,5.215-1.191,7.019-3.078l-1.953-1.985c-1.483,1.39-2.842,2.258-4.967,2.258c-3.311,0-5.709-2.779-5.709-6.18v-0.049
		c0-3.401,2.398-6.131,5.709-6.131c1.978,0,3.46,0.868,4.844,2.159l1.952-2.259c-1.656-1.589-3.583-2.705-6.771-2.705
		c-5.239,0-8.922,4.045-8.922,8.984v0.051C12.871,74.322,16.627,78.269,21.669,78.269"/>
	<path fill="#FFFFFF" d="M151.176,22.817h1.517v-3.531h4.354v-1.387h-4.354v-2.366h4.909v-1.388h-6.426V22.817L151.176,22.817z
		 M143.791,21.566c-1.714,0-2.935-1.4-2.935-3.085v-0.025c0-1.685,1.195-3.059,2.911-3.059c1.714,0,2.935,1.399,2.935,3.084v0.024
		C146.702,20.191,145.506,21.566,143.791,21.566 M143.768,22.966c2.65,0,4.525-2.044,4.525-4.484v-0.025
		c0-2.44-1.85-4.459-4.502-4.459c-2.651,0-4.526,2.043-4.526,4.484v0.024C139.265,20.946,141.115,22.966,143.768,22.966
		 M129.103,22.817h1.528v-3.456l3.43-5.215h-1.739l-2.442,3.84l-2.417-3.84h-1.789l3.43,5.253V22.817L129.103,22.817z
		 M119.354,22.817h1.529v-7.259h2.738v-1.413h-7.006v1.413h2.738V22.817L119.354,22.817z M112.594,22.817h1.516v-8.671h-1.516
		V22.817L112.594,22.817z M106.622,22.94c1.814,0,3.085-0.966,3.085-2.589v-0.024c0-1.438-0.95-2.094-2.776-2.54
		c-1.651-0.396-2.047-0.693-2.047-1.362V16.4c0-0.57,0.518-1.029,1.406-1.029c0.789,0,1.566,0.31,2.343,0.892l0.814-1.152
		c-0.876-0.706-1.875-1.09-3.133-1.09c-1.715,0-2.947,1.028-2.947,2.515v0.024c0,1.599,1.035,2.144,2.873,2.59
		c1.604,0.372,1.948,0.706,1.948,1.325v0.025c0,0.656-0.592,1.09-1.528,1.09c-1.074,0-1.899-0.409-2.727-1.128l-0.912,1.09
		C104.058,22.482,105.303,22.94,106.622,22.94 M95.263,18.443v-2.91h2.208c1.121,0,1.787,0.507,1.787,1.437v0.024
		c0,0.88-0.689,1.449-1.775,1.449H95.263L95.263,18.443z M93.746,22.817h1.517v-3.023h1.899l2.121,3.023h1.788l-2.331-3.283
		c1.209-0.347,2.061-1.202,2.061-2.626v-0.025c0-0.755-0.26-1.399-0.716-1.87c-0.556-0.545-1.406-0.867-2.491-0.867h-3.848V22.817
		L93.746,22.817z M84.399,22.817h6.462v-1.362h-4.945v-2.329h4.328v-1.363h-4.328v-2.255h4.885v-1.362h-6.401V22.817L84.399,22.817z
		 M77.049,22.879h1.332l3.59-8.733H80.33l-2.59,6.665l-2.602-6.665H73.46L77.049,22.879L77.049,22.879z M69.497,22.817h1.517v-8.671
		h-1.517V22.817L69.497,22.817z M58.619,22.817h1.493v-6.168l4.76,6.168h1.271v-8.671H64.65v5.996l-4.625-5.996h-1.406V22.817
		L58.619,22.817z M51.686,22.953c2.258,0,3.713-1.301,3.713-3.89v-4.918h-1.517v4.993c0,1.597-0.827,2.415-2.171,2.415
		c-1.357,0-2.184-0.868-2.184-2.477v-4.931H48.01v4.993C48.01,21.652,49.441,22.953,51.686,22.953 M34.086,22.817h6.463v-1.362
		h-4.946v-2.329h4.33v-1.363h-4.33v-2.255h4.884v-1.362h-6.401V22.817L34.086,22.817z M23.616,22.817h1.517v-3.655h4.119v3.655
		h1.517v-8.671h-1.517v3.605h-4.119v-3.605h-1.517V22.817L23.616,22.817z M16.866,22.817h1.529v-7.259h2.739v-1.413h-7.006v1.413
		h2.738V22.817L16.866,22.817z"/>
	<path fill="#FFFFFF" d="M148.421,48.684c-4.175,0-7.149-3.409-7.149-7.512v-0.061c0-4.103,2.914-7.451,7.089-7.451
		c4.177,0,7.149,3.409,7.149,7.512v0.061C155.51,45.335,152.596,48.684,148.421,48.684 M148.36,52.093
		c6.459,0,11.024-4.978,11.024-10.921v-0.061c0-5.943-4.506-10.86-10.964-10.86s-11.024,4.978-11.024,10.921v0.061
		C137.396,47.175,141.902,52.093,148.36,52.093 M124.301,52.093c3.725,0,6.699-1.508,8.771-3.288v-8.87h-8.952v3.229h5.376v3.952
		c-1.291,0.966-3.094,1.6-5.076,1.6c-4.295,0-7.148-3.198-7.148-7.542v-0.061c0-4.042,2.943-7.451,6.818-7.451
		c2.674,0,4.266,0.875,5.888,2.262l2.343-2.805c-2.162-1.841-4.416-2.866-8.08-2.866c-6.339,0-10.844,5.008-10.844,10.921v0.061
		C113.396,47.387,117.722,52.093,124.301,52.093 M97.086,43.344l3.604-8.447l3.635,8.447H97.086L97.086,43.344z M89.786,51.73h3.784
		l2.163-5.098h9.942l2.133,5.098h3.906l-9.252-21.269h-3.426L89.786,51.73L89.786,51.73z M78.882,52.093
		c3.936,0,6.338-1.448,8.532-3.741l-2.374-2.413c-1.802,1.689-3.454,2.745-6.038,2.745c-4.024,0-6.938-3.379-6.938-7.512v-0.061
		c0-4.133,2.914-7.451,6.938-7.451c2.404,0,4.206,1.056,5.888,2.624l2.374-2.744c-2.013-1.932-4.356-3.289-8.231-3.289
		c-6.368,0-10.844,4.917-10.844,10.921v0.061C68.188,47.296,72.754,52.093,78.882,52.093 M59.809,51.73h3.695V30.612h-3.695V51.73
		L59.809,51.73z M36.469,51.73h3.695v-8.899h10.033v8.899h3.695V30.613h-3.695v8.779H40.164v-8.779h-3.695V51.73L36.469,51.73z
		 M23.312,52.093c3.935,0,6.338-1.448,8.53-3.741l-2.373-2.413c-1.802,1.689-3.454,2.745-6.038,2.745
		c-4.025,0-6.939-3.379-6.939-7.512v-0.061c0-4.133,2.914-7.451,6.939-7.451c2.402,0,4.205,1.056,5.887,2.624l2.373-2.744
		c-2.013-1.932-4.355-3.289-8.23-3.289c-6.368,0-10.844,4.917-10.844,10.921v0.061C12.619,47.296,17.185,52.093,23.312,52.093"/>
</g>
<g>
</g>
<g>
</g>
<g>
</g>
<g>
</g>
<g>
</g>
<g>
</g>
</svg>
