<svg id="Layer_1" data-name="Layer 1" xmlns="http://www.w3.org/2000/svg" viewBox="0 0 1211 154.68"><defs><style>.cls-1{fill:#231f20;}</style></defs><title>UChicago-Magazine</title><path class="cls-1" d="M39,146.07c-21.9,0-33.37-9.56-33.37-28.68V9.81H33.08V115c0,7.65,1,10.95,5.91,10.95,5.21,0,5.91-3,5.91-10.95V9.81H70.62V117.39C70.62,134.94,64.54,146.07,39,146.07Z"/><path class="cls-1" d="M116.69,146.07c-24.16,0-34.41-8-34.41-61.87,0-59.79,7.3-76.47,34.07-76.47,22.42,0,30.24,12.33,30.24,33.71a161.13,161.13,0,0,1-1.39,20.86l-25,.69c.34-7.12,1.22-14.95,1.22-21.55,0-11.82,0-15.29-4.52-15.29-4.34,0-5.21,3-5.21,51.79,0,45.88.7,48.32,5.91,48.32,4.87,0,4.87-4.87,4.87-24.68A116.21,116.21,0,0,0,121.21,84l25.72.34a171.68,171.68,0,0,1,1.22,21.55C148.14,131.82,138.24,146.07,116.69,146.07Z"/><path class="cls-1" d="M197,143.29v-61H186.21v61H158.75V9.81h27.46V59.17H197V9.81h27.46V143.29Z"/><path class="cls-1" d="M238.35,143.29V9.81h27.81V143.29Z"/><path class="cls-1" d="M312.22,146.07c-24.16,0-34.41-8-34.41-61.87,0-59.79,7.3-76.47,34.07-76.47,22.42,0,30.24,12.33,30.24,33.71a161.13,161.13,0,0,1-1.39,20.86l-25,.69c.34-7.12,1.22-14.95,1.22-21.55,0-11.82,0-15.29-4.52-15.29-4.34,0-5.21,3-5.21,51.79,0,45.88.7,48.32,5.91,48.32,4.87,0,4.87-4.87,4.87-24.68A116.21,116.21,0,0,0,316.74,84l25.72.34a171.68,171.68,0,0,1,1.22,21.55C343.68,131.82,333.78,146.07,312.22,146.07Z"/><path class="cls-1" d="M391.65,143.29l-2.78-21.55H376l-2.78,21.55H349.42L370.28,9.64h25.2l24.68,133.65Zm-8-62.39c-.87-6.26-1-17.73-1.74-30.59-.34,13.21-.87,24.85-1.39,30.94-.87,10.08-2.61,25.72-2.61,25.72h8.86S384.7,91,383.66,80.9Z"/><path class="cls-1" d="M481.69,144.33,476,134.6c-3.13,6.78-8.34,11.12-17.9,11.12-22.77,0-34.07-8-34.07-64.31,0-61.17,10.08-73.69,36.15-73.69C481.69,7.73,490,17.81,490,42.66a58.87,58.87,0,0,1-2.43,15.47L462,59a90.23,90.23,0,0,0,2.26-18.07c0-12-1.22-14.95-5.21-14.95-5.56,0-6.43,5.38-6.43,54.22,0,44.84,1.91,46.75,7.3,46.75,6.26,0,7.3-4.87,7.3-20.16a148.52,148.52,0,0,0-.69-16.69h-7.3V71.16h32.32v73.16Z"/><path class="cls-1" d="M538,146.07c-22.42,0-34.41-9.73-34.41-69.35,0-58.57,9.39-69,34.41-69s36.15,11.3,36.15,69C574.15,134.25,562,146.07,538,146.07Zm6.08-109.15c-.69-9-2.43-11.65-5.56-11.65-3.48,0-5,2.61-5.39,11.65-.34,9.56-.52,18.95-.52,39.8,0,24.33,0,28.15.52,37.54.52,9,2.61,11.3,5.74,11.3s4.34-2.26,5.21-11.3c.87-9.56,1-13.21,1-37.54C545.13,55.69,544.78,46.48,544.09,36.92Z"/><path class="cls-1" d="M690.08,143.29V96.88c0-16.33.7-47.79.7-47.79s-3.48,34.24-6.08,58.22c-1.57,13.9-3.82,36-3.82,36H662.11s-2.43-22.07-4.17-36c-3.13-24.16-6.78-58.22-6.78-58.22s.87,29.2.87,47.45v46.75H628.39V9.81h30.76c1.74,9.38,5.91,29.72,9.56,49.18,1.74,9.56,2.78,25.9,2.78,25.9s1.22-16.51,3-25.73c3.3-19.64,7.12-40.32,8.52-49.36h31.8V143.29Z"/><path class="cls-1" d="M765.35,143.29l-2.78-21.55H749.71l-2.78,21.55H723.12L744,9.64h25.2l24.68,133.65Zm-8-62.39c-.87-6.26-1-17.73-1.74-30.59-.34,13.21-.87,24.85-1.39,30.94-.87,10.08-2.61,25.72-2.61,25.72h8.86S758.4,91,757.36,80.9Z"/><path class="cls-1" d="M855.39,144.33l-5.74-9.73c-3.13,6.78-8.34,11.12-17.9,11.12-22.77,0-34.07-8-34.07-64.31,0-61.17,10.08-73.69,36.15-73.69,21.55,0,29.89,10.08,29.89,34.93a58.87,58.87,0,0,1-2.43,15.47L835.75,59A90.23,90.23,0,0,0,838,40.92c0-12-1.22-14.95-5.21-14.95-5.56,0-6.43,5.38-6.43,54.22,0,44.84,1.91,46.75,7.3,46.75,6.26,0,7.3-4.87,7.3-20.16a148.52,148.52,0,0,0-.69-16.69H833V71.16h32.33v73.16Z"/><path class="cls-1" d="M916.92,143.29l-2.78-21.55H901.27l-2.78,21.55H874.68L895.54,9.64h25.2l24.68,133.65Zm-8-62.39c-.87-6.26-1-17.73-1.74-30.59-.34,13.21-.87,24.85-1.39,30.94-.87,10.08-2.61,25.72-2.61,25.72h8.86S910,91,908.92,80.9Z"/><path class="cls-1" d="M950.64,143.29v-16l35.28-96.63H955.33V9.81h59.79V26.15l-33.54,95.41h33.54v21.73Z"/><path class="cls-1" d="M1026.25,143.29V9.81h27.81V143.29Z"/><path class="cls-1" d="M1112.45,143.29s-12.68-39.45-15.81-49.36c-2.61-8-3.3-11.47-5.21-21.38,1,17.9,1.22,21,1.22,36.67v34.06H1068V9.81h24s11.47,39.11,13.9,47.44a123.21,123.21,0,0,1,4.34,17.9c-.69-13-.87-25.9-.87-39.28V9.81H1134V143.29Z"/><path class="cls-1" d="M1147.92,143.29V9.81h53.71V30.67h-26.24V64.9h22.94V85.76h-22.94v35.8h30.24v21.73Z"/></svg>